<?xml version="1.0" encoding="utf-8"?>
<!-- Generator: Adobe Illustrator 24.1.1, SVG Export Plug-In . SVG Version: 6.00 Build 0)  -->
<svg version="1.1" id="Lager_1" xmlns="http://www.w3.org/2000/svg" xmlns:xlink="http://www.w3.org/1999/xlink" x="0px" y="0px"
	 viewBox="0 0 751.8 768.9" style="enable-background:new 0 0 751.8 768.9;" xml:space="preserve">
<style type="text/css">
	.st0{fill:#F7BEC7;}
	.st1{fill:#1D1D1B;}
	.st2{fill:#3C3C3B;}
	.st3{fill:#575756;}
	.st4{fill:#FFEABC;}
	.st5{fill:#FFFFFF;}
	.st6{fill:#F29AA7;}
</style>
<g>
	<g>
		<path class="st0" d="M575.6,729.7c-4.3,2.2-8.7,4.1-13.1,5.8c-13,4.9-26.5,7.9-40.2,9.9c-0.3,0.1-0.6,0.3-0.9,0.4
			c-0.3,0.2-1.6,0.2-1.7,0.5c-0.4,0.8,3.8,7.8,4.7,8.9c6.1,7.3,17.5,5.4,21.9-2.7c0.5-0.9,2.2-1.1,2.7,0c0.6,2.1,1.9,3.5,3.8,4.2
			c4.5,3.5,8.1,0.9,11.1-7.8c-0.5-1.5,1.6-2.6,2.6-1.5c4.5,4.5,24,12.9,22.4-1.6C588.4,739.2,581.1,733,575.6,729.7L575.6,729.7z"/>
		<path class="st0" d="M227.2,745.5c-18.7-2.5-36.9-7.1-53.7-15.8c-5.4,3.3-12.5,9.5-13.2,16c-1.5,14.4,18,6.1,22.4,1.6
			c1.1-1.1,3.2,0,2.6,1.5c3,8.7,6.6,11.3,11.1,7.8c2-0.7,3.3-2.1,3.8-4.2c0.5-1.1,2.2-0.9,2.7,0c4.8,8.9,17.9,10.1,23.3,0.9
			c0.7-1.1,3.5-6.7,3.2-7.1c-0.2-0.4-1.5-0.4-1.9-0.6C227.5,745.7,227.4,745.6,227.2,745.5z"/>
		<path class="st1" d="M747.9,405.1c-32.8-8.8-67.2-9.4-101.1-6.9c-1.1-23.4-6.7-46.9-14.2-69.7c-4.1-12.5-8.5-24.9-12.7-37.4
			c2,0.4,3.9,0.9,5.9,1.5c1.2,0.3,2.3-0.8,2-2c-1.8-6.2-3.5-12.4-5.3-18.5c-2.1-7.2-3.2-16.5-6.7-23.2c-1.6-3.2-5.4-4-9-4.6
			c0-0.1-0.1-0.2-0.1-0.3c5.9-1,13-6.3,17.6-9.2c7.9-4.9,15.2-10.8,21.8-17.3c13-12.9,23.1-28.7,29.4-45.9
			c12.6-34.5,9.3-73.8-9-105.6c-36.8-64-124-82.6-183.4-38.6c-30.5,22.6-48.9,57.7-50.8,95.3c-2.4-4-5.1-7.9-9.6-9.8
			c-7.6-3.3-15.2-0.7-21.1,4.2c1.3-7.6-0.9-15.6-9-18.8c-8.8-3.5-15.1,2.3-19.5,9.1c0.4-9.6-0.4-19.7-6.7-27.3
			c-5-6-12.7-9.3-20.5-8.8c-28.7,1.8-11.3,44.3-30,55.5c0.6-5.9-0.8-12.7-1.7-18.2c-1.4-9.3-4-18.5-7.6-27.3
			c-6.3-15.6-15.7-29.8-27.5-41.5C253.8,14.5,218.3,1,182.7,3.2C109.4,7.7,54.8,76.4,66.4,148.7c6.7,42.4,35.6,78.4,74.8,95.4
			c-0.1,0.6-0.3,1.1-0.4,1.7c-3.5,0.7-6.8,1.7-8.3,3.5c-1.1,1.3-1.4,4.5-1.9,6.1c-1.5,4.9-3,9.9-4.5,14.9
			c-2.3,7.4-4.5,14.8-6.8,22.3c-0.1,0.3,0.1,0.4,0.1,0.6c0.1,0.1,0,0.2,0.1,0.3c0.1,0.3,0.2,0.4,0.4,0.6c0.1,0.2,0.3,0.3,0.5,0.4
			c0.1,0,0.2,0,0.3,0.1c0.3,0,0.4,0.1,0.6,0.1c2-0.6,4-1.1,6-1.6c-10.3,30.4-21.8,60.5-25.7,92.4c-0.5,4.2-0.8,8.4-0.9,12.5
			c-31.5-1.9-63.2-0.8-93.7,7.3c-2,0.6-1.1,3.6,0.8,3.1c30.1-8.1,61.5-9.1,92.7-7.3c-0.3,12.9,1.2,25.5,4.2,37.8
			c-19.9,1.6-39.8,4.1-59.6,7.9c-2,0.4-1.1,3.4,0.9,3c19.7-3.7,39.6-6.2,59.5-7.8c3.4,12.8,8.6,25.1,15.4,36.6
			c-16.6,3.8-33.1,8.3-49.4,13.6c-1.9,0.6-1.1,3.7,0.9,3c16.5-5.4,33.3-10,50.2-13.8c4.5,7.2,9.6,14.1,15.4,20.4
			c4.5,4.9,9.3,9.5,14.4,13.7c-7.1,41.2-27.7,79.2-30.5,121.2c-2.3,36.1,11.1,68.6,42.3,88.1c2,1.2,4,2.3,5.9,3.4
			c-7,5-18.2,16.6-13.2,24.6c4.9,7.9,17.5,4.1,24.6-0.6c0.3,9.4,13.9,11.8,19.9,4.1c3.7,4.9,9.8,7.5,16.1,6.6
			c8.7-1.4,12.6-8.8,13.9-16.7c22.9,2.7,46.6,2.4,69.1,2.4c44.4,0,88.9,0,133.4,0c27.4,0,55.7,0.9,83.3-2.5
			c1.3,7.9,5.2,15.4,13.9,16.8c6.3,0.9,12.4-1.6,16.1-6.6c6,7.7,19.7,5.3,19.9-4.2c7.1,4.7,19.9,8.7,24.6,0.7
			c4.9-8.3-6.2-19.8-13.3-24.8c11.2-6.1,21.4-13.9,29.5-23.9c12.5-15.4,18.2-34.9,18.8-54.6c1.5-47.1-23.3-89.4-30.9-135
			c12.1-9.6,22.6-21.1,30.8-34.4c18.7,4,37.1,8.9,55.3,14.9c1.9,0.6,2.7-2.4,0.8-3c-17.9-5.9-36.1-10.7-54.5-14.8
			c3-5.2,5.8-10.6,8.1-16.3c2.6-6.5,4.6-13,6.2-19.6c22.1,1.5,44.1,4.1,65.9,8.3c2,0.4,2.8-2.6,0.8-3c-21.9-4.2-43.9-6.8-66-8.3
			c2.6-12.2,3.6-24.6,3.2-36.9c33.6-2.5,67.6-2,100.2,6.8C749,408.7,749.9,405.7,747.9,405.1z M73.3,164.4
			c-10.4-33.8-5.4-71.3,13.5-101.2c37.7-59.7,120.9-75,177.3-32.4C279.2,42.2,291.5,57.1,300,74c4.3,8.6,7.6,17.7,9.7,27.1
			c1.8,8.1,5,19.9,2.8,28.1c-0.3,1.1,0.8,2.4,1.9,2c16.5-6.5,13.2-27.7,17.1-41.7c2.1-7.5,5.4-14.4,14.4-14.9c6-0.4,12.2,1.8,16.5,6
			c8.8,8.6,7.9,22.3,7.1,33.5c-0.1,1.6,2.3,2.2,3,0.8c3-6.1,7.2-14.6,15.3-14.4c11.1,0.4,12.8,13.3,9.3,21.2
			c-0.7,1.4,1.2,3.4,2.5,1.9c6.6-7.8,19-13.4,27-3.8c2.3,2.8,4,6.4,5.7,9.6c0.8,1.4,2.9,0.8,2.9-0.8c0.6-71,62.2-128.1,133.3-121.9
			c71.9,6.2,123.6,76.3,108.9,146.8c-4.2,20.1-13.4,39.1-26.9,54.7c-6.6,7.7-14.1,14.6-22.4,20.4c-3.6,2.5-7.3,4.9-11.2,7.1
			c-3.2,1.8-8.5,5.6-12.2,5.6c-1.1,0-1.7,1-1.5,2c0,0.2,0.1,0.4,0.1,0.6c-0.1,0-0.1,0-0.2-0.1c-7.6-1.7-15.3-3.1-23-4.3
			c-41.9-6.5-84.5-8.6-126.7-9.9c-50.2-1.5-100.5-1.3-150.8,0.6c-42.5,1.6-85.2,4-127.5,10c-8.4,1.1-16.8,2.5-25,4.2
			c-1.5,0.3-3.7,0.6-6.1,0.9c0.1-0.7,0.3-1.4,0.4-2c0.2-1-0.4-2-1.5-2c-0.3,0-0.4,0-0.7,0C109.5,226.8,83.9,199,73.3,164.4z
			 M123.2,290.7c3.9-12.7,7.9-25.3,11.7-38.1c0.8-2.8,0.1-1.7,2.8-2.1c3.1-0.4,6.2-1.6,9.3-2.3c6.7-1.5,13.4-2.6,20.2-3.7
			c39.8-6.2,80.2-8.7,120.4-10.5c91.3-4.1,184.6-5,275.5,6.3c9.5,1.1,19,2.5,28.4,4.3c4,0.8,8,1.6,12,2.5c1.8,0.4,3.5,0.8,5.2,1.3
			c0.5,0.2,4,1.1,4,0.6c1,1.5,1.6,5.9,2,7.2c1.4,4.9,2.8,9.8,4.2,14.6c1.8,6.1,3.5,12.2,5.2,18.2c-25-6.5-50.9-9.1-76.5-11.4
			c-36.9-3.3-73.9-4.7-110.8-5.5c-77.3-1.5-155.1-0.1-232.2,6.7C177.4,281.2,149.6,283.7,123.2,290.7z M226.3,753.4
			c-5.4,9.2-18.5,7.9-23.3-0.9c-0.5-0.9-2.2-1.1-2.7,0c-0.6,2.1-1.9,3.5-3.8,4.2c-4.5,3.5-8.1,0.9-11.1-7.8c0.5-1.5-1.6-2.6-2.6-1.5
			c-4.5,4.5-24,12.9-22.4-1.6c0.7-6.5,7.9-12.7,13.2-16c16.8,8.6,35,13.3,53.7,15.8c0.1,0.1,0.3,0.1,0.4,0.2
			c0.4,0.2,1.7,0.2,1.9,0.6C229.8,746.7,227,752.3,226.3,753.4z M589.1,745.8c1.5,14.4-18,6.1-22.4,1.6c-1.1-1.1-3.2,0-2.6,1.5
			c-3,8.7-6.6,11.3-11.1,7.8c-2-0.7-3.3-2.1-3.8-4.2c-0.5-1.1-2.2-0.9-2.7,0c-4.4,8.1-15.8,10-21.9,2.7c-0.9-1.1-5.2-8.1-4.7-8.9
			c0.1-0.3,1.4-0.3,1.7-0.5c0.3-0.1,0.6-0.3,0.9-0.4c13.7-2,27.2-5,40.2-9.9c4.4-1.7,8.8-3.6,13.1-5.8h0.1
			C581.1,733,588.4,739.2,589.1,745.8z M640.6,438.1c-46.7-2.9-93.7-0.1-139.7,8.8c-2,0.4-1.1,3.5,0.8,3.1
			c45.6-8.8,92-11.6,138.2-8.8c-3.1,12.4-7.8,24.5-14.3,35.6c-43-9.1-87.1-13.2-131.2-12c-2,0.1-2,3.2,0,3.2
			c43.6-1.3,87,2.8,129.5,11.7c-3.7,5.9-7.8,11.6-12.5,17c-15.8,17.8-36.1,30.5-58.1,39.1c-1.8,0.7-1.1,3.7,0.8,3
			c14.1-5.1,27.4-12.5,39.6-21.2c7,39.6,26.6,76.3,29.9,116.7c1.6,19.2-0.4,39-9.6,56.2c-9.1,16.8-24.5,29.4-41.5,37.6
			c-39.3,19.2-85.1,17.5-127.9,17.5c-42.1,0-84.2,0-126.4,0c-38.5,0-77.7,1.6-115.3-8.1c-20.4-5.2-40.3-14.6-55.2-30
			c-15.6-16.3-22.4-37.9-22.7-60.3c-0.4-45.1,22.6-85.7,30.4-129.3c1.1,0.9,2.3,1.8,3.4,2.6c10.5,8.1,22.5,14.5,35,18.4
			c2,0.6,2.8-2.4,0.9-3c-13.6-4.7-26.1-11.7-37.3-20.4c-0.6-0.6-1.4-1.1-2-1.6c-0.1,0-0.1,0-0.1,0c-11.4-9.3-21.3-20.5-29.3-33
			c44.1-9.7,89.3-14.1,134.6-12.7c2,0.1,2-3.1,0-3.2c-45.9-1.3-91.7,3.2-136.4,13c-5.2-8.5-9.5-17.6-12.9-27c-1.1-3-2-6.1-2.8-9.1
			c48.3-3.5,97-0.9,144.7,8.3c2,0.4,2.8-2.7,0.8-3.1c-48.3-9.3-97.5-11.9-146.3-8.3c-3-12.4-4.2-24.9-3.8-37.4
			c12,0.8,23.9,2,35.7,3.4c43.7,5.2,86.8,15.3,127.5,32.1c1.8,0.8,2.6-2.3,0.8-3c-41-17-84.3-27-128.3-32.3
			c-11.7-1.4-23.6-2.6-35.5-3.3c1.3-26.7,8.8-53.2,17.6-78.9c3.1-9.1,6.2-18.1,9.3-27.2c20.7-4.8,42.1-6.9,63.2-9
			c35.4-3.5,71-5.4,106.7-6.6c77.3-2.7,155.3-2.6,232.5,3.3c27.7,2.1,55.9,4.4,83.1,10.8c10.4,30.8,22.4,61.2,26.5,93.6
			c0.6,4.9,1,9.7,1.2,14.6c-9.7,0.8-19.4,1.7-28.9,2.8c-44,5.3-87.4,15.3-128.3,32.3c-1.8,0.8-1,3.8,0.9,3
			c40.7-16.8,83.8-26.9,127.5-32.1c9.6-1.1,19.2-2.1,28.9-2.9C644.4,413.9,643.2,426.1,640.6,438.1z"/>
		<path class="st2" d="M143.1,241.2c1.1,0,1.7,1,1.5,2c-0.1,0.6-0.3,1.3-0.4,2c2.3-0.4,4.5-0.6,6.1-0.9c8.3-1.6,16.6-3,25-4.2
			c42.2-5.9,84.9-8.4,127.5-10c50.2-1.9,100.5-2.1,150.8-0.6c42.2,1.3,84.8,3.4,126.7,9.9c7.7,1.2,15.4,2.6,23,4.3
			c0.1,0.1,0.1,0.1,0.2,0.1c-0.1-0.2-0.1-0.4-0.1-0.6c-0.2-1,0.4-2,1.5-2c3.7,0,9-3.8,12.2-5.6c3.8-2.1,7.6-4.5,11.2-7.1
			c8.3-5.9,15.8-12.7,22.4-20.4c13.4-15.6,22.7-34.5,26.9-54.7C692.1,82.9,640.4,12.9,568.5,6.6c-71.1-6.2-132.7,50.9-133.3,121.9
			c0,1.5-2.1,2.1-2.9,0.8c-1.8-3.2-3.5-6.7-5.7-9.6c-7.9-9.6-20.4-3.9-27,3.8c-1.3,1.5-3.2-0.4-2.5-1.9c3.5-7.9,1.8-20.8-9.3-21.2
			c-8.1-0.3-12.2,8.3-15.3,14.4c-0.7,1.4-3,0.8-3-0.8c0.8-11.2,1.7-24.9-7.1-33.5c-4.3-4.2-10.5-6.4-16.5-6
			c-9.1,0.6-12.4,7.4-14.4,14.9c-3.9,14-0.6,35.2-17.1,41.7c-1.1,0.4-2.2-0.9-1.9-2c2.2-8.2-1-20-2.8-28.1
			c-2.1-9.4-5.4-18.5-9.7-27.1c-8.4-16.9-20.8-31.8-35.9-43.2C207.7-11.8,124.5,3.5,86.8,63.2c-18.8,29.9-23.9,67.4-13.5,101.2
			c10.6,34.5,36.2,62.3,69.1,76.8C142.7,241.2,142.9,241.2,143.1,241.2z M515.1,86.5c38.3-28.9,95-17.9,119.9,23.1
			c24,39.5,10.2,105.6-38.5,118.8c-0.1,0-0.2-0.1-0.3-0.1c-0.3,0-0.5,0-0.8-0.1c-0.1,0-0.2,0-0.3-0.1c-0.2-0.1-0.3-0.3-0.5-0.5
			c-24.8-36.7-66.9-66.4-111.3-73.7c-0.6-0.1-1.1-0.9-1.1-1.6C482.5,126.5,494.3,102.1,515.1,86.5z M105.8,169
			c-8.8-47.1,23.8-93.5,72.1-98.6c48.5-5.1,90.5,33.7,91.1,81.9c0,0.7-0.5,1.4-1.2,1.6c-44.3,7.3-86.5,37-111.3,73.7
			c-0.1,0.3-0.3,0.4-0.5,0.5c-0.1,0.1-0.1,0.1-0.2,0.1c-0.3,0.1-0.5,0.1-0.8,0.1c-0.1,0-0.2,0.1-0.3,0.1
			C127.8,221.1,110.7,195.4,105.8,169z"/>
		<path class="st3" d="M487.8,436.7c-1.9,0.8-2.7-2.3-0.9-3c41-17,84.3-27,128.3-32.3c9.5-1.1,19.2-2.1,28.9-2.8
			c-0.2-4.9-0.6-9.7-1.2-14.6c-4.1-32.4-16.1-62.8-26.5-93.6c-27.2-6.4-55.4-8.7-83.1-10.8c-77.2-5.9-155.1-6-232.5-3.3
			c-35.6,1.3-71.2,3.2-106.7,6.6c-21.1,2.1-42.5,4.2-63.2,9c-3,9.1-6.2,18.1-9.3,27.2c-8.8,25.7-16.3,52.3-17.6,78.9
			c11.9,0.8,23.8,2,35.5,3.3c44,5.3,87.4,15.3,128.3,32.3c1.8,0.8,1,3.8-0.8,3c-40.7-16.8-83.8-26.9-127.5-32.1
			c-11.8-1.4-23.7-2.6-35.7-3.4c-0.3,12.5,0.8,25,3.8,37.4c48.9-3.6,98-0.9,146.3,8.3c2,0.4,1.1,3.5-0.8,3.1
			c-47.7-9.2-96.4-11.9-144.7-8.3c0.8,3,1.7,6.1,2.8,9.1c3.3,9.5,7.7,18.5,12.9,27c44.7-9.9,90.5-14.4,136.4-13c2,0.1,2,3.2,0,3.2
			c-45.3-1.3-90.5,3-134.6,12.7c8,12.5,17.9,23.6,29.3,33c0,0,0,0,0.1,0c0.6,0.6,1.4,1.1,2,1.6c11.2,8.7,23.6,15.7,37.3,20.4
			c1.9,0.6,1.1,3.7-0.9,3c-12.5-3.9-24.5-10.3-35-18.4c-1.1-0.8-2.3-1.7-3.4-2.6c-7.8,43.7-30.9,84.3-30.4,129.3
			c0.3,22.4,7.1,44,22.7,60.3c14.8,15.4,34.7,24.8,55.2,30c37.6,9.6,76.8,8.1,115.3,8.1c42.2,0,84.3,0,126.4,0
			c42.8,0,88.6,1.6,127.9-17.5c17-8.3,32.4-20.8,41.5-37.6c9.2-17.1,11.3-37,9.6-56.2c-3.3-40.3-22.9-77-29.9-116.7
			c-12.2,8.7-25.5,16.1-39.6,21.2c-1.9,0.7-2.6-2.3-0.8-3c22.1-8.6,42.4-21.3,58.1-39.1c4.7-5.4,8.8-11,12.5-17
			c-42.5-8.9-85.9-12.9-129.5-11.7c-2,0.1-2-3.1,0-3.2c44.1-1.3,88.2,2.8,131.2,12c6.5-11.1,11.2-23.1,14.3-35.6
			c-46.1-2.8-92.6,0-138.2,8.8c-2,0.4-2.8-2.7-0.8-3.1c46.1-8.8,93-11.7,139.7-8.8c2.6-11.9,3.8-24.1,3.7-36.4
			c-9.7,0.8-19.4,1.8-28.9,2.9C571.6,409.7,528.5,419.8,487.8,436.7z M429.3,312.4c47.3,0,94.6,0,141.8,0c2,0,2,3.2,0,3.2
			c-4.6,0-9.1,0-13.7,0c1.1,4.5,1.9,9.4,1.9,14.5c0,0.8-0.6,1.4-1.4,1.4c0,0-24,7.7-22.5,8.1l22.3,7.6c0.6,0.3,1.1,0.9,0.9,1.6
			c-5.8,29.4-31.8,49-58.7,47.1c-29.8-2.1-52.4-31.1-50-64.2c0.4-5.7,1.6-11.1,3.3-16.2c-7.9,0-15.9,0-23.8,0
			C427.2,315.6,427.3,312.4,429.3,312.4z M415,467.5c-2,18.8-20.3,26.7-37.3,25.7c-2-0.1-2-3.3,0-3.2c15.1,0.9,32.3-5.4,34.2-22.6
			C412.1,465.5,415.3,465.5,415,467.5z M346.1,463.1c17.7-1.1,30.3-16.1,30.4-33.4c-1.2-0.2-2.5-0.8-3.7-2c-2.7-2.6-4.9-6-7.3-8.8
			c-1.7-2.1-4.6-4.6-5.5-7.2c-4.7-13.3,25-8.5,30.4-7.7c9.5,3.2,2.6,11.2-1.3,15.7c-2.4,2.8-5.5,7.6-9.1,9.5
			c4.7,5.5,11.9,9.4,19.4,7.4c7.6-2.1,12.2-9.5,11.4-17.1c-0.2-2,3-2,3.2,0c0.8,8.3-3.8,16.5-11.8,19.5c-8.1,3.2-16.8,0.1-22.7-5.7
			c-1.8,17.6-15.1,32-33.3,33.1c-19.6,1.3-35.4-13.6-37.8-32.6c-0.3-2,2.9-2,3.2,0C313.7,451,328.3,464.3,346.1,463.1z M241.3,396
			c-29.8-2.1-52.4-31.1-50-64.2c0.4-5.7,1.5-11.1,3.3-16.2c-5.1,0-10.2,0-15.3,0c-2,0-2-3.2,0-3.2c47.3,0,94.6,0,141.8,0
			c2.1,0,2,3.2,0,3.2c-7.4,0-14.8,0-22.2,0c1.1,4.5,1.9,9.4,1.9,14.5c0,0.8-0.6,1.4-1.4,1.4c0,0-24,7.7-22.6,8.1l22.3,7.6
			c0.7,0.3,1.1,0.9,1,1.6C294.2,378.3,268.3,397.9,241.3,396z M515.7,586.2c2-0.7,2.8,2.4,0.8,3c-34,12-69.7,0.6-102.7-9.1
			c-12.4-3.7-25.3-7.8-38.5-7.2c-14.3,0.7-27,7.2-38.5,15.2c23.6-1.4,42.2,15.3,61.3,27.5c22.2,14.2,45.7,22.4,72.1,23
			c2,0,2,3.2,0,3.2c-22.6-0.6-43.7-6.2-63.5-17.3c-5-2.8-10-6.2-15.1-9.7c-16.4,4-32.2,14.1-47.7,20.1c-22.1,8.6-44.6,11.4-68.1,8.3
			c-2-0.3-2-3.4,0-3.2c26.7,3.6,51.8-1,76.3-11.9c11.9-5.2,23.8-11.9,36.3-15.5c-15.8-11-32.2-22.4-51.2-21.4
			c-34,4.2-68.4,9.6-99.2-7.2c-1.8-0.9-0.2-3.7,1.6-2.7c28.1,15.3,59.1,12,90.3,8.2c0.1-0.2,0.1-0.3,0.3-0.4
			c11.9-9,25.2-17,40.3-18.8c11.5-1.4,22.9,0.9,34,3.9C440.4,584,478.6,599.3,515.7,586.2z"/>
		<path class="st4" d="M387.4,666c-46.6-1.7-102.2,31.5-111.4,79.3c14.1,0.2,28.2,0,42.2,0h126.4c14.2,0,28.7,0.2,43.1-0.3
			C473.9,701.9,433.8,667.7,387.4,666z"/>
		<path class="st2" d="M196.9,363.3c-4.3-9.4-6.4-20.2-5.6-31.5c0.4-5.7,1.5-11.1,3.3-16.2h-15.3c-2,0-2-3.2,0-3.2H321
			c2.1,0,2,3.2,0,3.2h-22.2c1.1,4.5,1.9,9.4,1.9,14.5c0,0.8-0.6,1.4-1.4,1.4c0,0-24,7.7-22.6,8.1l22.3,7.6c0.7,0.3,1.1,0.9,1,1.6
			c-0.7,3.7-1.8,7.2-3.1,10.5c39.6-12.9,73.4-37.7,111.2-55.6c65.6-31,138.6-27.7,208.4-13.2c0-0.1-0.1-0.2-0.1-0.3
			c-27.2-6.4-55.4-8.7-83.1-10.8c-77.2-5.9-155.1-6-232.5-3.3c-35.6,1.3-71.2,3.2-106.7,6.6c-21.1,2.1-42.5,4.2-63.2,9
			c-3,9.1-6.2,18.1-9.3,27.2c-1.6,4.8-3.2,9.6-4.7,14.4C142.5,346.5,169.3,357.3,196.9,363.3z"/>
		<path class="st0" d="M487.1,151.4c2.8,0.9,5.8,1.4,8.7,2.1c10,2.8,19.7,6.6,29.2,11c28.7,13.5,53.6,34.1,71.5,60.3
			c42.7-12.4,57.2-69.4,39.6-106.5c-15.4-32.5-51.9-50.9-87.2-43.7c-17,3.4-32.5,12.4-43.9,25.3c-6.1,7-11,15.1-14.4,23.7
			c-1.5,3.9-2.7,7.9-3.6,12c-0.9,4-0.6,8.4-1.6,12.3C484.4,151.9,483.8,150.4,487.1,151.4z"/>
		<path class="st1" d="M483.3,153.9c44.4,7.3,86.5,37,111.3,73.7c0.2,0.3,0.3,0.4,0.5,0.5c0.1,0.1,0.2,0.1,0.3,0.1
			c0.3,0.1,0.5,0.1,0.8,0.1c0.1,0,0.2,0.1,0.3,0.1c48.7-13.1,62.5-79.3,38.5-118.8c-24.9-41-81.6-52-119.9-23.1
			c-20.7,15.6-32.6,40-32.9,65.8C482.2,152.9,482.7,153.8,483.3,153.9z M485.4,148c1-3.8,0.8-8.3,1.6-12.3c0.9-4,2.1-8.1,3.6-12
			c3.3-8.6,8.3-16.7,14.4-23.7c11.4-12.9,26.9-21.9,43.9-25.3c35.3-7.1,71.8,11.3,87.2,43.7c17.6,37.1,3.2,94.2-39.6,106.5
			c-18-26.2-42.8-46.8-71.5-60.3c-9.5-4.4-19.2-8.2-29.2-11c-2.9-0.8-5.9-1.3-8.7-2.1C483.8,150.4,484.4,151.9,485.4,148z"/>
		<path class="st5" d="M436.6,272.1c36.9,0.8,73.9,2.2,110.8,5.5c25.6,2.3,51.6,4.9,76.5,11.4c-1.8-6.1-3.5-12.1-5.2-18.2
			c-1.4-4.9-2.8-9.8-4.2-14.6c-0.4-1.4-0.9-5.7-2-7.2c0,0.5-3.5-0.4-4-0.6c-1.8-0.4-3.5-0.8-5.2-1.3c-4-0.9-7.9-1.7-12-2.5
			c-9.4-1.8-18.9-3.2-28.4-4.3c-91-11.3-184.2-10.4-275.5-6.3c-40.2,1.8-80.6,4.3-120.4,10.5c-6.7,1.1-13.5,2.3-20.2,3.7
			c-3,0.7-6.2,1.8-9.3,2.3c-2.7,0.4-2-0.7-2.8,2.1c-3.8,12.8-7.8,25.5-11.7,38.1c26.3-7,54.2-9.5,81.3-11.9
			C281.5,272,359.3,270.6,436.6,272.1z"/>
		<path class="st1" d="M429.3,315.6c7.9,0,15.8,0,23.8,0c-1.7,5.1-2.9,10.5-3.3,16.2c-2.3,33.2,20.2,62.2,50,64.2
			c27,1.9,53-17.7,58.7-47.1c0.1-0.7-0.3-1.4-0.9-1.6l-22.3-7.6c-1.5-0.4,22.5-8.1,22.5-8.1c0.8-0.1,1.4-0.7,1.4-1.4
			c0-5.1-0.8-10-1.9-14.5c4.6,0,9.1,0,13.7,0c2,0,2-3.2,0-3.2c-47.3,0-94.6,0-141.8,0C427.3,312.4,427.2,315.6,429.3,315.6z
			 M499.3,350.1c-10.3-4.3-3.6-20.3,6.7-15.9C516.3,338.5,509.6,354.4,499.3,350.1z M511.8,315.6c-4,10.4-14.8,18.2-28,12.7
			c-6.6-2.8-10.3-7.4-11.9-12.7C485.2,315.6,498.5,315.6,511.8,315.6z"/>
		<path class="st1" d="M404.6,574.1c-11.1-3-22.4-5.4-34-3.9c-15.1,1.9-28.4,9.8-40.3,18.8c-0.2,0.1-0.3,0.3-0.3,0.4
			c-31.1,3.8-62.2,7.1-90.3-8.2c-1.8-0.9-3.4,1.8-1.6,2.7c30.8,16.8,65.2,11.4,99.2,7.2c19-1.1,35.4,10.3,51.2,21.4
			c-12.5,3.7-24.5,10.3-36.3,15.5c-24.6,10.9-49.6,15.5-76.3,11.9c-2-0.3-2,2.9,0,3.2c23.5,3.2,46.1,0.3,68.1-8.3
			c15.4-6,31.3-16.1,47.7-20.1c5,3.5,10.1,6.9,15.1,9.7c19.7,11,40.9,16.7,63.5,17.3c2,0,2-3.2,0-3.2c-26.4-0.6-49.9-8.8-72.1-23
			c-19.1-12.2-37.8-28.9-61.3-27.5c11.5-8,24.2-14.5,38.5-15.2c13.2-0.6,26,3.5,38.5,7.2c33,9.8,68.7,21.2,102.7,9.1
			c2-0.6,1.1-3.7-0.8-3C478.6,599.3,440.4,584,404.6,574.1z"/>
		<path class="st5" d="M483.8,328.2c13.2,5.5,24-2.3,28-12.7c-13.3,0-26.6,0-39.9,0C473.5,320.8,477.2,325.5,483.8,328.2z"/>
		<path class="st5" d="M506,334.1c-10.3-4.3-17,11.6-6.7,15.9C509.6,354.4,516.3,338.5,506,334.1z"/>
		<path class="st1" d="M411.9,467.5c-1.8,17.1-19.1,23.4-34.2,22.6c-2-0.1-2,3,0,3.2c17,1,35.3-6.9,37.3-25.7
			C415.3,465.5,412.1,465.5,411.9,467.5z"/>
		<path class="st1" d="M308.3,433.6c2.4,19,18.2,33.8,37.8,32.6c18.2-1.1,31.5-15.5,33.3-33.1c5.9,5.9,14.6,9,22.7,5.7
			c7.9-3,12.6-11.2,11.8-19.5c-0.2-2-3.3-2-3.2,0c0.8,7.7-3.8,15.1-11.4,17.1c-7.4,2-14.7-1.9-19.4-7.4c3.6-1.8,6.7-6.7,9.1-9.5
			c3.9-4.5,10.8-12.5,1.3-15.7c-5.4-0.8-35.1-5.6-30.4,7.7c0.9,2.6,3.8,5.2,5.5,7.2c2.4,2.8,4.6,6.2,7.3,8.8c1.3,1.2,2.5,1.8,3.7,2
			c-0.1,17.3-12.7,32.3-30.4,33.4c-17.8,1.2-32.5-12.1-34.7-29.4C311.2,431.6,308,431.6,308.3,433.6z M374.2,424.4
			c-3.2-3-7.1-7.6-9.4-11.3c-0.3-0.4-1-0.9-1.1-1.4c-2-5.7,5.6-5.6,8.3-5.7c5.9-0.3,11.8,0.1,17.6,1c6.7,2.3-4.2,12.2-5.7,13.9
			C381.2,424.1,378.5,428.3,374.2,424.4z"/>
		<path class="st0" d="M383.9,420.9c1.4-1.7,12.4-11.7,5.7-13.9c-5.8-0.9-11.7-1.3-17.6-1c-2.7,0.1-10.3,0.1-8.3,5.7
			c0.1,0.4,0.9,1,1.1,1.4c2.3,3.7,6.2,8.3,9.4,11.3C378.5,428.3,381.2,424.1,383.9,420.9z"/>
		<path class="st1" d="M300,348.9c0.1-0.7-0.3-1.4-1-1.6l-22.3-7.6c-1.4-0.4,22.6-8.1,22.6-8.1c0.8-0.1,1.4-0.7,1.4-1.4
			c0-5.1-0.8-10-1.9-14.5c7.4,0,14.8,0,22.2,0c2,0,2.1-3.2,0-3.2c-47.3,0-94.6,0-141.8,0c-2,0-2,3.2,0,3.2c5.1,0,10.2,0,15.3,0
			c-1.8,5.1-2.9,10.5-3.3,16.2c-2.3,33.2,20.2,62.2,50,64.2C268.3,397.9,294.2,378.3,300,348.9z M240.7,350.1
			c-10.3-4.3-3.6-20.3,6.7-15.9C257.7,338.5,251,354.4,240.7,350.1z M225.2,328.2c-6.6-2.8-10.3-7.4-11.9-12.7c13.3,0,26.6,0,39.9,0
			C249.2,326,238.4,333.8,225.2,328.2z"/>
		<path class="st1" d="M155,228.3c0.3,0,0.5,0,0.8-0.1c0.1,0,0.1,0,0.2-0.1c0.2-0.1,0.4-0.3,0.5-0.5c24.8-36.7,67-66.4,111.3-73.7
			c0.7-0.1,1.2-0.9,1.2-1.6c-0.6-48.2-42.6-87-91.1-81.9c-48.3,5-80.9,51.5-72.1,98.6c4.9,26.3,22,52.1,48.9,59.3
			C154.8,228.3,154.9,228.3,155,228.3z M110.1,131.6c9.5-35,42.5-59.4,78.7-58.5c35.7,0.9,67.1,26.7,75,61.5
			c0.7,3,3.3,15.6,2.5,16.3c-0.9,0.9-5,1.1-6.2,1.4c-9,2.2-17.7,5.2-26.2,8.8c-32,13.4-59.8,35.2-79.4,63.8
			C116.9,214.1,100.5,166.9,110.1,131.6z"/>
		<path class="st0" d="M233.9,161.1c8.4-3.6,17.2-6.6,26.2-8.8c1.3-0.3,5.3-0.4,6.2-1.4c0.8-0.7-1.8-13.2-2.5-16.3
			c-7.9-34.8-39.3-60.6-75-61.5c-36.2-0.9-69.3,23.5-78.7,58.5c-9.5,35.3,6.9,82.4,44.5,93.3C174.2,196.3,201.9,174.6,233.9,161.1z"
			/>
		<path class="st5" d="M225.2,328.2c13.2,5.5,24.1-2.3,28.1-12.7c-13.3,0-26.6,0-39.9,0C214.9,320.8,218.6,325.5,225.2,328.2z"/>
		<path class="st5" d="M247.4,334.1c-10.3-4.3-17,11.6-6.7,15.9C251,354.4,257.7,338.5,247.4,334.1z"/>
	</g>
	<g>
		<path class="st6" d="M125.1,143.8c0.1-29.9,15.3-53.7,39.4-67.3c-25.7,7.7-46.9,28.3-54.1,55.1c-9.5,35.3,6.8,82.4,44.4,93.4
			c1.6-2.3,3.4-4.6,5.1-6.8C140.1,198,125,172.9,125.1,143.8z"/>
		<path class="st6" d="M626.8,143.8c-0.1-29.9-15.3-53.7-39.4-67.3c25.7,7.7,46.9,28.3,54.1,55.1c9.5,35.3-6.1,82.2-44.6,93.3
			c-1.6-2.3-3.2-4.5-4.9-6.8C611.8,198,626.9,172.9,626.8,143.8z"/>
	</g>
</g>
</svg>
