<?xml version="1.0" encoding="utf-8"?>
<!-- Generator: Adobe Illustrator 24.1.1, SVG Export Plug-In . SVG Version: 6.00 Build 0)  -->
<svg version="1.1" id="Lager_1" xmlns="http://www.w3.org/2000/svg" xmlns:xlink="http://www.w3.org/1999/xlink" x="0px" y="0px"
	 viewBox="0 0 751.8 768.9" style="enable-background:new 0 0 751.8 768.9;" xml:space="preserve">
<style type="text/css">
	.st0{fill:none;}
	.st1{fill:#1D1D1B;}
	.st2{fill:#F7BEC7;}
	.st3{fill:#FEFCF0;}
	.st4{fill:#EAE6C1;}
	.st5{fill:#FFFFFF;}
	.st6{fill:#EB5E69;}
	.st7{fill:#F29AA7;}
</style>
<g>
	<g>
		<g>
			<path class="st0" d="M81.9,492.4c0.2,0.1,0.3,0,0.5,0.1c0,0.1,0,0.1,0,0.1c14.3-4.4,28.6-8.2,43.1-11.4
				c-6.6-11.3-11.7-23.3-15.1-35.9c-15.3,1.1-30.6,2.9-45.8,5.3c4.2,0.4,8.1,2.6,11.1,5.6C84.9,465.6,87.1,480.7,81.9,492.4z"/>
			<path class="st0" d="M153.8,515.5c-3.9-3.4-7.6-7.1-11.2-11c-5.8-6.4-10.9-13.3-15.4-20.4c-14,3.1-27.9,6.7-41.6,10.9
				c6.3,4.3,13.9,7.4,20.7,9.9C121.6,510.7,137.6,514.1,153.8,515.5z"/>
			<path class="st0" d="M626.6,484.2c-7.5,11.9-16.9,22.3-27.6,31.2c16.1-1.4,32-4.8,47.1-10.6c6.8-2.6,14.5-5.7,20.7-10
				C653.6,490.8,640.2,487.2,626.6,484.2z"/>
			<path class="st0" d="M637,464.1c-2.5,6.1-5.4,11.8-8.7,17.3c14.1,3.1,28,6.9,41.8,11.1c0.1-0.1,0.3-0.1,0.4-0.1
				c-5.1-11.8-3.1-26.9,6.2-36.3c3.1-3.1,7.1-5.2,11.3-5.6c-14.9-2.4-29.9-4.1-44.9-5.2C641.5,451.7,639.5,457.9,637,464.1z"/>
			<path class="st1" d="M743.6,409.2c-31.4-8.4-64.3-9.3-96.8-7.1c-1.1-23.3-6.7-46.6-14.1-69.3c-9.1-27.8-19.8-55.1-25.7-83.8
				c5.8-1,12.9-6.3,17.4-9.1c7.8-4.9,15.1-10.7,21.6-17.2c12.9-12.8,22.9-28.4,29.2-45.5c12.5-34.2,9.2-73.2-8.9-104.8
				C630,9.1,543.5-9.3,484.6,34.3c-30.3,22.4-48.4,57.3-50.4,94.6c-2.4-4.1-5.1-7.9-9.5-9.8c-7.5-3.3-15.1-0.6-20.9,4.2
				c1.3-7.5-0.9-15.4-8.9-18.6c-8.7-3.4-14.9,2.3-19.3,9c0.4-9.5-0.4-19.4-6.6-27.1c-4.9-5.9-12.7-9.3-20.3-8.8
				c-28.5,1.8-11.3,43.9-29.8,55c0.6-5.8-0.8-12.6-1.7-18c-1.4-9.3-4-18.4-7.6-27.1c-6.3-15.4-15.6-29.4-27.3-41.2
				c-25.1-25.1-60.3-38.4-95.6-36.3C114.1,14.7,59.9,82.8,71.4,154.5c6.7,42,35.3,77.8,74.2,94.6c-9.8,47.5-33.4,91.5-39.3,140
				c-0.5,4.3-0.8,8.7-0.9,13c-32.3-2.1-65-1.3-96.3,7.1c-1.9,0.6-1.1,3.6,0.8,3c31-8.3,63.4-9.1,95.4-7c-0.1,12.6,1.3,25,4.3,37.1
				c-21,1.5-41.9,4.1-62.6,8.1c-2,0.4-1.1,3.4,0.8,3c3.2-0.6,6.4-1.1,9.6-1.6c-5.3,2.4-7.1,7.6-7.6,13.1c-4.9-4.5-12.3-6.2-17.9-1.6
				c-4.8,3.9-5.6,10.4-3.2,15.6c-6.4,0.1-11.9,4.6-12.9,11.4c-1.6,10.6,6.9,18.7,15.6,22.6c5.2,2.3,10.1,3.3,14.8,3.1
				c22.1,32.4,53.8,56.9,90.6,70.3c0.3,0.1,0.6,0,0.8-0.1c-5.3,17-9.8,34.2-10.9,52.1c-2.4,35.8,11,68,41.9,87.3
				c1.6,1.1,3.3,1.9,5,2.9c-6.9,4.7-18.9,16.8-13.8,25c4.9,7.8,17.3,4,24.4-0.7c0.3,9.3,13.8,11.8,19.8,4.1c3.7,4.9,9.8,7.4,16,6.5
				c8.7-1.3,12.5-8.8,13.8-16.7c23.3,2.8,47.3,2.5,70.1,2.5c44.1,0,88.1,0,132.3,0c26.6,0,54.2,0.9,81-2.3
				c1.4,7.8,5.3,15.1,13.8,16.4c6.3,0.9,12.3-1.6,16-6.5c5.9,7.7,19.5,5.3,19.8-4.1c7.1,4.6,19.8,8.6,24.4,0.7
				c4.6-7.9-5.5-18.9-12.6-24.1c11.5-6.1,21.9-14.1,30.2-24.1c12.4-15.4,18.1-34.6,18.6-54.2c0.7-22.5-4.6-43.9-11.2-65
				c36.6-13.4,68-37.9,90-70.1c4.7,0.2,9.6-0.8,14.8-3.1c8.8-3.9,17.3-12.1,15.6-22.6c-1-6.8-6.5-11.3-12.9-11.4
				c2.4-5.3,1.6-11.7-3.2-15.6c-5.6-4.6-13.1-2.9-17.9,1.6c-0.6-5.5-2.3-10.7-7.7-13.2c3.3,0.6,6.6,1.1,9.9,1.7c2,0.4,2.8-2.6,0.9-3
				c-20.6-3.9-41.3-6.5-62.1-8.1c2.7-12.3,3.7-24.6,3.3-37c32.2-2.2,64.7-1.4,95.8,6.9C744.8,412.8,745.6,409.8,743.6,409.2z
				 M110.4,445.3c3.4,12.6,8.4,24.6,15.1,35.9c-14.5,3.3-28.8,7.1-43.1,11.4c0,0,0,0,0-0.1c-0.2-0.1-0.3-0.1-0.5-0.1
				c5.2-11.8,3-26.8-6.2-36.3c-3-3.1-6.9-5.2-11.1-5.6C79.8,448.2,95.1,446.4,110.4,445.3z M127.2,484.1c4.4,7.2,9.6,14.1,15.4,20.4
				c3.6,3.9,7.3,7.6,11.2,11c-16.3-1.4-32.3-4.8-47.5-10.6c-6.8-2.6-14.4-5.6-20.7-9.9C99.4,490.7,113.2,487.1,127.2,484.1z
				 M29.8,508.6c-4.6-2.7-8.7-6.4-10.3-11.6c-2.3-7.7,2.5-16.8,11.7-14.9c1.6,0.3,2.5-1.4,1.5-2.6c-9-11.5,9.4-22.2,17.1-10
				c0.8,1.3,2.9,0.8,2.9-0.8c0.2-7.6,2.4-16.1,12.1-14.9c7.3,0.8,12.3,7.9,14.6,14.4c3.9,10.9,2.9,22.6-5.6,30.9
				c-7.3,6.5-14.3,12.6-24.4,13.8C42.5,513.6,35.7,512.1,29.8,508.6z M49.9,515.7c9.5-1.4,18-7.2,26.1-14.3c1.5-1.4,2.8-3,3.8-4.7
				c0.8-0.2,1.4-0.4,2.2-0.6c6.4,4.9,14.4,8.3,21.8,11.2c16.9,6.7,34.9,10.3,53,11.7c-3.9,22.2-11.7,43.4-18.4,64.9
				c-0.2-0.3-0.3-0.5-0.7-0.6C102.1,570.3,71.5,546.7,49.9,515.7z M228.4,754.1c-5.3,9.1-18.3,7.8-23.1-0.9c-0.5-1-2.2-1.1-2.7,0
				c-0.6,2-1.9,3.4-3.8,4.1c-4.4,3.5-8.1,1-11-7.6c0.5-1.6-1.6-2.6-2.6-1.6c-4.4,4.5-23.8,12.8-22.3-1.5c0.7-6.5,7.9-12.8,13.3-15.9
				c1.1,0.3,2.2,0.6,3.3,0.9c15.4,7.6,32.1,11.9,49.1,14.4c0.4,0.1,0.8,0.3,1.1,0.4c0.3,0.2,1.7,0.3,1.9,0.6
				C231.9,747.4,229.1,753,228.4,754.1z M588.1,746.6c1.5,14.3-17.8,6-22.3,1.5c-1.1-1.1-3.1,0-2.6,1.6c-2.9,8.6-6.6,11.1-11.1,7.6
				c-1.9-0.7-3.2-2.1-3.8-4.1c-0.5-1.1-2.2-1-2.7,0c-4.4,8.1-15.7,9.9-21.7,2.6c-0.9-1.1-5.1-8.1-4.7-8.8c0.1-0.3,1.4-0.4,1.7-0.6
				c0.1,0,0.1,0,0.2-0.1c14.4-1.9,28.5-5,42.1-10.1c4.1-1.6,8.2-3.3,12.2-5.3C580.7,734.4,587.4,740.3,588.1,746.6z M615.3,583.1
				c-6.7-21.3-14.4-42.4-18.2-64.3c17.7-1.4,35.1-5,51.7-11.5c7.4-2.9,15.4-6.3,21.9-11.3c0.7,0.2,1.4,0.4,2,0.6
				c1.1,1.7,2.4,3.3,3.9,4.8c8.1,7.1,16.6,12.9,26.1,14.3C681.1,546.6,650.6,570.1,615.3,583.1z M599.1,515.4
				c10.7-8.9,20.1-19.3,27.6-31.2c13.6,3,26.9,6.6,40.3,10.6c-6.2,4.3-13.9,7.4-20.7,10C631.1,510.7,615.1,514,599.1,515.4z
				 M699.8,468.7c0.1,1.6,2.1,2.1,2.9,0.8c7.7-12.2,26.1-1.5,17.1,10c-0.9,1.3-0.1,2.9,1.6,2.6c9.2-1.9,14,7.2,11.6,14.9
				c-1.6,5.2-5.7,8.9-10.3,11.6c-5.9,3.4-12.8,5-19.6,4.3c-10.2-1.1-17.1-7.3-24.4-13.8c-8.6-8.3-9.6-20-5.7-30.9
				c2.1-5.9,6.5-12.4,12.9-14.2C696.1,451.2,699.6,460.7,699.8,468.7z M688,450.6c-4.2,0.4-8.2,2.6-11.3,5.6
				c-9.3,9.3-11.3,24.5-6.2,36.3c-0.1,0.1-0.3,0-0.4,0.1c-13.8-4.3-27.8-8-41.8-11.1c3.3-5.5,6.2-11.3,8.7-17.3
				c2.5-6.2,4.4-12.4,6-18.8C658,446.5,673,448.2,688,450.6z M640.5,442.1c-47.4-3.3-95.1-0.6-141.9,8.4c-2,0.4-1.2,3.4,0.8,3
				c46.3-8.9,93.4-11.6,140.3-8.4c-3.2,12.5-8,24.6-14.6,35.6c-43.6-9.5-88.3-13.8-133-12.4c-2,0.1-2,3.2,0,3.1
				c44.1-1.3,88.2,2.9,131.2,12.1c-3.4,5.5-7.3,10.8-11.7,15.8c-15.6,17.7-35.8,30.3-57.6,38.8c-1.8,0.8-1.1,3.7,0.8,3
				c13.9-5.1,27.2-12.4,39.3-21c6.9,39.3,26.4,75.6,29.7,115.7c1.6,18.9-0.4,38.7-9.6,55.6c-9,16.8-24.3,29.1-41.1,37.4
				c-39,18.9-84.4,17.3-126.8,17.3c-41.8,0-83.6,0-125.3,0c-38.1,0-77,1.6-114.3-7.9c-20.3-5.3-40.1-14.6-54.7-29.8
				c-15.5-16.2-22.3-37.6-22.5-59.8c-0.4-44.8,22.4-85,30.2-128.3c1.1,0.9,2.3,1.8,3.4,2.6c10.4,8,22.3,14.3,34.8,18.2
				c1.9,0.6,2.8-2.4,0.8-3c-13.4-4.6-25.8-11.5-36.8-20.1c-0.7-0.6-1.4-1.1-2.1-1.6c-0.1,0-0.1,0-0.1-0.1
				c-11.4-9.3-21.3-20.4-29.3-32.9c42.7-9.1,86.3-13.2,130.1-11.9c2,0.1,2-3.1,0-3.1c-44.4-1.3-88.6,2.9-131.9,12.3
				c-5.1-8.4-9.4-17.3-12.6-26.6c-1-2.9-1.9-5.9-2.7-8.8c46.7-3.1,93.8-0.4,139.9,8.4c1.9,0.4,2.8-2.6,0.8-3
				c-46.7-9-94.3-11.7-141.5-8.5c-3-12.2-4.2-24.4-3.9-36.6c10.7,0.8,21.3,1.9,31.9,3.1c43.3,5.2,86.1,15.2,126.4,31.9
				c1.9,0.8,2.7-2.3,0.9-3c-40.7-16.8-83.7-26.8-127.3-32c-10.5-1.3-21.1-2.3-31.8-3.1c1.2-26.7,8.8-53.2,17.5-78.9
				c8.4-24.8,17.5-49.4,22.6-75.3c0.2-1-0.4-2-1.5-2c-0.3,0-0.4,0-0.7,0c-32.6-14.3-58.1-41.9-68.6-76.1
				c-10.3-33.5-5.3-70.7,13.4-100.4C129,10.6,211.5-4.6,267.4,37.6c14.9,11.3,27.2,26.1,35.6,42.8c4.3,8.6,7.5,17.6,9.6,26.9
				c1.8,8.1,4.9,19.8,2.8,27.9c-0.3,1,0.8,2.4,1.9,1.9c16.4-6.4,13.1-27.5,17-41.4c2.1-7.4,5.3-14.3,14.3-14.8
				c5.9-0.4,12.1,1.8,16.4,6c8.8,8.6,7.9,22.1,7.1,33.3c-0.1,1.5,2.3,2.1,2.9,0.8c3-6.1,7.1-14.4,15.1-14.2
				c11,0.3,12.6,13.2,9.2,20.9c-0.7,1.5,1.2,3.4,2.4,1.9c6.5-7.8,18.9-13.4,26.7-3.8c2.3,2.8,4,6.4,5.8,9.5c0.8,1.4,2.9,0.8,2.9-0.8
				c0.6-70.4,61.7-127,132.2-120.9c71.3,6.3,122.6,75.7,108,145.6c-4.1,19.9-13.3,38.7-26.6,54.1c-6.5,7.6-13.9,14.5-22.2,20.3
				c-3.6,2.6-7.3,4.9-11.1,7c-3.3,1.8-8.4,5.6-12.1,5.6c-1.1,0-1.8,1-1.5,2c9.4,47.5,33.2,91.4,39.3,139.6c0.6,4.8,1,9.7,1.2,14.5
				c-10.8,0.8-21.5,1.9-32.1,3.2c-43.6,5.2-86.6,15.2-127.3,32c-1.8,0.8-1,3.8,0.8,3c40.4-16.7,83.1-26.7,126.4-31.9
				c10.6-1.3,21.4-2.4,32.2-3.2C644.5,417.8,643.3,430.1,640.5,442.1z"/>
			<path class="st2" d="M673.1,468.2c-3.9,10.9-2.9,22.6,5.7,30.9c7.3,6.5,14.2,12.6,24.4,13.8c6.8,0.8,13.6-0.8,19.6-4.3
				c4.6-2.7,8.7-6.4,10.3-11.6c2.4-7.7-2.4-16.8-11.6-14.9c-1.6,0.3-2.5-1.4-1.6-2.6c9-11.5-9.4-22.2-17.1-10
				c-0.9,1.3-2.9,0.8-2.9-0.8c-0.2-8.1-3.6-17.6-13.8-14.8C679.6,455.8,675.2,462.2,673.1,468.2z"/>
			<path class="st3" d="M672.6,496.6c-0.6-0.3-1.3-0.4-2-0.6c-6.4,4.9-14.5,8.3-21.9,11.3c-16.6,6.5-34,10.1-51.7,11.5
				c3.8,21.9,11.5,43,18.2,64.3c35.4-12.9,65.8-36.5,87.3-67.4c-9.4-1.4-17.9-7.2-26.1-14.3C675.1,499.9,673.8,498.3,672.6,496.6z"
				/>
			<path class="st3" d="M485.7,440.5c-1.8,0.8-2.6-2.3-0.8-3c40.6-16.8,83.6-26.8,127.3-32c10.6-1.3,21.3-2.4,32.1-3.2
				c-0.2-4.8-0.6-9.7-1.2-14.5c-6.1-48.3-29.9-92.1-39.3-139.6c-0.3-1,0.4-2,1.5-2c3.7,0,8.9-3.8,12.1-5.6c3.8-2.1,7.5-4.4,11.1-7
				c8.3-5.8,15.7-12.6,22.2-20.3c13.3-15.4,22.5-34.2,26.6-54.1c14.6-69.9-36.8-139.4-108-145.6c-70.5-6.1-131.6,50.5-132.2,120.9
				c0,1.6-2.1,2.2-2.9,0.8c-1.8-3.1-3.4-6.8-5.8-9.5c-7.8-9.6-20.2-3.9-26.7,3.8c-1.3,1.4-3.1-0.4-2.4-1.9
				c3.4-7.8,1.8-20.6-9.2-20.9c-8-0.3-12.1,8.1-15.1,14.2c-0.7,1.4-3,0.8-2.9-0.8c0.8-11.2,1.7-24.7-7.1-33.3
				c-4.3-4.2-10.4-6.4-16.4-6c-9,0.6-12.3,7.4-14.3,14.8c-3.9,13.9-0.6,35-17,41.4c-1.1,0.5-2.2-0.9-1.9-1.9
				c2.1-8.2-1-19.9-2.8-27.9c-2.1-9.3-5.4-18.3-9.6-26.9c-8.4-16.8-20.6-31.5-35.6-42.8C211.5-4.6,129,10.6,91.6,69.7
				c-18.7,29.7-23.7,66.9-13.4,100.4c10.5,34.2,35.9,61.8,68.6,76.1c0.3,0,0.4,0,0.7,0c1.1,0,1.7,1,1.5,2
				c-5.1,25.8-14.2,50.4-22.6,75.3c-8.8,25.8-16.3,52.3-17.5,78.9c10.6,0.8,21.3,1.9,31.8,3.1c43.6,5.2,86.6,15.2,127.3,32
				c1.8,0.8,1,3.8-0.9,3c-40.3-16.7-83.1-26.7-126.4-31.9c-10.6-1.3-21.2-2.4-31.9-3.1c-0.3,12.2,0.9,24.4,3.9,36.6
				c47.3-3.2,94.8-0.5,141.5,8.5c2,0.4,1.1,3.4-0.8,3c-46.2-8.9-93.3-11.6-139.9-8.4c0.8,2.9,1.7,5.9,2.7,8.8
				c3.3,9.3,7.5,18.2,12.6,26.6c43.3-9.4,87.5-13.6,131.9-12.3c2,0.1,2,3.2,0,3.1c-43.8-1.3-87.4,2.8-130.1,11.9
				c8,12.4,17.8,23.6,29.3,32.9c0,0.1,0,0.1,0.1,0.1c0.6,0.6,1.4,1.1,2.1,1.6c11,8.6,23.4,15.6,36.8,20.1c1.9,0.6,1.1,3.6-0.8,3
				c-12.4-3.9-24.3-10.2-34.8-18.2c-1.1-0.8-2.3-1.7-3.4-2.6c-7.8,43.3-30.6,83.5-30.2,128.3c0.3,22.1,7,43.6,22.5,59.8
				c14.6,15.3,34.4,24.6,54.7,29.8c37.3,9.6,76.2,7.9,114.3,7.9c41.8,0,83.6,0,125.3,0c42.4,0,87.8,1.6,126.8-17.3
				c16.9-8.3,32.1-20.6,41.1-37.4c9.1-16.9,11.2-36.7,9.6-55.6c-3.3-40.1-22.8-76.4-29.7-115.7c-12.1,8.6-25.3,15.9-39.3,21
				c-1.9,0.7-2.6-2.3-0.8-3c21.9-8.5,42-21.1,57.6-38.8c4.4-4.9,8.3-10.3,11.7-15.8c-43-9.3-87.1-13.4-131.2-12.1
				c-2,0.1-2-3.1,0-3.1c44.8-1.3,89.4,2.9,133,12.4c6.6-11.1,11.4-23.1,14.6-35.6c-46.9-3.1-94.1-0.4-140.3,8.4
				c-2,0.4-2.8-2.6-0.8-3c46.8-9,94.5-11.7,141.9-8.4c2.8-12,4-24.3,3.8-36.7c-10.8,0.8-21.6,1.9-32.2,3.2
				C568.8,413.8,526.1,423.8,485.7,440.5z M514.7,92.8c38-28.6,94.2-17.7,118.9,22.9c23.8,39.1,10.1,104.7-38.3,117.7
				c-0.1,0.1-0.1-0.1-0.3,0c-0.3,0-0.5-0.1-0.8-0.1c-0.1-0.1-0.2-0.1-0.3-0.1c-0.2-0.1-0.3-0.3-0.5-0.4
				c-24.6-36.4-66.4-65.8-110.4-73.1c-0.6-0.1-1.1-0.9-1.1-1.5C482.4,132.5,494.1,108.3,514.7,92.8z M159.1,232.7
				c-0.1,0.2-0.3,0.4-0.5,0.4c-0.1,0.1-0.1,0.1-0.2,0.1c-0.3,0.1-0.5,0.1-0.8,0.1c-0.1-0.1-0.2,0.1-0.3,0
				c-26.7-7.1-43.6-32.7-48.5-58.8c-8.7-46.7,23.6-92.8,71.5-97.8c48.1-5,89.6,33.4,90.3,81.3c0,0.6-0.5,1.4-1.2,1.5
				C225.6,166.9,183.7,196.3,159.1,232.7z M300.9,343.4c0.7,0.2,1.1,0.9,1,1.6c-5.8,29.2-31.5,48.6-58.3,46.8
				c-29.6-2.1-52-30.9-49.7-63.7c2.3-32.9,28.5-58.3,58.1-56.2c28.1,2,50.6,23.3,50.6,54.5c0,0.8-0.6,1.4-1.4,1.4
				c0,0-23.8,7.6-22.4,8.1L300.9,343.4z M449.1,440.6c-3.4,8.6-13.2,13.8-21.6,16.1c-6.3,1.8-13.3,2.3-20.2,1.5
				c-4.8,7.6-9.6,15.3-14.4,22.9c-3.8,5.9-8.1,17-16.5,17c-8.4,0-12.8-11.1-16.5-17c-4.8-7.6-9.7-15.3-14.5-22.9
				c-6.9,0.8-13.9,0.3-20.2-1.5c-8.4-2.3-18.2-7.4-21.5-16.1c-3.1-7.9,0.4-16.2,7.1-20.8c1.6-1.2,3.2,1.5,1.6,2.7
				c-9.3,6.5-7.8,18.1,0.5,24.6c6.4,5.1,14.4,7.5,22.4,8.2c3.7,0.3,7.5,0.1,11.3-0.4c1.4-0.3,2.8-0.5,4.1-0.9c0.1,0,0.1,0,0.1,0
				c4.3-1.1,8.4-2.8,12.1-5.1c0.4-0.3,0.9-0.5,1.3-0.8c0.6-0.4,1.2-0.9,1.8-1.4c0.9-0.8,1.8-1.6,2.6-2.4c0.4-0.4,0.8-0.9,1.2-1.4
				c0.9-1.1,1.7-2.2,2.4-3.4c0.3-0.4,0.6-0.9,0.8-1.3c0.8-1.6,1.4-3.2,1.9-4.9c-0.9-0.3-1.9-0.9-2.9-1.8c-2.7-2.5-4.9-5.9-7.3-8.8
				c-1.7-2-4.5-4.5-5.4-7.1c-4.6-13.2,24.8-8.5,30.1-7.6c9.5,3.2,2.6,11-1.3,15.5c-2.6,3-5.9,8.3-9.8,9.7c0.5,1.8,1.1,3.4,1.9,5
				c0.3,0.4,0.6,0.9,0.8,1.4c0.7,1.1,1.5,2.3,2.3,3.3c0.4,0.4,0.8,0.9,1.3,1.4c0.8,0.9,1.7,1.6,2.6,2.4c0.6,0.4,1.1,1,1.8,1.4
				c0.5,0.3,1,0.6,1.4,0.9c3.5,2.1,7.4,3.8,11.5,4.8c0.4,0.1,0.9,0.2,1.3,0.3c1,0.3,2,0.4,3.1,0.6c3.8,0.6,7.8,0.8,11.5,0.5
				c8.4-0.6,17.7-3.4,23.9-9.4c7.2-6.8,7.4-17.6-1.1-23.4c-1.6-1.2-0.1-3.9,1.6-2.7C448.6,424.4,452.1,432.7,449.1,440.6z
				 M450.3,328c2.3-32.9,28.6-58.3,58.1-56.2c28.1,2,50.6,23.3,50.6,54.5c0,0.8-0.6,1.4-1.4,1.4c0,0-23.8,7.6-22.4,8.1l22.1,7.6
				c0.7,0.2,1.1,0.9,1,1.6c-5.8,29.2-31.5,48.6-58.3,46.8C470.4,389.6,448.1,360.9,450.3,328z"/>
			<path class="st4" d="M146.8,246.2h0.7c1.1,0,1.7,1,1.5,2c-3.6,18.3-9.3,36.1-15.3,53.7c4.1,2.4,8,5.3,11.6,8.8
				c12.7,12.5,20.2,29.2,29.8,43.9c23,35.4,59.9,58.4,102.8,57.9c41.8-0.5,80.6-23.7,99.1-61.4c21.7-44.1,0.4-82.2-25.2-118.7
				c-11.1-15.8-22.6-31.4-31.1-48.8c-8.2-16.9-6.3-30.4-4.5-46.7c-0.6-0.4-1-1.1-0.8-1.7c2.1-8.2-1-19.9-2.8-27.9
				c-2.1-9.3-5.4-18.3-9.6-26.9c-8.4-16.8-20.6-31.5-35.6-42.8C211.5-4.6,129,10.6,91.6,69.7c-18.7,29.7-23.7,66.9-13.4,100.4
				C88.7,204.3,114.2,231.9,146.8,246.2z M302.6,326.4c0,0.8-0.6,1.4-1.4,1.4c0,0-23.8,7.6-22.4,8.1l22.1,7.6c0.7,0.2,1.1,0.9,1,1.6
				c-5.8,29.2-31.5,48.6-58.3,46.8c-29.6-2.1-52-30.9-49.7-63.7c2.3-32.9,28.5-58.3,58.1-56.2C280.1,273.9,302.6,295.2,302.6,326.4z
				 M180.4,76.8c48.1-5,89.6,33.4,90.3,81.3c0,0.6-0.5,1.4-1.2,1.5c-43.9,7.3-85.8,36.7-110.4,73.1c-0.1,0.2-0.3,0.4-0.5,0.4
				c-0.1,0.1-0.1,0.1-0.2,0.1c-0.3,0.1-0.5,0.1-0.8,0.1c-0.1-0.1-0.2,0.1-0.3,0c-26.7-7.1-43.6-32.7-48.5-58.8
				C100.2,127.9,132.5,81.8,180.4,76.8z"/>
			<path class="st2" d="M487,157.2c2.8,0.9,5.8,1.4,8.6,2.2c9.9,2.8,19.6,6.5,28.9,10.9c28.6,13.4,53.2,33.8,71,59.8
				c42.4-12.2,56.8-68.8,39.3-105.6C619.5,92.2,583.3,74,548.3,81c-16.8,3.4-32.2,12.3-43.5,25.2c-6.1,6.9-11,14.9-14.3,23.5
				c-1.4,3.8-2.6,7.8-3.5,11.9c-0.9,3.9-0.6,8.3-1.6,12.2C484.3,157.7,483.7,156.2,487,157.2z"/>
			<path class="st1" d="M483.2,159.6c44,7.3,85.8,36.7,110.4,73.1c0.2,0.2,0.3,0.4,0.5,0.4c0.1,0.1,0.2,0.1,0.3,0.1
				c0.3,0.1,0.5,0.1,0.8,0.1c0.1-0.1,0.2,0.1,0.3,0c48.4-13,62.1-78.6,38.3-117.7c-24.7-40.6-80.9-51.6-118.9-22.9
				c-20.6,15.5-32.3,39.7-32.6,65.3C482.1,158.7,482.6,159.5,483.2,159.6z M485.3,153.8c1-3.9,0.8-8.3,1.6-12.2
				c0.9-4.1,2.1-8.1,3.5-11.9c3.3-8.6,8.3-16.6,14.3-23.5c11.3-12.9,26.7-21.8,43.5-25.2c35-7,71.2,11.2,86.5,43.4
				c17.5,36.8,3.1,93.4-39.3,105.6c-17.8-26-42.4-46.4-71-59.8c-9.3-4.4-19-8.1-28.9-10.9c-2.9-0.8-5.8-1.3-8.6-2.2
				C483.7,156.2,484.3,157.7,485.3,153.8z"/>
			<path class="st2" d="M563.3,736.3c-13.6,5.1-27.8,8.3-42.1,10.1c-0.1,0.1-0.1,0.1-0.2,0.1c-0.3,0.2-1.6,0.3-1.7,0.6
				c-0.4,0.7,3.8,7.7,4.7,8.8c6,7.3,17.3,5.4,21.7-2.6c0.5-1,2.2-1.1,2.7,0c0.6,2,1.9,3.4,3.8,4.1c4.4,3.5,8.1,1,11.1-7.6
				c-0.5-1.6,1.5-2.6,2.6-1.6c4.4,4.5,23.8,12.8,22.3-1.5c-0.7-6.3-7.4-12.2-12.6-15.6C571.5,733,567.4,734.8,563.3,736.3z"/>
			<path class="st1" d="M558.3,345c0.1-0.7-0.3-1.4-1-1.6l-22.1-7.6c-1.4-0.4,22.4-8.1,22.4-8.1c0.8,0,1.4-0.6,1.4-1.4
				c0.1-31.2-22.5-52.5-50.6-54.5c-29.5-2.1-55.8,23.3-58.1,56.2c-2.3,32.8,20.1,61.6,49.7,63.7C526.8,393.6,552.5,374.2,558.3,345z
				 M484,324.5c-25.5-10.8-8.8-50.4,16.7-39.6C526.3,295.7,509.5,335.2,484,324.5z M506.1,330.3c10.3,4.3,3.6,20.1-6.7,15.9
				C489.2,341.9,495.9,326,506.1,330.3z"/>
			<path class="st5" d="M506.1,330.3c-10.2-4.3-16.9,11.6-6.7,15.9C509.6,350.4,516.3,334.6,506.1,330.3z"/>
			<path class="st5" d="M500.7,284.9c-25.5-10.8-42.2,28.9-16.7,39.6C509.5,335.2,526.3,295.7,500.7,284.9z"/>
			<path class="st1" d="M442,419.7c-1.7-1.2-3.3,1.5-1.6,2.7c8.5,5.9,8.3,16.7,1.1,23.4c-6.3,5.9-15.5,8.8-23.9,9.4
				c-3.8,0.3-7.7,0.1-11.5-0.5c-1.1-0.2-2.1-0.4-3.1-0.6c-0.4-0.1-0.9-0.2-1.3-0.3c-4.1-1.1-8-2.7-11.5-4.8
				c-0.4-0.3-0.9-0.6-1.4-0.9c-0.6-0.4-1.2-1-1.8-1.4c-0.9-0.8-1.8-1.5-2.6-2.4c-0.4-0.4-0.9-0.9-1.3-1.4c-0.8-1.1-1.6-2.2-2.3-3.3
				c-0.3-0.5-0.6-0.9-0.8-1.4c-0.8-1.6-1.4-3.3-1.9-5c3.9-1.4,7.3-6.7,9.8-9.7c3.8-4.5,10.8-12.3,1.3-15.5
				c-5.3-0.9-34.8-5.6-30.1,7.6c0.9,2.6,3.8,5.1,5.4,7.1c2.4,2.9,4.6,6.3,7.3,8.8c0.9,0.9,1.9,1.5,2.9,1.8c-0.5,1.7-1.1,3.3-1.9,4.9
				c-0.2,0.4-0.5,0.9-0.8,1.3c-0.7,1.2-1.5,2.3-2.4,3.4c-0.4,0.4-0.8,0.9-1.2,1.4c-0.8,0.8-1.7,1.6-2.6,2.4c-0.6,0.5-1.1,1-1.8,1.4
				c-0.4,0.3-0.8,0.5-1.3,0.8c-3.6,2.3-7.8,4-12.1,5.1c-0.1,0-0.1,0-0.1,0c-1.4,0.4-2.8,0.6-4.1,0.9c-3.8,0.6-7.6,0.7-11.3,0.4
				c-8-0.7-16-3.1-22.4-8.2c-8.3-6.5-9.8-18.1-0.5-24.6c1.6-1.2,0.1-3.9-1.6-2.7c-6.7,4.6-10.1,12.9-7.1,20.8
				c3.3,8.6,13.1,13.8,21.5,16.1c6.3,1.8,13.3,2.3,20.2,1.5c4.8,7.6,9.7,15.3,14.5,22.9c3.8,5.9,8.1,17,16.5,17
				c8.4,0,12.8-11.1,16.5-17c4.8-7.6,9.6-15.3,14.4-22.9c6.9,0.8,13.9,0.3,20.2-1.5c8.4-2.3,18.2-7.4,21.6-16.1
				C452.1,432.7,448.6,424.4,442,419.7z M373.1,428.3c-3.2-2.9-7-7.5-9.3-11.2c-0.3-0.4-1-0.9-1.2-1.4c-2-5.6,5.6-5.6,8.3-5.7
				c5.8-0.3,11.6,0.1,17.4,1c6.6,2.3-4.2,12.1-5.7,13.8C380,428,377.4,432.2,373.1,428.3z M393.4,474.2c-3.2,5-9.6,20.6-17.1,20.6
				c-7.3,0-13.6-15.1-16.7-20c-3.6-5.8-7.3-11.5-10.9-17.3c9.8-1.8,18.8-6.4,24.4-14.1c0.2-0.3,0.4-0.6,0.6-0.9
				c0.7-1,1.3-2.1,1.9-3.2c0.3-0.4,0.4-0.8,0.6-1.3c0.1-0.1,0.1-0.3,0.2-0.4c0.1,0.1,0.1,0.3,0.2,0.4c0.2,0.4,0.4,0.8,0.6,1.3
				c0.6,1.1,1.2,2.2,1.9,3.2c0.2,0.3,0.4,0.6,0.6,0.9c5.6,7.7,14.6,12.3,24.3,14.1C400.4,463.2,396.9,468.7,393.4,474.2z"/>
			<path class="st6" d="M379.6,443.6c-0.3-0.3-0.4-0.6-0.6-0.9c-0.7-1-1.3-2.1-1.9-3.2c-0.2-0.4-0.4-0.8-0.6-1.3
				c-0.1-0.1-0.1-0.3-0.2-0.4c-0.1,0.1-0.1,0.3-0.2,0.4c-0.2,0.4-0.4,0.8-0.6,1.3c-0.6,1.1-1.2,2.2-1.9,3.2
				c-0.2,0.3-0.4,0.6-0.6,0.9c-5.6,7.7-14.6,12.3-24.4,14.1c3.7,5.8,7.3,11.5,10.9,17.3c3.1,4.9,9.4,20,16.7,20
				c7.4,0,13.9-15.6,17.1-20.6c3.5-5.6,7-11.1,10.5-16.6C394.2,455.9,385.2,451.2,379.6,443.6z"/>
			<path class="st2" d="M382.6,424.9c1.5-1.7,12.3-11.6,5.7-13.8c-5.8-0.9-11.6-1.3-17.4-1c-2.7,0.1-10.3,0.1-8.3,5.7
				c0.2,0.4,0.9,1,1.2,1.4c2.3,3.7,6.1,8.3,9.3,11.2C377.4,432.2,380,428,382.6,424.9z"/>
			<path class="st1" d="M301.2,327.7c0.8,0,1.4-0.6,1.4-1.4c0.1-31.2-22.5-52.5-50.6-54.5c-29.6-2.1-55.8,23.3-58.1,56.2
				c-2.3,32.8,20.1,61.6,49.7,63.7c26.8,1.9,52.5-17.6,58.3-46.8c0.1-0.7-0.3-1.4-1-1.6l-22.1-7.6
				C277.4,335.4,301.2,327.7,301.2,327.7z M243,346.2c-10.2-4.3-3.5-20.2,6.7-15.9S253.2,350.4,243,346.2z M227.6,324.5
				c-25.5-10.8-8.8-50.4,16.7-39.6S253.1,335.2,227.6,324.5z"/>
			<path class="st1" d="M270.7,158.1c-0.7-47.8-42.3-86.3-90.3-81.3c-47.9,5-80.2,51.1-71.5,97.8c4.9,26.1,21.8,51.7,48.5,58.8
				c0.1,0.1,0.2-0.1,0.3,0c0.3,0,0.5-0.1,0.8-0.1c0.1-0.1,0.1-0.1,0.2-0.1c0.2-0.1,0.4-0.3,0.5-0.4c24.6-36.4,66.4-65.8,110.4-73.1
				C270.2,159.5,270.7,158.7,270.7,158.1z M268.1,156.7c-0.9,0.9-4.9,1.1-6.2,1.4c-8.9,2.2-17.6,5.2-25.9,8.7
				c-31.8,13.3-59.3,34.9-78.7,63.3c-37.3-10.8-53.6-57.6-44.1-92.6c9.4-34.6,42.2-58.9,78-57.9c35.4,0.9,66.6,26.5,74.4,61
				C266.2,143.6,268.8,156,268.1,156.7z"/>
			<path class="st2" d="M191.1,79.6c-35.8-1-68.6,23.3-78,57.9c-9.4,35,6.8,81.8,44.1,92.6c19.4-28.4,46.9-50,78.7-63.3
				c8.4-3.5,17.1-6.5,25.9-8.7c1.3-0.3,5.3-0.5,6.2-1.4c0.8-0.8-1.8-13.1-2.5-16.1C257.7,106.1,226.6,80.5,191.1,79.6z"/>
			<path class="st5" d="M249.7,330.3c-10.2-4.3-16.9,11.6-6.7,15.9C253.2,350.4,259.9,334.6,249.7,330.3z"/>
			<path class="st5" d="M244.3,284.9c-25.5-10.8-42.2,28.9-16.7,39.6C253.1,335.2,269.8,295.7,244.3,284.9z"/>
			<path class="st2" d="M228.6,746c-17.1-2.5-33.7-6.8-49.1-14.4c-1.1-0.3-2.2-0.6-3.3-0.9c-5.3,3.2-12.6,9.4-13.3,15.9
				c-1.5,14.3,17.8,6,22.3,1.5c1.1-1.1,3.1,0,2.6,1.6c2.9,8.6,6.6,11.1,11,7.6c1.9-0.7,3.2-2.1,3.8-4.1c0.5-1.1,2.2-1,2.7,0
				c4.8,8.8,17.8,10,23.1,0.9c0.7-1.1,3.5-6.7,3.2-7.1c-0.2-0.3-1.6-0.4-1.9-0.6C229.3,746.3,228.9,746.1,228.6,746z"/>
			<path class="st3" d="M138.3,583.9c6.8-21.5,14.6-42.8,18.4-64.9c-18.1-1.4-36.1-5-53-11.7c-7.4-2.9-15.4-6.3-21.8-11.2
				c-0.8,0.2-1.4,0.4-2.2,0.6c-1.1,1.7-2.3,3.3-3.8,4.7c-8.1,7.1-16.6,12.9-26.1,14.3c21.6,31,52.3,54.6,87.8,67.6
				C138,583.4,138.1,583.6,138.3,583.9z"/>
			<path class="st2" d="M79.4,468.2c-2.3-6.5-7.3-13.6-14.6-14.4c-9.7-1.1-11.9,7.3-12.1,14.9c-0.1,1.6-2.1,2.1-2.9,0.8
				c-7.7-12.2-26.1-1.5-17.1,10c1,1.3,0.1,2.9-1.5,2.6c-9.2-1.9-14,7.2-11.7,14.9c1.6,5.2,5.8,8.9,10.3,11.6
				c5.9,3.4,12.7,5,19.5,4.3c10.2-1.1,17.1-7.3,24.4-13.8C82.3,490.8,83.3,479.1,79.4,468.2z"/>
		</g>
		<path class="st7" d="M127.6,149.7c0.1-29.6,15.1-53.3,39.1-66.8c-25.5,7.7-46.5,28.1-53.7,54.6c-9.4,35,6.8,81.8,44.1,92.6
			c1.6-2.3,3.3-4.5,5-6.8C142.4,203.4,127.5,178.5,127.6,149.7z"/>
	</g>
</g>
</svg>
