<?xml version="1.0" encoding="utf-8"?>
<!-- Generator: Adobe Illustrator 24.1.1, SVG Export Plug-In . SVG Version: 6.00 Build 0)  -->
<svg version="1.1" id="Lager_1" xmlns="http://www.w3.org/2000/svg" xmlns:xlink="http://www.w3.org/1999/xlink" x="0px" y="0px"
	 viewBox="0 0 751.8 768.9" style="enable-background:new 0 0 751.8 768.9;" xml:space="preserve">
<style type="text/css">
	.st0{fill:#1D1D1B;}
	.st1{fill:#575756;}
	.st2{fill:#FEFCF0;}
	.st3{fill:#F7BEC7;}
	.st4{fill:#A9D7CA;}
	.st5{fill:#FFFFFF;}
	.st6{fill:#F29AA7;}
</style>
<g>
	<g>
		<path class="st0" d="M750.6,407.4c-32.1-8.6-65.6-9.5-98.7-7.3c-1.1-23.8-6.8-47.6-14.3-70.7c-9.2-28.4-20.2-56.2-26.2-85.5
			c5.9-1,13.1-6.4,17.8-9.3c8-5,15.4-10.9,22.1-17.5c13.1-13.1,23.3-29,29.8-46.4c12.8-34.9,9.3-74.7-9.2-106.8
			C634.6-1,546.4-19.7,486.3,24.8c-30.9,22.8-49.4,58.4-51.5,96.4c-2.4-4.1-5.1-8-9.6-9.9c-7.7-3.4-15.4-0.7-21.4,4.3
			c1.3-7.7-1-15.8-9.1-19c-8.8-3.6-15.2,2.3-19.6,9.2c0.3-9.8-0.4-19.9-6.8-27.6c-5-6.1-12.9-9.4-20.7-8.9
			c-29,1.8-11.4,44.8-30.4,56.1c0.6-5.9-0.8-12.9-1.7-18.4c-1.5-9.4-4.1-18.8-7.7-27.6c-6.4-15.8-15.9-30.1-27.9-42
			c-25.6-25.6-61.5-39.2-97.6-37C108.2,4.8,53,74.2,64.7,147.4c6.8,42.9,36,79.3,75.7,96.6c-10,48.5-34.1,93.4-40.1,142.9
			c-0.5,4.5-0.8,8.9-1,13.3c-33-2.2-66.3-1.3-98.3,7.3c-2,0.5-1.1,3.6,0.8,3.1c31.6-8.5,64.7-9.4,97.3-7.1
			c-0.1,12.8,1.3,25.5,4.4,37.8c-21.4,1.6-42.7,4.2-63.9,8.2c-2,0.4-1.1,3.4,0.8,3.1c21.2-4,42.5-6.6,63.8-8.2
			c3.5,12.8,8.6,25.1,15.4,36.6c-18,4-35.8,8.7-53.3,14.5c-2,0.6-1.1,3.8,0.8,3.1c17.9-5.8,36-10.7,54.2-14.7
			c4.6,7.3,9.8,14.3,15.8,20.9c4.5,5,9.4,9.6,14.5,13.8c-7.1,41.6-28.1,80.1-30.8,122.6c-2.4,36.5,11.2,69.5,42.8,89.2
			c1.7,1,3.4,2,5.1,2.9c-7,4.8-19.3,17.1-14,25.4c5,8,17.7,4.1,24.8-0.6c0.3,9.5,14.2,11.9,20.2,4.1c3.8,5,9.9,7.6,16.3,6.6
			c8.8-1.4,12.8-9,14.1-17c23.7,2.9,48.2,2.6,71.6,2.6c45,0,89.9,0,134.9,0c27.2,0,55.4,0.9,82.7-2.3c1.4,8,5.4,15.4,14,16.8
			c6.4,1,12.6-1.7,16.4-6.6c6.1,7.8,19.8,5.4,20.2-4.2c7.2,4.8,20.1,8.8,24.9,0.7c4.7-8.1-5.7-19.3-12.8-24.6
			c11.7-6.2,22.4-14.3,30.7-24.7c12.8-15.6,18.4-35.3,19.1-55.2c1.5-47.6-23.6-90.4-31.2-136.5c11.9-9.5,22.3-20.7,30.5-33.7
			c17.9,4,35.6,8.7,53.1,14.4c2,0.7,2.8-2.4,0.8-3.1c-17.2-5.6-34.6-10.3-52.2-14.2c3.3-5.6,6.3-11.5,8.8-17.7
			c2.6-6.4,4.6-12.8,6.1-19.1c21.2,1.5,42.3,4.1,63.2,8.1c2,0.4,2.9-2.7,0.8-3.1c-20.9-4-42.1-6.6-63.3-8.2
			c2.7-12.6,3.8-25.2,3.4-37.8c32.8-2.2,65.9-1.4,97.7,7.1C751.7,410.9,752.6,407.9,750.6,407.4z M224.9,759.2
			c-5.5,9.3-18.7,8-23.5-1c-0.5-1-2.2-1.1-2.7,0c-0.6,2.1-1.9,3.5-3.9,4.2c-4.5,3.6-8.3,1-11.2-7.8c0.5-1.5-1.6-2.6-2.7-1.5
			c-4.6,4.5-24.2,13-22.7-1.6c0.7-6.6,8.1-12.9,13.5-16.3c1.1,0.3,2.3,0.6,3.4,1c15.8,7.7,32.7,12.2,50.1,14.7
			c0.4,0.2,0.8,0.3,1.1,0.5c0.3,0.2,1.7,0.2,1.9,0.6C228.5,752.5,225.5,758.1,224.9,759.2z M591.9,751.5c1.5,14.6-18.2,6.1-22.8,1.6
			c-1.1-1.1-3.1,0-2.6,1.5c-3,8.8-6.8,11.4-11.3,7.8c-2-0.7-3.3-2.1-3.8-4.2c-0.6-1.1-2.2-1-2.8,0c-4.4,8.2-15.9,10.1-22.1,2.7
			c-0.9-1.1-5.2-8.2-4.8-9c0.2-0.3,1.5-0.3,1.8-0.5c0.1,0,0.1-0.1,0.2-0.1c14.7-2,29.1-5.1,42.9-10.3c4.3-1.6,8.4-3.4,12.5-5.4
			C584.4,739.1,591.2,745.1,591.9,751.5z M487.4,439.3c41.2-17.1,84.8-27.3,129-32.6c10.9-1.3,21.9-2.4,32.8-3.2
			c0.2,12.6-1,25.2-3.8,37.4c-48.4-3.3-97.1-0.5-144.8,8.7c-2,0.4-1.1,3.4,0.9,3.1c47.2-9.1,95.3-11.9,143.2-8.6
			c-3.3,12.8-8.2,25-14.9,36.4c-44.5-9.7-90.1-14-135.7-12.7c-2,0.1-2,3.3,0,3.2c45-1.3,90,2.9,133.9,12.4
			c-3.5,5.6-7.5,11-11.9,16.1c-15.9,18-36.5,30.9-58.8,39.5c-1.9,0.7-1.1,3.8,0.8,3.1c14.2-5.2,27.7-12.7,40.1-21.5
			c7.1,40.1,26.9,77.2,30.3,118c1.6,19.4-0.4,39.5-9.8,56.8c-8.8,16.3-23.3,28.4-39.5,36.8c-0.3-0.1-0.5-0.2-0.9-0.1
			c-18.6,5.5-37.1,11-55.5,16.5c-24.9,3.1-50.6,2.6-75.4,2.6c-42.6,0-85.3,0-127.9,0c-32.5,0-65.4,1-97.6-4.3
			c-15.1-4.5-30.3-9-45.5-13.5c-10.9-5.2-21-12.1-29.4-20.8c-15.9-16.5-22.7-38.4-23-61c-0.4-45.6,22.9-86.7,30.7-130.9
			c1.1,0.9,2.4,1.8,3.5,2.7c10.7,8.1,22.8,14.6,35.5,18.6c2,0.6,2.7-2.4,0.8-3.1c-13.7-4.7-26.4-11.8-37.6-20.6
			c-0.7-0.6-1.4-1.1-2.1-1.7c-11.7-9.5-21.7-20.9-29.8-33.6c43.6-9.2,88.1-13.5,132.7-12.1c2.1,0.1,2.1-3.1,0-3.2
			c-45.2-1.3-90.4,2.9-134.5,12.4c-5.2-8.5-9.6-17.7-12.9-27.1c-1.1-3-2-6-2.8-9c47.7-3.3,95.7-0.4,142.8,8.6c2,0.4,2.9-2.7,0.9-3.1
			c-47.6-9.2-96.2-12-144.4-8.7c-3.1-12.4-4.3-24.9-4-37.4c10.9,0.8,21.7,1.9,32.5,3.2c44.2,5.3,87.8,15.5,129,32.6
			c1.9,0.8,2.7-2.3,0.8-3.1c-41.5-17.2-85.3-27.3-129.8-32.7c-10.7-1.3-21.6-2.4-32.4-3.1c1.1-27.2,8.9-54.3,17.9-80.5
			c8.6-25.4,17.9-50.5,23.1-76.8c0.2-1-0.4-2-1.5-2c-0.3,0-0.5,0-0.7,0c-33.3-14.6-59.2-42.7-70-77.7C61.2,129.1,66.3,91.2,85.3,61
			c38.1-60.4,122.3-75.9,179.3-32.8C280,39.7,292.5,54.8,301,71.9c4.4,8.7,7.7,17.9,9.8,27.4c1.9,8.2,5.1,20.2,2.9,28.4
			c-0.3,1.1,0.8,2.4,2,2c16.7-6.6,13.4-28.1,17.3-42.2c2.1-7.6,5.5-14.5,14.6-15.1c6.1-0.4,12.4,1.8,16.8,6.1
			c8.9,8.7,8,22.6,7.2,33.9c-0.1,1.6,2.3,2.2,3,0.8c3-6.2,7.2-14.8,15.4-14.5c11.2,0.4,12.9,13.5,9.3,21.4c-0.6,1.5,1.3,3.4,2.6,1.9
			c6.6-7.8,19.2-13.6,27.2-3.9c2.4,2.9,4.1,6.5,5.8,9.7c0.8,1.4,3,0.8,3-0.8C438.5,55.2,500.8-2.6,572.7,3.7
			c72.7,6.3,125.1,77.2,110.2,148.5c-4.2,20.3-13.6,39.5-27.2,55.3c-6.6,7.8-14.3,14.7-22.6,20.7c-3.6,2.6-7.4,5-11.4,7.1
			c-3.3,1.8-8.5,5.7-12.4,5.7c-1.1,0-1.7,1-1.5,2c9.6,48.5,33.9,93.2,40.2,142.4c0.6,4.9,1,9.9,1.2,14.9c-11,0.8-22,1.9-32.8,3.2
			c-44.5,5.4-88.3,15.5-129.8,32.7C484.8,437,485.5,440,487.4,439.3z"/>
		<path class="st1" d="M616.4,403.5c10.8-1.3,21.8-2.4,32.8-3.2c-0.2-5-0.6-9.9-1.2-14.9c-6.2-49.2-30.5-93.9-40.2-142.4
			c-0.2-1,0.4-2,1.5-2c3.8,0,9.1-3.9,12.4-5.7c4-2.2,7.7-4.6,11.4-7.1c8.4-5.9,16-12.9,22.6-20.7c13.5-15.8,23-34.9,27.2-55.3
			C697.8,80.8,645.4,10,572.7,3.7C500.8-2.6,438.5,55.2,437.8,127c0,1.5-2.2,2.2-3,0.8c-1.7-3.2-3.4-6.8-5.8-9.7
			c-8-9.7-20.6-4-27.2,3.9c-1.3,1.5-3.2-0.4-2.6-1.9c3.6-8,1.9-21-9.3-21.4c-8.2-0.3-12.4,8.4-15.4,14.5c-0.7,1.4-3.1,0.8-3-0.8
			c0.8-11.4,1.7-25.2-7.2-33.9c-4.3-4.3-10.7-6.4-16.8-6.1c-9.1,0.6-12.5,7.5-14.6,15.1c-3.9,14.2-0.6,35.6-17.3,42.2
			c-1.1,0.4-2.2-0.9-2-2c2.2-8.3-1-20.3-2.9-28.4c-2.2-9.5-5.4-18.7-9.8-27.4c-8.5-17.1-21-32.2-36.3-43.7
			C207.7-14.9,123.5,0.6,85.3,61c-19.1,30.2-24.2,68.2-13.6,102.4c10.7,34.9,36.7,63.1,70,77.7c0.2,0,0.4,0,0.7,0c1.1,0,1.7,1,1.5,2
			c-5.2,26.3-14.5,51.4-23.1,76.8c-9,26.3-16.7,53.3-17.9,80.5c10.8,0.8,21.7,1.8,32.4,3.1c44.5,5.4,88.3,15.5,129.8,32.7
			c1.9,0.8,1.1,3.9-0.8,3.1c-41.2-17.1-84.8-27.3-129-32.6c-10.8-1.3-21.6-2.4-32.5-3.2c-0.3,12.4,0.9,24.9,4,37.4
			c48.2-3.3,96.7-0.5,144.4,8.7c2,0.4,1.1,3.4-0.9,3.1c-47.1-9.1-95.1-11.9-142.8-8.6c0.8,3,1.7,6,2.8,9c3.3,9.4,7.7,18.6,12.9,27.1
			c44.1-9.5,89.3-13.8,134.5-12.4c2.1,0.1,2.1,3.3,0,3.2c-44.6-1.3-89.2,2.9-132.7,12.1c8.1,12.7,18.2,24.1,29.8,33.6
			c0.7,0.6,1.4,1.1,2.1,1.7c11.2,8.8,23.9,15.9,37.6,20.6c1.9,0.6,1.1,3.7-0.8,3.1c-12.7-4-24.8-10.5-35.5-18.6
			c-1.1-0.9-2.4-1.8-3.5-2.7c-7.8,44.2-31.2,85.3-30.7,130.9c0.3,22.6,7.1,44.5,23,61c8.4,8.7,18.5,15.6,29.4,20.8
			c15.2,4.5,30.4,9,45.5,13.5c32.1,5.3,65.1,4.3,97.6,4.3c42.6,0,85.3,0,127.9,0c24.7,0,50.4,0.5,75.4-2.6c18.5-5.5,37-11,55.5-16.5
			c0.4-0.1,0.6,0,0.9,0.1c16.3-8.4,30.7-20.5,39.5-36.8c9.3-17.3,11.4-37.4,9.8-56.8c-3.4-40.8-23.2-77.9-30.3-118
			c-12.3,8.8-25.8,16.3-40.1,21.5c-1.9,0.7-2.7-2.4-0.8-3.1c22.3-8.7,42.9-21.6,58.8-39.5c4.5-5.1,8.4-10.5,11.9-16.1
			c-43.9-9.4-88.8-13.7-133.9-12.4c-2,0.1-2-3.1,0-3.2c45.7-1.3,91.2,3,135.7,12.7c6.7-11.4,11.6-23.6,14.9-36.4
			c-47.8-3.3-96-0.5-143.2,8.6c-2,0.4-2.9-2.7-0.9-3.1c47.8-9.2,96.4-12,144.8-8.7c2.8-12.2,4-24.8,3.8-37.4
			c-11,0.8-21.9,1.9-32.8,3.2c-44.1,5.3-87.8,15.5-129,32.6c-1.9,0.8-2.7-2.3-0.8-3.1C528.1,419,571.9,408.8,616.4,403.5z M517,84.5
			c38.8-29.3,96.1-18.1,121.4,23.3c24.3,39.9,10.3,106.9-39,120.2c-0.1,0-0.2-0.1-0.3-0.1c-0.3,0-0.5,0-0.8-0.1
			c-0.1,0-0.2,0-0.3-0.1c-0.2-0.1-0.4-0.3-0.5-0.5c-25.1-37.1-67.7-67.2-112.6-74.6c-0.6-0.1-1.1-1-1.1-1.6
			C484.1,125,496,100.3,517,84.5z M388.9,406.1c9.6,3.3,2.6,11.3-1.3,15.9c-4,4.6-9.8,14.5-16.5,8.2c-2.7-2.6-5-6-7.4-8.9
			c-1.7-2.1-4.7-4.6-5.5-7.3C353.4,400.5,383.4,405.3,388.9,406.1z M102.9,168c-8.9-47.6,24.1-94.6,73-99.7
			c49-5.2,91.5,34.1,92.1,82.8c0.1,0.7-0.4,1.5-1.1,1.6c-44.9,7.4-87.6,37.4-112.6,74.6c-0.1,0.3-0.3,0.4-0.5,0.5
			c-0.1,0.1-0.1,0.1-0.2,0.1c-0.3,0.1-0.5,0.1-0.8,0.1c-0.1,0-0.2,0.1-0.3,0.1C125.2,220.6,107.9,194.6,102.9,168z M261.9,398.3
			c-13,0.3-25.6-3.3-37.4-8.6c-7.2-3.2-14-7.1-20.9-11c-5.5-3.1-10.9-5.7-17.2-2.9c-3.1,1.4-5.5,3.9-8,6.2
			c-6,5.9-13.5,13.3-22.7,9.8c-8.4-3.2-7.1-12.6-4.2-19.5c7.5-18.1,28.1-16.1,43.8-11.5c1,0.3,2,0.7,2.9,1
			c-6.2-10.7-9.4-23.6-8.5-37.2c2.4-33.5,29.1-59.4,59.2-57.3c28.6,2,51.7,23.8,51.6,55.5c-0.1,0.8-0.6,1.4-1.4,1.4
			c0,0-24.4,7.8-22.8,8.3l22.5,7.7c0.7,0.3,1.1,1,1,1.7c-2.2,11.5-7.5,21.4-14.7,29.3c0.7,0.2,1.4,0.3,2.1,0.6
			c6,2.7,10.4,10.2,5.7,16C286.5,395.9,271.6,398.1,261.9,398.3z M346.8,687.1c4.1,4.8,4.5,11.9,0.3,17.3c-6.4,8.2-18,7.9-26.8,4.3
			c-5.4-2.2-9.9-5.5-13.6-9.8c0,0,0,0.1-0.1,0.1c-39.6,5-79.7-2.6-114.7-21.5c-1.8-1-0.2-3.7,1.6-2.7
			c33.9,18.3,72.5,25.6,110.8,21.2c-1.5-2.1-2.8-4.4-3.8-6.9c-2.9-7.3-2.6-14.9-2.6-22.6c0.1-2.7,0.8-5.4,1.6-7.9
			c-6.1-0.8-12-2.3-17.7-4.7c-1.9-0.8-1.1-3.8,0.8-3.1c5.6,2.4,11.5,3.9,17.5,4.7c0.2,0,0.3,0.2,0.4,0.3
			c5.3-11.5,17.5-19.8,30.6-19.8c6.6,0,13.3,2.7,16.3,8.9c3.2,6.6,0.2,12.1-4.1,16.7c6.2,0.6,12,4.3,13.1,10.9
			C357.6,679.3,352.9,685.2,346.8,687.1z M385.4,488.2c-4.1-0.5-7.4-0.8-11.2,0.2c-2.2,0.5-4.1,1.5-6.4,1.8
			c-6.6,1-13.8-0.4-17.2-6.7c-1-1.8,1.8-3.4,2.8-1.6c2.9,5.4,9.4,6.1,14.8,5c3.1-0.6,5.9-3.1,8.8-3.4c2.2-0.2,4.3,0.6,6.4,1.1
			c5.7,1.1,11,1,16.8,0.1c2-0.4,2.9,2.7,0.8,3.1C395.7,488.7,390.6,488.9,385.4,488.2z M558.4,674.7c1.8-1,3.4,1.8,1.6,2.7
			c-35.1,18.9-75.1,26.5-114.7,21.5l-0.1-0.1c-3.7,4.2-8.3,7.5-13.6,9.8c-8.8,3.6-20.5,4-27-4.4c-4.1-5.4-3.6-12.4,0.4-17.2
			c-6.2-1.9-10.8-7.8-9.6-14.7c1.1-6.6,7-10.3,13.1-10.9c-4.3-4.7-7.3-10.1-4.1-16.7c2.9-6.2,9.8-8.9,16.3-8.9
			c13.1,0,25.4,8.3,30.6,19.8c0.2-0.1,0.3-0.3,0.5-0.3c6-0.8,11.9-2.3,17.5-4.7c1.9-0.8,2.7,2.3,0.8,3.1c-5.7,2.4-11.6,3.9-17.7,4.7
			c0.8,2.6,1.5,5.2,1.6,7.9c0,7.8,0.3,15.4-2.7,22.8c-1,2.4-2.3,4.7-3.7,6.7C485.9,700.4,524.4,693,558.4,674.7z M483.3,397.6
			c-7.3-1.1-22.8-4.5-24.6-13.5c-1.3-5.9,3.1-10.5,8.2-12.6c-10.7-12-16.8-28.9-15.6-47.1c2.4-33.5,29.1-59.4,59.2-57.3
			c28.6,2,51.7,23.8,51.6,55.5c0,0.8-0.6,1.4-1.4,1.4c0,0-24.3,7.8-22.8,8.3l22.5,7.7c0.7,0.3,1.1,1,1,1.7
			c-1.5,7.6-4.3,14.5-8.1,20.5c1.6-0.6,3.2-1.1,4.8-1.7c18.4-5.4,42.2-5.3,45.8,18.4c1.2,7.8-3.5,13.6-11.5,13.4
			c-12.3-0.3-17-15-28.3-17.6c-9-2-18.7,6.4-26.5,10.5c-5.4,2.8-11,5.4-16.8,7.5C508.9,397.4,496.1,399.5,483.3,397.6z"/>
		<path class="st2" d="M200.4,421.8c42.1,3.6,86.4,46.2,124.9,6.4c16.5-17,10-42.1,13.9-63.2c4.3-23.3,20.9-40.5,27.9-62.7
			c7.6-24.1,6.2-55.1-12-74.2c-15.8-16.5-40.7-20.9-62.6-19.6c-51.7,3.1-98.9,28.2-149.4,38.1c-5.3,25-14.1,49-22.3,73.2
			c-9,26.3-16.7,53.3-17.9,80.5c10.8,0.8,21.7,1.8,32.4,3.1c44.5,5.4,88.3,15.5,129.8,32.7c1.9,0.8,1.1,3.9-0.8,3.1
			c-41.2-17.1-84.8-27.3-129-32.6c-10.8-1.3-21.6-2.4-32.5-3.2c-0.1,5.7,0.1,11.5,0.6,17.2c4,2.2,8.2,4,12.4,5.4
			C144.3,435.3,171.7,419.3,200.4,421.8z M261.9,398.3c-13,0.3-25.6-3.3-37.4-8.6c-7.2-3.2-14-7.1-20.9-11
			c-5.5-3.1-10.9-5.7-17.2-2.9c-3.1,1.4-5.5,3.9-8,6.2c-6,5.9-13.5,13.3-22.7,9.8c-8.4-3.2-7.1-12.6-4.2-19.5
			c7.5-18.1,28.1-16.1,43.8-11.5c1,0.3,2,0.7,2.9,1c-6.2-10.7-9.4-23.6-8.5-37.2c2.4-33.5,29.1-59.4,59.2-57.3
			c28.6,2,51.7,23.8,51.6,55.5c-0.1,0.8-0.6,1.4-1.4,1.4c0,0-24.4,7.8-22.8,8.3l22.5,7.7c0.7,0.3,1.1,1,1,1.7
			c-2.2,11.5-7.5,21.4-14.7,29.3c0.7,0.2,1.4,0.3,2.1,0.6c6,2.7,10.4,10.2,5.7,16C286.5,395.9,271.6,398.1,261.9,398.3z"/>
		<path class="st3" d="M488.8,150.2c2.9,0.9,5.9,1.4,8.8,2.2c10.1,2.9,20,6.7,29.5,11.2c29.1,13.6,54.2,34.5,72.4,61
			c43.2-12.5,57.9-70.2,40.1-107.8c-15.6-32.8-52.6-51.5-88.3-44.3c-17.2,3.4-32.8,12.6-44.4,25.6c-6.2,7.1-11.2,15.2-14.6,24
			c-1.5,4-2.7,8-3.6,12.1c-0.8,4.1-0.6,8.5-1.6,12.4C486,150.6,485.4,149.1,488.8,150.2z"/>
		<path class="st0" d="M484.9,152.7c44.9,7.4,87.6,37.4,112.6,74.6c0.1,0.3,0.3,0.4,0.5,0.5c0.1,0.1,0.1,0.1,0.3,0.1
			c0.3,0.1,0.5,0.1,0.8,0.1c0.1,0,0.1,0.1,0.3,0.1c49.4-13.3,63.3-80.2,39-120.2C613.1,66.4,555.8,55.2,517,84.5
			c-21,15.8-32.9,40.5-33.2,66.6C483.7,151.7,484.3,152.5,484.9,152.7z M487.1,146.7c1-3.9,0.8-8.4,1.6-12.4
			c0.9-4.1,2.1-8.2,3.6-12.1c3.4-8.7,8.4-16.9,14.6-24c11.5-13.1,27.2-22.2,44.4-25.6c35.7-7.2,72.6,11.4,88.3,44.3
			c17.9,37.6,3.2,95.3-40.1,107.8c-18.2-26.5-43.3-47.4-72.4-61c-9.5-4.5-19.4-8.3-29.5-11.2c-2.9-0.8-5.9-1.3-8.8-2.2
			C485.4,149.1,486,150.6,487.1,146.7z"/>
		<path class="st0" d="M520.9,393c5.8-2.1,11.4-4.7,16.8-7.5c7.8-4.1,17.5-12.6,26.5-10.5c11.2,2.6,15.9,17.3,28.3,17.6
			c8,0.3,12.8-5.5,11.5-13.4c-3.6-23.7-27.4-23.8-45.8-18.4c-1.7,0.5-3.3,1.1-4.8,1.7c3.8-6.1,6.6-12.9,8.1-20.5
			c0.2-0.7-0.3-1.4-1-1.7l-22.5-7.7c-1.5-0.4,22.8-8.3,22.8-8.3c0.8,0,1.4-0.6,1.4-1.4c0.1-31.8-23-53.6-51.6-55.5
			c-30.2-2.1-56.9,23.7-59.2,57.3c-1.3,18.2,4.9,35.1,15.6,47.1c-5.2,2.1-9.5,6.7-8.2,12.6c1.8,8.9,17.3,12.4,24.6,13.5
			C496.1,399.5,508.9,397.4,520.9,393z M502.8,280.5c26,11,9,51.4-17,40.4C459.7,309.9,476.7,269.6,502.8,280.5z M501.4,343
			c-10.4-4.4-3.6-20.5,6.8-16.1C518.6,331.2,511.8,347.4,501.4,343z M480.4,393.8c-5.7-1.3-18.2-4.3-18.7-11.4
			c-0.6-8.4,10.7-9.2,15.9-8.1c2.7,0.5,5.3,1.6,8,2.4c12.1,3.8,24.4,4.5,36.7,1.3c12.8-3.3,24.3-10.3,36.9-14.2
			c9.5-2.7,21.2-5.5,30.7-0.8c5,2.5,8.4,7.1,10.1,12.4c2,5.9,1.5,13.5-6.4,14c-4.7,0.3-8.6-2.7-11.9-5.6
			c-6.5-5.9-12.9-14.2-22.8-12.5c-5.5,0.9-10.5,4.7-15.2,7.4c-6.3,3.6-12.8,7-19.5,9.8C510.2,394,495,397,480.4,393.8z"/>
		<path class="st4" d="M543.4,378.7c4.8-2.7,9.7-6.5,15.2-7.4c9.9-1.7,16.3,6.6,22.8,12.5c3.3,2.9,7.2,5.9,11.9,5.6
			c7.9-0.4,8.4-8.1,6.4-14c-1.7-5.3-5-9.9-10.1-12.4c-9.4-4.7-21.2-2-30.7,0.8c-12.6,4-24.1,10.9-36.9,14.2
			c-12.3,3.3-24.6,2.6-36.7-1.3c-2.7-0.8-5.2-1.9-8-2.4c-5.2-1.1-16.5-0.3-15.9,8.1c0.5,7.1,13.1,10.1,18.7,11.4
			c14.7,3.3,29.8,0.2,43.6-5.4C530.7,385.6,537.1,382.3,543.4,378.7z"/>
		<path class="st5" d="M581.1,367.7c7.9,7.1,11.5,16,18.9,17.4c1.2-2.8,0.8-6.5-0.2-9.6c-1.7-5.3-5-9.9-10.1-12.4
			c-6.6-3.3-14.3-2.9-21.6-1.5C572.8,362.4,577.2,364.2,581.1,367.7z"/>
		<path class="st3" d="M566.6,741.1c-13.8,5.2-28.3,8.4-42.9,10.3c-0.1,0-0.1,0.1-0.2,0.1c-0.3,0.2-1.6,0.2-1.8,0.5
			c-0.4,0.8,3.9,7.8,4.8,9c6.2,7.4,17.7,5.5,22.1-2.7c0.6-1,2.2-1.1,2.8,0c0.6,2.1,1.8,3.5,3.8,4.2c4.5,3.6,8.3,1,11.3-7.8
			c-0.5-1.5,1.5-2.6,2.6-1.5c4.6,4.5,24.3,13,22.8-1.6c-0.7-6.4-7.5-12.4-12.8-15.8C575,737.7,570.9,739.5,566.6,741.1z"/>
		<path class="st0" d="M447.6,696c1.4-2,2.7-4.3,3.7-6.7c3-7.4,2.7-15.1,2.7-22.8c-0.1-2.7-0.8-5.4-1.6-7.9c6.1-0.8,12-2.3,17.7-4.7
			c1.9-0.8,1.1-3.8-0.8-3.1c-5.6,2.4-11.5,3.9-17.5,4.7c-0.3,0-0.3,0.2-0.5,0.3c-5.2-11.5-17.5-19.8-30.6-19.8
			c-6.5,0-13.4,2.7-16.3,8.9c-3.1,6.6-0.2,12.1,4.1,16.7c-6.2,0.6-12,4.3-13.1,10.9c-1.3,6.9,3.4,12.8,9.6,14.7
			c-4.1,4.8-4.5,11.8-0.4,17.2c6.4,8.4,18.2,8,27,4.4c5.4-2.2,9.9-5.5,13.6-9.8l0.1,0.1c39.6,5,79.7-2.6,114.7-21.5
			c1.8-1,0.2-3.7-1.6-2.7C524.4,693,485.9,700.4,447.6,696z M443.2,696.7c-4.4,5.1-10.7,8.7-17.2,10.5c-5.5,1.4-11.4,1.1-16.1-2.3
			c-5.6-4.1-7.3-12.6-1-17.3c1.3-0.9,0.9-2.8-0.8-2.9c-15.1-1.1-10.7-22.3,3.7-19.9c1.5,0.3,2.9-1.5,1.6-2.7
			c-6.2-5.8-10.2-14-2-20.5c5.2-4.2,14.1-2.4,19.6-0.1c10.9,4.4,19.2,12.9,19.7,25.1C450.8,677.3,450.7,687.9,443.2,696.7z"/>
		<path class="st5" d="M501.4,343c10.4,4.4,17.2-11.8,6.8-16.1C497.8,322.4,491,338.6,501.4,343z"/>
		<path class="st5" d="M485.7,320.9c26,11,43-29.5,17-40.4C476.7,269.6,459.7,309.9,485.7,320.9z"/>
		<path class="st3" d="M431.1,641.4c-5.5-2.3-14.4-4.1-19.6,0.1c-8.2,6.5-4.2,14.7,2,20.5c1.3,1.2-0.1,2.9-1.6,2.7
			c-14.3-2.4-18.7,18.8-3.7,19.9c1.7,0.1,2.1,2,0.8,2.9c-6.4,4.7-4.7,13.2,1,17.3c4.7,3.4,10.6,3.7,16.1,2.3
			c6.4-1.7,12.8-5.4,17.2-10.5c7.5-8.9,7.7-19.4,7.7-30.3C450.3,654.3,442,645.8,431.1,641.4z"/>
		<path class="st0" d="M400.1,484.7c-5.7,1-11,1.1-16.8-0.1c-2-0.4-4.2-1.3-6.4-1.1c-2.9,0.3-5.7,2.8-8.8,3.4
			c-5.4,1-11.9,0.3-14.8-5c-1-1.8-3.8-0.2-2.8,1.6c3.4,6.2,10.7,7.7,17.2,6.7c2.3-0.3,4.3-1.3,6.4-1.8c3.8-1,7.1-0.7,11.2-0.2
			c5.2,0.6,10.3,0.4,15.5-0.4C402.9,487.5,402.1,484.4,400.1,484.7z"/>
		<path class="st0" d="M363.7,421.2c2.4,2.9,4.7,6.3,7.4,8.9c6.8,6.4,12.6-3.6,16.5-8.2c3.9-4.6,10.9-12.6,1.3-15.9
			c-5.5-0.8-35.5-5.6-30.7,7.8C359.1,416.6,362,419.1,363.7,421.2z M370.2,408.2c6-0.3,11.9,0.1,17.9,1c6.8,2.2-4.3,12.4-5.8,14.1
			c-2.7,3.1-5.4,7.5-9.8,3.5c-3.3-3-7.1-7.7-9.5-11.4c-0.3-0.4-1-1-1.2-1.5C359.8,408.3,367.5,408.3,370.2,408.2z"/>
		<path class="st3" d="M363,415.4c2.4,3.8,6.2,8.4,9.5,11.4c4.4,4,7.1-0.4,9.8-3.5c1.5-1.7,12.6-11.9,5.8-14.1
			c-5.9-1-11.9-1.3-17.9-1c-2.7,0.1-10.5,0.1-8.4,5.7C362,414.5,362.8,415,363,415.4z"/>
		<path class="st0" d="M343.2,661.5c4.3-4.7,7.3-10.1,4.1-16.7c-3-6.2-9.8-8.9-16.3-8.9c-13.1,0-25.3,8.3-30.6,19.8
			c-0.1-0.1-0.3-0.3-0.4-0.3c-6.1-0.8-11.9-2.3-17.5-4.7c-1.9-0.8-2.7,2.3-0.8,3.1c5.7,2.4,11.6,3.9,17.7,4.7
			c-0.8,2.6-1.5,5.2-1.6,7.9c0,7.7-0.3,15.3,2.6,22.6c1,2.5,2.4,4.8,3.8,6.9c-38.3,4.4-76.8-2.9-110.8-21.2c-1.8-1-3.4,1.8-1.6,2.7
			c35.1,18.9,75.1,26.5,114.7,21.5c0.1,0,0.1-0.1,0.1-0.1c3.7,4.2,8.3,7.5,13.6,9.8c8.8,3.6,20.4,4,26.8-4.3
			c4.2-5.4,3.8-12.4-0.3-17.3c6.2-1.9,10.8-7.8,9.6-14.7C355.2,665.8,349.4,662.1,343.2,661.5z M343.5,684.6c-1.6,0.1-2,2-0.8,2.9
			c5.4,4,5.2,11.8,0.6,16.2c-4.1,4-10,4.7-15.4,3.8c-7.3-1.2-14.5-5.2-19.4-10.8c-7.5-8.9-7.7-19.4-7.7-30.3
			c0.5-12.2,8.8-20.7,19.8-25.1c5.5-2.2,12.1-3.5,17.7-0.8c11.2,5.5,6.4,15.3-0.1,21.4c-1.2,1.2,0.1,2.9,1.6,2.7
			C354.2,662.4,358.6,683.5,343.5,684.6z"/>
		<path class="st3" d="M339.8,664.7c-1.5,0.3-2.8-1.5-1.6-2.7c6.6-6.1,11.3-15.9,0.1-21.4c-5.6-2.7-12.1-1.5-17.7,0.8
			c-11,4.4-19.3,12.9-19.8,25.1c0,10.9,0.1,21.4,7.7,30.3c4.8,5.6,12.1,9.6,19.4,10.8c5.4,0.9,11.4,0.1,15.4-3.8
			c4.5-4.4,4.7-12.2-0.6-16.2c-1.3-0.9-0.8-2.8,0.8-2.9C358.6,683.5,354.2,662.4,339.8,664.7z"/>
		<path class="st0" d="M292.9,387.7c4.7-5.8,0.3-13.3-5.7-16c-0.7-0.3-1.4-0.4-2.1-0.6c7.2-7.8,12.5-17.8,14.7-29.3
			c0.1-0.7-0.3-1.4-1-1.7l-22.5-7.7c-1.5-0.4,22.8-8.3,22.8-8.3c0.8,0,1.3-0.6,1.4-1.4c0.1-31.8-23-53.6-51.6-55.5
			c-30.2-2.1-56.9,23.7-59.2,57.3c-1,13.6,2.3,26.6,8.5,37.2c-1-0.3-2-0.7-2.9-1c-15.7-4.5-36.3-6.6-43.8,11.5
			c-2.9,6.8-4.1,16.3,4.2,19.5c9.2,3.6,16.7-3.9,22.7-9.8c2.4-2.4,4.9-4.8,8-6.2c6.3-2.8,11.7-0.2,17.2,2.9
			c6.8,3.9,13.6,7.8,20.9,11c11.8,5.3,24.4,8.9,37.4,8.6C271.6,398.1,286.5,395.9,292.9,387.7z M241.1,280.5c26,11,9,51.4-17,40.4
			C198.1,309.9,215.1,269.6,241.1,280.5z M239.8,343c-10.4-4.4-3.6-20.5,6.8-16.1C257,331.2,250.2,347.4,239.8,343z M273.1,393.8
			c-14.7,3.3-29.9,0.2-43.6-5.4c-6.8-2.8-13.2-6.2-19.5-9.8c-4.8-2.7-9.7-6.5-15.2-7.4c-9.9-1.7-16.3,6.6-22.8,12.5
			c-3.3,2.9-7.1,5.9-11.9,5.6c-7.9-0.4-8.4-8.1-6.4-14c1.8-5.3,5-9.9,10.1-12.4c9.4-4.7,21.1-2,30.6,0.8c12.6,4,24.2,10.9,36.9,14.2
			c12.2,3.3,24.6,2.6,36.7-1.3c2.6-0.8,5.2-1.8,7.9-2.4c5.2-1.1,16.5-0.3,15.9,8.1C291.3,389.5,278.9,392.5,273.1,393.8z"/>
		<path class="st4" d="M275.9,374.3c-2.7,0.6-5.3,1.6-7.9,2.4c-12.1,3.9-24.4,4.5-36.7,1.3c-12.8-3.3-24.3-10.3-36.9-14.2
			c-9.5-2.7-21.2-5.5-30.6-0.8c-5.1,2.5-8.4,7.1-10.1,12.4c-1.9,5.9-1.5,13.5,6.4,14c4.7,0.3,8.5-2.7,11.9-5.6
			c6.6-5.9,12.9-14.2,22.8-12.5c5.5,0.9,10.4,4.7,15.2,7.4c6.3,3.6,12.8,7,19.5,9.8c13.6,5.5,28.9,8.7,43.6,5.4
			c5.8-1.3,18.2-4.3,18.7-11.4C292.4,374,281.1,373.1,275.9,374.3z"/>
		<path class="st5" d="M155,376.2c3,4.3,8,2.6,12.3-0.5c4.7-3.3,7-7.4,12.5-9.7c4.1-1.8,8.4-2.6,12.7-2.8
			c-9.1-2.5-19.9-4.6-28.7-0.2c-4.6,2.2-7.6,6.2-9.5,10.8C154.5,374.9,154.6,375.8,155,376.2z"/>
		<path class="st0" d="M152.8,227.9c0.3,0,0.5,0,0.8-0.1c0.1,0,0.1,0,0.2-0.1c0.2-0.1,0.4-0.3,0.5-0.5
			c25.1-37.1,67.7-67.2,112.6-74.6c0.7-0.1,1.2-0.9,1.1-1.6c-0.6-48.7-43-88-92.1-82.8c-48.9,5.1-81.8,52.1-73,99.7
			c5,26.7,22.3,52.7,49.5,60C152.6,228,152.6,227.9,152.8,227.9z M107.3,130.1c9.6-35.4,43-60.1,79.6-59.2c36.2,1,67.9,27,76,62.2
			c0.7,3.1,3.3,15.8,2.6,16.5c-1,1-5,1.1-6.3,1.4c-9.1,2.2-17.9,5.3-26.5,8.9c-32.3,13.6-60.4,35.6-80.3,64.5
			C114.2,213.6,97.7,165.9,107.3,130.1z"/>
		<path class="st3" d="M232.5,160c8.6-3.6,17.5-6.7,26.5-8.9c1.3-0.3,5.4-0.4,6.3-1.4c0.7-0.7-1.8-13.4-2.6-16.5
			c-8-35.2-39.8-61.3-76-62.2c-36.5-1-70,23.8-79.6,59.2c-9.6,35.7,6.9,83.4,45,94.4C172.1,195.6,200.2,173.6,232.5,160z"/>
		<path class="st5" d="M239.8,343c10.4,4.4,17.2-11.8,6.8-16.1C236.2,322.4,229.4,338.6,239.8,343z"/>
		<path class="st5" d="M224.1,320.9c26,11,43-29.5,17-40.4C215.1,269.6,198.1,309.9,224.1,320.9z"/>
		<path class="st3" d="M225.1,750.9c-17.5-2.5-34.4-7-50.1-14.7c-1.1-0.4-2.2-0.7-3.4-1c-5.4,3.3-12.8,9.6-13.5,16.3
			c-1.5,14.6,18.1,6.1,22.7,1.6c1.1-1.1,3.2,0,2.7,1.5c2.9,8.8,6.7,11.4,11.2,7.8c2-0.7,3.3-2.1,3.9-4.2c0.5-1.1,2.2-1,2.7,0
			c4.8,9,18,10.3,23.5,1c0.6-1.1,3.6-6.8,3.3-7.2c-0.2-0.4-1.6-0.4-1.9-0.6C225.8,751.3,225.5,751.1,225.1,750.9z"/>
	</g>
	<g>
		<path class="st6" d="M122.3,142.5c0.1-30.2,15.4-54.3,39.9-68.1c-26,7.8-47.4,28.7-54.8,55.8c-9.6,35.7,6.9,83.4,45,94.5
			c1.6-2.4,3.4-4.6,5.1-6.9C137.5,197.3,122.3,171.9,122.3,142.5z"/>
		<path class="st6" d="M630,142.5c-0.1-30.2-15.4-54.3-39.9-68.1c26,7.8,47.4,28.7,54.8,55.8c9.6,35.7-6.1,83.1-45.1,94.4
			c-1.6-2.4-3.2-4.6-5-6.8C614.8,197.3,630.1,171.9,630,142.5z"/>
	</g>
</g>
</svg>
