<?xml version="1.0" encoding="utf-8"?>
<!-- Generator: Adobe Illustrator 24.1.1, SVG Export Plug-In . SVG Version: 6.00 Build 0)  -->
<svg version="1.1" id="Lager_1" xmlns="http://www.w3.org/2000/svg" xmlns:xlink="http://www.w3.org/1999/xlink" x="0px" y="0px"
	 viewBox="0 0 751.8 768.9" style="enable-background:new 0 0 751.8 768.9;" xml:space="preserve">
<style type="text/css">
	.st0{fill:#1D1D1B;}
	.st1{fill:#575756;}
	.st2{fill:#FEFCF0;}
	.st3{fill:#F7BEC7;}
	.st4{fill:#D44A55;}
	.st5{fill:#EB5E69;}
	.st6{fill:#F296A4;}
	.st7{fill:#F29AA7;}
</style>
<g>
	<g>
		<g>
			<path class="st0" d="M748.6,406.8c-31.9-8.6-65.1-9.4-98.1-7.2c-1.1-23.6-6.7-47.3-14.3-70.3c-9.2-28.1-20-55.8-26-84.9
				c6-1.1,13.1-6.4,17.7-9.3c7.9-4.9,15.3-10.8,21.9-17.4c13.1-13,23.3-28.8,29.6-46.1c12.7-34.6,9.3-74.1-9.1-106.1
				c-37-64.4-124.6-83-184.4-38.8c-30.7,22.7-49.1,58-51.1,95.9c-2.3-4.1-5.1-8-9.6-9.9c-7.7-3.4-15.3-0.7-21.2,4.2
				c1.3-7.6-1-15.7-9.1-18.9c-8.8-3.5-15.1,2.3-19.6,9.1c0.4-9.7-0.4-19.7-6.7-27.4c-4.9-6-12.8-9.4-20.6-8.9
				c-28.9,1.8-11.4,44.5-30.2,55.8c0.6-5.9-0.8-12.8-1.6-18.3c-1.5-9.4-4.1-18.6-7.7-27.4c-6.3-15.6-15.8-29.8-27.8-41.8
				c-25.3-25.4-61.1-38.9-97-36.8C110.3,6.7,55.5,75.7,67.1,148.5c6.8,42.6,35.9,78.8,75.2,95.9c-9.9,48.2-33.9,92.8-39.8,142
				c-0.5,4.4-0.8,8.9-1,13.2c-32.8-2.2-65.9-1.3-97.7,7.2c-2,0.5-1.1,3.6,0.8,3c31.4-8.4,64.3-9.3,96.8-7.1
				c-0.2,12.7,1.3,25.3,4.3,37.5c-21.2,1.6-42.5,4.2-63.5,8.2c-2,0.4-1.1,3.5,0.9,3.1c21-4,42.2-6.7,63.4-8.2
				c3.4,12.7,8.6,25,15.3,36.4c-17.9,3.9-35.6,8.7-53,14.4c-1.9,0.6-1.1,3.7,0.9,3c17.7-5.8,35.7-10.6,53.9-14.6
				c4.6,7.4,9.8,14.3,15.7,20.8c4.4,4.9,9.3,9.5,14.4,13.8c-7,41.4-27.9,79.7-30.7,121.9c-2.3,36.2,11.2,68.9,42.5,88.5
				c1.7,1,3.4,2,5.1,2.9c-7,4.8-19.2,17-14,25.3c4.9,7.9,17.6,4.1,24.7-0.6c0.3,9.4,14,11.9,20,4.1c3.7,4.9,9.9,7.5,16.3,6.6
				c8.7-1.4,12.7-8.9,13.9-16.9c23.6,2.9,47.9,2.5,71.1,2.5c44.7,0,89.4,0,134.1,0c27,0,55,0.9,82.2-2.3c1.3,7.9,5.3,15.3,13.9,16.7
				c6.3,1,12.5-1.6,16.2-6.6c6,7.7,19.8,5.3,20.1-4.1c7.1,4.7,20,8.7,24.7,0.6c4.8-8-5.6-19.1-12.7-24.4
				c11.6-6.2,22.2-14.3,30.5-24.5c12.6-15.6,18.3-35.1,18.9-54.9c1.5-47.3-23.5-89.9-31.1-135.7c11.8-9.4,22.1-20.6,30.2-33.5
				c17.8,3.9,35.4,8.7,52.8,14.4c1.9,0.6,2.7-2.4,0.8-3c-17-5.6-34.4-10.3-51.9-14.2c3.4-5.6,6.3-11.4,8.8-17.6
				c2.5-6.3,4.5-12.7,6.1-19c21,1.5,42,4.1,62.8,8.1c2,0.4,2.8-2.7,0.8-3.1c-20.8-3.9-41.8-6.5-62.9-8.1c2.7-12.4,3.7-25,3.4-37.6
				c32.6-2.2,65.6-1.4,97.1,7.1C749.8,410.4,750.6,407.3,748.6,406.8z M226.2,756.4c-5.4,9.3-18.5,8-23.3-0.9c-0.6-1-2.2-1.1-2.8,0
				c-0.6,2-1.8,3.4-3.8,4.1c-4.5,3.5-8.2,1-11.2-7.8c0.5-1.5-1.5-2.6-2.6-1.5c-4.6,4.6-24.1,12.9-22.6-1.5c0.7-6.7,8-12.9,13.4-16.2
				c1.1,0.4,2.2,0.7,3.4,1c15.6,7.7,32.4,12.1,49.7,14.6c0.4,0.2,0.8,0.3,1.1,0.5c0.4,0.2,1.7,0.3,2,0.6
				C229.7,749.7,226.9,755.3,226.2,756.4z M590.9,748.8c1.5,14.4-18,6.1-22.6,1.5c-1.1-1.1-3.2,0-2.7,1.5
				c-2.9,8.7-6.7,11.3-11.2,7.8c-2-0.7-3.2-2.1-3.9-4.1c-0.5-1.1-2.2-1-2.7,0c-4.4,8.1-15.9,10-22,2.7c-0.9-1.1-5.2-8.2-4.8-8.9
				c0.2-0.3,1.5-0.3,1.7-0.5c0.1,0,0.2-0.1,0.2-0.1c14.6-1.9,28.9-5.1,42.7-10.3c4.2-1.6,8.4-3.4,12.4-5.4
				C583.5,736.4,590.3,742.5,590.9,748.8z M644.1,440.1c-48-3.3-96.4-0.5-143.9,8.6c-2,0.4-1.1,3.4,0.8,3c47-9,94.8-11.8,142.3-8.6
				c-3.2,12.7-8,24.8-14.8,36.1c-44.2-9.6-89.5-13.9-134.9-12.6c-2,0.1-2,3.2,0,3.2c44.8-1.3,89.4,2.9,133.1,12.3
				c-3.5,5.6-7.5,11-11.9,16c-15.8,17.9-36.2,30.7-58.4,39.3c-1.8,0.7-1.1,3.7,0.9,3c14.1-5.1,27.5-12.5,39.7-21.4
				c3.7,20.7,10.7,40.6,17.2,60.6c-27.9,26.1-63.2,43-101,48.4c0.8-2.2,1.4-4.6,1.8-7c1.1-8-1.1-15.4-3.1-23.1
				c-0.8-2.6-2.1-4.9-3.5-7.2c5.7-2.3,11-5.3,15.9-8.9c1.6-1.3,0.1-4-1.6-2.8c-4.8,3.7-10,6.7-15.7,8.9c-0.2,0.1-0.3,0.3-0.4,0.4
				c-8-9.8-21.9-14.6-34.4-11.3c-6.3,1.6-12.2,6-13.5,12.7c-1.3,7.1,2.9,11.6,8.2,15c-5.9,2.1-10.6,7.2-9.9,13.9
				c0.7,6.9,6.5,11.3,12.9,11.5c-2.7,5.7-1.5,12.5,4,16.7c8.3,6.3,19.4,3,26.9-2.7c4.6-3.5,8.1-7.9,10.6-12.8
				c38.8-5.1,75-22,103.7-48.5c5.6,17.4,10.5,35,12,53.4c1.6,19.2-0.4,39.2-9.8,56.4c-9.1,17-24.5,29.5-41.7,37.9
				c-39.5,19.2-85.6,17.6-128.6,17.6c-42.3,0-84.7,0-127.1,0c-38.7,0-78.1,1.6-115.9-8.1c-20.5-5.3-40.6-14.7-55.4-30.2
				c-15.8-16.4-22.6-38.1-22.9-60.6c-0.2-22.8,5.6-44.5,12.4-66c28.8,26.2,64.7,43,103.4,48.1c2.5,4.9,6,9.3,10.6,12.8
				c7.5,5.6,18.6,8.9,26.9,2.7c5.4-4.1,6.7-11,4-16.7c6.4-0.3,12.2-4.6,12.9-11.5c0.7-6.8-4-11.9-9.9-13.9c5.3-3.4,9.6-7.9,8.2-15
				c-1.3-6.7-7.2-11.1-13.5-12.7c-12.5-3.2-26.4,1.6-34.4,11.3c-0.1-0.1-0.2-0.3-0.4-0.4c-5.6-2.2-10.8-5.2-15.7-8.9
				c-1.6-1.2-3.2,1.5-1.6,2.8c4.9,3.7,10.2,6.6,15.9,8.9c-1.5,2.2-2.7,4.6-3.5,7.2c-2,7.7-4.2,15-3.1,23.1c0.4,2.4,1,4.8,1.8,7
				c-37.6-5.3-72.8-22.1-100.6-48c6.4-20.1,13.5-40.1,17.2-60.7c1.1,0.9,2.3,1.7,3.4,2.6c10.6,8.1,22.7,14.5,35.2,18.4
				c2,0.6,2.8-2.4,0.9-3c-13.6-4.7-26.2-11.7-37.4-20.4c-0.7-0.6-1.5-1.1-2.1-1.6c0-0.1-0.1-0.1-0.1-0.1
				c-11.5-9.4-21.5-20.7-29.6-33.4c43.2-9.2,87.5-13.4,131.9-12c2,0.1,2-3.1,0-3.2c-45-1.3-89.9,2.9-133.7,12.4
				c-5.1-8.5-9.4-17.6-12.8-26.9c-1-3-1.9-6-2.7-8.9c47.4-3.2,95.1-0.4,141.9,8.6c2,0.4,2.9-2.7,0.8-3
				c-47.3-9.1-95.6-11.9-143.5-8.6c-3-12.4-4.2-24.8-3.9-37.1c10.8,0.8,21.6,2,32.3,3.2c43.9,5.2,87.3,15.3,128.2,32.3
				c1.8,0.8,2.7-2.3,0.8-3c-41.2-17.1-84.8-27.2-129-32.4c-10.6-1.3-21.4-2.4-32.1-3.2c1.1-27.1,8.8-53.9,17.7-80
				c8.6-25.2,17.7-50.2,22.9-76.3c0.2-1-0.4-2-1.5-2c-0.2,0-0.4,0-0.7,0C110.4,226.9,84.6,199,74,164.3
				c-10.4-34-5.4-71.7,13.6-101.8c37.9-60,121.5-75.4,178.3-32.6c15.1,11.5,27.6,26.4,36.1,43.4c4.3,8.7,7.6,17.8,9.8,27.3
				c1.8,8.2,5.1,20,2.9,28.3c-0.3,1.1,0.8,2.4,2,2c16.5-6.5,13.2-27.9,17.2-42c2.1-7.5,5.4-14.4,14.5-15c6-0.4,12.3,1.8,16.7,6
				c8.8,8.7,7.9,22.4,7.2,33.8c-0.1,1.5,2.2,2.2,2.9,0.8c3-6.1,7.2-14.7,15.4-14.4c11.1,0.4,12.8,13.4,9.3,21.3
				c-0.7,1.5,1.2,3.4,2.5,1.9c6.6-7.8,19.1-13.5,27.1-3.9c2.3,2.9,4,6.5,5.8,9.7c0.8,1.4,2.9,0.7,2.9-0.8
				c0.6-71.4,62.5-128.8,134-122.6c72.3,6.3,124.3,76.7,109.6,147.7c-4.2,20.2-13.6,39.2-27,54.9c-6.7,7.7-14.2,14.7-22.5,20.5
				c-3.7,2.5-7.4,4.9-11.3,7.1c-3.2,1.8-8.5,5.6-12.3,5.6c-1.1,0-1.7,1-1.5,2c9.6,48.2,33.7,92.6,39.9,141.5c0.6,4.9,1,9.8,1.2,14.8
				c-10.9,0.8-21.8,1.9-32.6,3.2c-44.2,5.3-87.8,15.3-129,32.4c-1.8,0.8-1,3.8,0.9,3c40.9-17,84.2-27.1,128.1-32.3
				c10.8-1.3,21.7-2.4,32.6-3.2C648.1,415.5,646.8,428,644.1,440.1z M472.4,627.1c-14,2.6-16-18.6-1.4-20.1c1.5-0.1,2.3-2.1,0.8-2.9
				c-7.5-4.1-13.4-11-7.1-19.3c3.9-5.3,12.9-5.8,18.8-5.1c11.6,1.5,21.7,7.5,25.3,19.1c2.5,9.6,5,18.8,1.3,28.6
				c-2.7,7.1-8.3,13.2-14.9,16.9c-4.4,2.3-9.3,3.7-14.2,2.5c-7.5-1.8-12.6-10.1-7.1-17.1C474.9,628.5,474,626.8,472.4,627.1z
				 M282.1,607c13.9,1.5,13.4,22.8-1.4,20.1c-1.6-0.3-2.5,1.4-1.5,2.6c5.5,7,0.4,15.3-7.1,17.1c-4.9,1.2-9.8-0.1-14.2-2.5
				c-6.6-3.7-12.2-9.8-14.9-16.9c-3.7-9.8-1.2-19,1.3-28.6c3.6-11.6,13.7-17.7,25.3-19.1c5.9-0.8,12.5-0.3,17.2,3.7
				c9.4,8,2.4,16.3-5.5,20.6C279.8,604.9,280.7,606.9,282.1,607z"/>
			<path class="st1" d="M487.2,438.5c-1.9,0.8-2.7-2.3-0.9-3c41.2-17.1,84.8-27.2,129-32.4c10.8-1.3,21.7-2.4,32.6-3.2
				c-0.2-4.9-0.6-9.8-1.2-14.8c-6.2-48.9-30.3-93.3-39.9-141.5c-0.2-1,0.4-2,1.5-2c3.8,0,9.1-3.9,12.3-5.6c3.9-2.2,7.6-4.6,11.3-7.1
				c8.3-5.8,15.8-12.8,22.5-20.5c13.4-15.7,22.8-34.7,27-54.9c14.7-71-37.3-141.4-109.6-147.7c-71.5-6.3-133.4,51.2-134,122.6
				c0,1.5-2.2,2.2-2.9,0.8c-1.8-3.2-3.4-6.8-5.8-9.7c-8-9.6-20.5-3.9-27.1,3.9c-1.3,1.5-3.2-0.4-2.5-1.9c3.5-7.9,1.8-20.9-9.3-21.3
				c-8.2-0.3-12.4,8.3-15.4,14.4c-0.7,1.4-3,0.8-2.9-0.8c0.8-11.3,1.6-25.1-7.2-33.8c-4.4-4.2-10.6-6.4-16.7-6
				c-9.1,0.6-12.4,7.5-14.5,15c-3.9,14.1-0.6,35.4-17.2,42c-1.2,0.4-2.3-0.9-2-2c2.2-8.2-1-20.1-2.9-28.3
				c-2.2-9.4-5.5-18.6-9.8-27.3c-8.5-17-20.9-31.9-36.1-43.4C209.1-12.9,125.4,2.5,87.5,62.6c-18.9,30-24,67.7-13.6,101.8
				c10.6,34.7,36.4,62.6,69.5,77.1c0.3,0,0.5,0,0.7,0c1.1,0,1.7,1,1.5,2c-5.2,26.1-14.4,51.1-22.9,76.3c-8.9,26.1-16.5,53-17.7,80
				c10.8,0.8,21.5,1.9,32.1,3.2c44.2,5.3,87.8,15.3,129,32.4c1.8,0.8,1,3.8-0.8,3c-40.9-17-84.3-27.1-128.2-32.3
				c-10.6-1.3-21.5-2.4-32.3-3.2c-0.3,12.4,0.8,24.8,3.9,37.1c47.9-3.2,96.1-0.5,143.5,8.6c2,0.4,1.1,3.4-0.8,3
				c-46.8-9-94.5-11.7-141.9-8.6c0.8,3,1.7,6,2.7,8.9c3.4,9.4,7.7,18.4,12.8,26.9c43.9-9.4,88.7-13.7,133.7-12.4c2,0.1,2,3.2,0,3.2
				c-44.4-1.3-88.7,2.9-131.9,12c8,12.7,18.1,24,29.6,33.4c0,0,0.1,0,0.1,0.1c0.6,0.6,1.4,1.1,2.1,1.6c11.2,8.7,23.8,15.7,37.4,20.4
				c1.9,0.6,1.1,3.7-0.9,3c-12.5-3.9-24.7-10.3-35.2-18.4c-1.1-0.9-2.3-1.7-3.4-2.6c-3.7,20.7-10.8,40.6-17.2,60.7
				c27.8,25.9,62.9,42.6,100.6,48c-0.8-2.2-1.4-4.6-1.8-7c-1.1-8,1.1-15.4,3.1-23.1c0.8-2.6,2.1-4.9,3.5-7.2
				c-5.7-2.3-11-5.3-15.9-8.9c-1.6-1.3-0.1-4,1.6-2.8c4.8,3.7,10,6.7,15.7,8.9c0.2,0.1,0.3,0.3,0.4,0.4c8-9.8,21.9-14.6,34.4-11.3
				c6.3,1.6,12.2,6,13.5,12.7c1.4,7.1-2.9,11.6-8.2,15c5.9,2.1,10.6,7.2,9.9,13.9c-0.7,6.9-6.5,11.3-12.9,11.5
				c2.7,5.7,1.5,12.5-4,16.7c-8.3,6.3-19.4,3-26.9-2.7c-4.6-3.5-8.1-7.9-10.6-12.8c-38.7-5.1-74.6-21.9-103.4-48.1
				c-6.8,21.5-12.5,43.2-12.4,66c0.3,22.5,7.1,44.2,22.9,60.6c14.8,15.5,34.9,24.9,55.4,30.2c37.8,9.8,77.3,8.1,115.9,8.1
				c42.4,0,84.7,0,127.1,0c43,0,89.1,1.6,128.6-17.6c17.2-8.4,32.6-20.9,41.7-37.9c9.3-17.2,11.3-37.2,9.8-56.4
				c-1.5-18.4-6.4-36-12-53.4c-28.8,26.5-64.9,43.3-103.7,48.5c-2.5,4.9-6,9.3-10.6,12.8c-7.5,5.6-18.6,8.9-26.9,2.7
				c-5.5-4.1-6.7-11-4-16.7c-6.4-0.3-12.2-4.6-12.9-11.5c-0.7-6.8,4-11.9,9.9-13.9c-5.3-3.4-9.6-7.9-8.2-15
				c1.3-6.7,7.2-11.1,13.5-12.7c12.5-3.2,26.4,1.6,34.4,11.3c0.1-0.1,0.2-0.3,0.4-0.4c5.6-2.2,10.8-5.2,15.7-8.9
				c1.6-1.2,3.2,1.5,1.6,2.8c-4.9,3.7-10.2,6.6-15.9,8.9c1.5,2.2,2.7,4.6,3.5,7.2c2,7.7,4.2,15,3.1,23.1c-0.4,2.4-1,4.8-1.8,7
				c37.8-5.4,73.1-22.2,101-48.4c-6.5-20-13.5-39.9-17.2-60.6c-12.2,8.8-25.7,16.2-39.7,21.4c-2,0.7-2.7-2.3-0.9-3
				c22.2-8.6,42.6-21.4,58.4-39.3c4.4-5,8.4-10.4,11.9-16c-43.7-9.4-88.3-13.6-133.1-12.3c-2,0.1-2-3.1,0-3.2
				c45.4-1.3,90.6,3,134.9,12.6c6.7-11.3,11.6-23.4,14.8-36.1c-47.5-3.2-95.3-0.4-142.3,8.6c-2,0.4-2.9-2.7-0.8-3
				c47.5-9.1,95.8-11.9,143.9-8.6c2.8-12.1,4.1-24.6,3.9-37.1c-11,0.8-21.9,1.9-32.6,3.2C571.4,411.4,528,421.5,487.2,438.5z
				 M516.5,85.9C555.1,56.8,612,68,637.1,109.2c24.1,39.7,10.3,106.1-38.8,119.3c-0.1,0-0.2-0.1-0.3-0.1c-0.3,0.1-0.5,0-0.8-0.1
				c-0.1-0.1-0.1-0.1-0.2-0.1c-0.2-0.1-0.4-0.3-0.5-0.5c-24.9-36.9-67.4-66.7-111.9-74.1c-0.7-0.1-1.2-0.9-1.2-1.5
				C483.8,126.2,495.6,101.7,516.5,85.9z M156,227.8c-0.2,0.3-0.3,0.4-0.5,0.5c-0.1,0.1-0.2,0.1-0.3,0.1c-0.3,0.1-0.5,0.1-0.8,0.1
				c-0.1,0-0.2,0.1-0.3,0.1c-27.1-7.3-44.2-33.1-49.2-59.6c-8.8-47.3,24-94,72.6-99.1c48.7-5.1,90.9,33.9,91.5,82.4
				c0,0.6-0.5,1.4-1.1,1.5C223.3,161,180.9,190.9,156,227.8z M300.1,357.8c-0.1,0.1-0.1,0.3-0.3,0.4c-0.1,0.3-0.4,0.4-0.6,0.6
				c-0.1,0.1-0.1,0.1-0.2,0.1c-0.3,0.1-0.6,0.1-0.9,0c-0.1,0-0.2,0.1-0.3,0c-30.2-13.4-64.1-15.7-95.8-6.6c-2,0.6-2.8-2.5-0.8-3
				c29.8-8.6,61.3-7.2,90.2,3.7c-27.7-24-65.8-34-101.8-26c-2,0.4-2.9-2.7-0.8-3.1c39.8-8.7,82.2,3.7,111,32.6
				c0.1,0.1,0.1,0.1,0.1,0.2c0.2,0.3,0.3,0.5,0.3,0.8C300.2,357.5,300.1,357.6,300.1,357.8z M450,438.5
				c-3.4,8.7-13.3,13.9-21.8,16.3c-3.9,1.1-8.2,1.7-12.5,1.8c9.7,27.1-9.5,57.5-39.4,57.5c-29.8-0.1-49.2-30.2-39.4-57.5
				c-4.3-0.1-8.5-0.7-12.5-1.8c-8.4-2.3-18.4-7.5-21.8-16.3c-3.1-8,0.4-16.4,7.2-21.2c1.7-1.1,3.3,1.6,1.6,2.8
				c-9.4,6.6-7.9,18.4,0.5,25c6.5,5.1,14.6,7.6,22.7,8.2c1.6,0.1,3.2,0.1,4.8,0.1c5.5-0.2,11.1-1.1,16.2-3c0.4-0.1,0.8-0.3,1.2-0.4
				c1.2-0.5,2.4-1.1,3.5-1.6c0.9-0.5,1.8-1.1,2.7-1.6c0.6-0.4,1.3-0.8,1.9-1.3c1.2-0.9,2.3-1.9,3.3-3c0.3-0.3,0.6-0.6,1-1
				c1.1-1.3,2-2.7,2.9-4.1c0.2-0.3,0.4-0.6,0.6-0.9c0.8-1.6,1.5-3.4,2-5.3c-1-0.3-1.9-0.8-2.9-1.8c-2.7-2.6-4.9-6-7.4-8.9
				c-1.7-2-4.6-4.6-5.6-7.2c-4.7-13.4,25.2-8.6,30.6-7.7c9.6,3.2,2.6,11.2-1.3,15.7c-2.6,3-6,8.4-9.9,9.8c0.6,1.8,1.2,3.5,2,5.1
				c0.2,0.4,0.4,0.7,0.6,1.1c0.8,1.5,1.8,2.8,2.9,4.1c0.1,0.2,0.3,0.4,0.4,0.6c2.3,2.5,5.1,4.6,8.1,6.2c0.7,0.4,1.4,0.8,2.1,1.1
				c0.4,0.2,0.9,0.3,1.3,0.5c5.6,2.3,11.5,3.5,17.7,3.7c1.6,0.1,3.3,0.1,4.9-0.1c8.5-0.6,17.9-3.5,24.2-9.4c7.3-6.9,7.5-17.8-1-23.8
				c-1.6-1.2-0.1-3.9,1.6-2.8C449.6,422.1,453.1,430.6,450,438.5z M454.6,358.8c-0.1,0.1-0.2,0-0.3,0c-0.3,0.1-0.6,0.1-0.9,0
				c-0.1,0-0.1,0-0.2-0.1c-0.3-0.1-0.4-0.3-0.6-0.6c-0.1-0.1-0.1-0.3-0.2-0.4c-0.1-0.2-0.1-0.3-0.1-0.4c0-0.3,0.1-0.6,0.3-0.8
				c0.1-0.1,0.1-0.1,0.1-0.2c28.8-28.9,71.2-41.3,111-32.6c2,0.4,1.1,3.5-0.9,3.1c-36-7.9-74.1,2-101.8,26
				c29-10.9,60.4-12.4,90.3-3.7c2,0.5,1.1,3.6-0.9,3C518.7,343.1,484.9,345.4,454.6,358.8z"/>
			<path class="st2" d="M144.2,241.5c1.1,0,1.7,1,1.5,2c-5.2,26.1-14.4,51.1-22.9,76.3c-1.5,4.5-3,8.9-4.4,13.4
				c31.4,1.5,54.2,33.1,80.4,48c21.5,12.3,48.4,14.8,72.5,11.1c25-3.9,58.1-16.5,70.7-40.4c14-26.6-13.1-51.6-31.3-67.4
				c-12.9-11.2-29-21.5-30.4-40.2c-1.3-17.9,11-33.9,22.9-45.9c8.3-8.5,20.1-15.5,25.8-26.2c8.5-16-4.3-29.6-14.8-40.4
				c-1.1-1.1-1.4-3.4,0-4.5c0.2-0.2,0.4-0.3,0.6-0.5c1.3-8.1-1.5-18.6-3.2-26.2c-2.2-9.4-5.5-18.6-9.8-27.3
				c-8.5-17-20.9-31.9-36.1-43.4C209.1-12.9,125.4,2.5,87.5,62.6c-18.9,30-24,67.7-13.6,101.8c10.6,34.7,36.4,62.6,69.5,77.1H144.2z
				 M299.8,356.3c0.1,0.1,0.1,0.1,0.1,0.2c0.2,0.3,0.3,0.5,0.3,0.8c0,0.1-0.1,0.3-0.1,0.4c-0.1,0.1-0.1,0.3-0.3,0.4
				c-0.1,0.3-0.4,0.4-0.6,0.6c-0.1,0.1-0.1,0.1-0.2,0.1c-0.3,0.1-0.6,0.1-0.9,0c-0.1,0-0.2,0.1-0.3,0c-30.2-13.4-64.1-15.7-95.8-6.6
				c-2,0.6-2.8-2.5-0.8-3c29.8-8.6,61.3-7.2,90.2,3.7c-27.7-24-65.8-34-101.8-26c-2,0.4-2.9-2.7-0.8-3.1
				C228.6,315.1,271,327.4,299.8,356.3z M105,168.9c-8.8-47.3,24-94,72.6-99.1c48.7-5.1,90.9,33.9,91.5,82.4c0,0.6-0.5,1.4-1.1,1.5
				c-44.6,7.4-87,37.2-111.9,74.1c-0.2,0.3-0.3,0.4-0.5,0.5c-0.1,0.1-0.2,0.1-0.3,0.1c-0.3,0.1-0.5,0.1-0.8,0.1
				c-0.1,0-0.2,0.1-0.3,0.1C127.1,221.2,110,195.4,105,168.9z"/>
			<path class="st3" d="M488.4,151.2c2.9,0.9,5.9,1.4,8.7,2.2c10.1,2.9,19.9,6.6,29.3,11c28.9,13.6,53.9,34.3,71.9,60.6
				c43-12.4,57.5-69.8,39.8-107.1c-15.5-32.6-52.2-51.1-87.6-44c-17,3.4-32.6,12.5-44.2,25.5c-6.1,7-11.1,15.1-14.4,23.8
				c-1.5,3.9-2.7,8-3.6,12.1c-0.9,4-0.6,8.4-1.6,12.4C485.7,151.7,485.1,150.1,488.4,151.2z"/>
			<path class="st0" d="M484.6,153.7c44.5,7.4,87,37.2,111.9,74.1c0.1,0.3,0.3,0.4,0.5,0.5c0.1,0.1,0.1,0.1,0.2,0.1
				c0.3,0.1,0.5,0.1,0.8,0.1c0.1,0,0.2,0.1,0.3,0.1c49.1-13.2,62.9-79.7,38.8-119.3C612,68,555.1,56.8,516.5,85.9
				c-20.8,15.7-32.7,40.2-33.1,66.2C483.4,152.8,483.9,153.6,484.6,153.7z M486.7,147.8c1-3.9,0.8-8.4,1.6-12.4
				c0.9-4.1,2.1-8.2,3.6-12.1c3.4-8.7,8.3-16.8,14.4-23.8C518,86.5,533.5,77.4,550.6,74c35.4-7.1,72.1,11.3,87.6,44
				c17.7,37.3,3.2,94.7-39.8,107.1c-18.1-26.4-43-47-71.9-60.6c-9.4-4.4-19.3-8.2-29.3-11c-2.9-0.8-5.9-1.3-8.7-2.2
				C485.1,150.1,485.7,151.7,486.7,147.8z"/>
			<path class="st3" d="M565.8,738.4c-13.8,5.2-28.1,8.4-42.7,10.3c0,0-0.1,0.1-0.2,0.1c-0.3,0.2-1.5,0.3-1.7,0.5
				c-0.4,0.8,3.9,7.9,4.8,8.9c6.1,7.4,17.6,5.5,22-2.7c0.5-1,2.2-1.1,2.7,0c0.6,2,1.9,3.4,3.9,4.1c4.5,3.5,8.2,1,11.2-7.8
				c-0.5-1.5,1.6-2.6,2.7-1.5c4.6,4.6,24.1,12.9,22.6-1.5c-0.6-6.3-7.4-12.4-12.7-15.8C574.2,735.1,570,736.8,565.8,738.4z"/>
			<path class="st0" d="M550.5,352.2c2,0.6,2.9-2.5,0.9-3c-29.9-8.6-61.3-7.2-90.3,3.7c27.7-24,65.8-34,101.8-26
				c2,0.4,2.9-2.7,0.9-3.1c-39.9-8.7-82.2,3.7-111,32.6c-0.1,0.1-0.1,0.1-0.1,0.2c-0.2,0.3-0.3,0.5-0.3,0.8c0,0.1,0.1,0.3,0.1,0.4
				c0.1,0.1,0.1,0.3,0.2,0.4c0.2,0.3,0.4,0.4,0.6,0.6c0.1,0.1,0.1,0.1,0.2,0.1c0.3,0.1,0.6,0.1,0.9,0c0.1,0,0.2,0.1,0.3,0
				C484.9,345.4,518.7,343.1,550.5,352.2z"/>
			<path class="st3" d="M481,646.8c4.9,1.2,9.8-0.1,14.2-2.5c6.6-3.7,12.2-9.8,14.9-16.9c3.7-9.8,1.2-19-1.3-28.6
				c-3.6-11.6-13.7-17.6-25.3-19.1c-5.9-0.8-14.9-0.3-18.8,5.1c-6.3,8.3-0.4,15.2,7.1,19.3c1.5,0.8,0.6,2.8-0.8,2.9
				c-14.6,1.5-12.6,22.7,1.4,20.1c1.6-0.3,2.5,1.4,1.5,2.6C468.4,636.7,473.5,644.9,481,646.8z"/>
			<path class="st0" d="M442.8,417.4c-1.6-1.1-3.2,1.6-1.6,2.8c8.6,6,8.3,16.9,1,23.8c-6.3,6-15.7,8.8-24.2,9.4
				c-1.6,0.1-3.3,0.1-4.9,0.1c-6.2-0.2-12.1-1.3-17.7-3.7c-0.4-0.2-0.9-0.3-1.3-0.5c-0.7-0.3-1.4-0.8-2.1-1.1
				c-3-1.6-5.8-3.7-8.1-6.2c-0.1-0.2-0.3-0.4-0.4-0.6c-1.1-1.3-2-2.6-2.9-4.1c-0.2-0.4-0.4-0.7-0.6-1.1c-0.8-1.6-1.5-3.3-2-5.1
				c4-1.5,7.4-6.8,9.9-9.8c3.9-4.6,10.9-12.5,1.3-15.7c-5.5-0.9-35.3-5.6-30.6,7.7c1,2.7,3.9,5.2,5.6,7.2c2.4,2.9,4.6,6.3,7.4,8.9
				c1,1,2,1.5,2.9,1.8c-0.5,1.9-1.2,3.7-2,5.3c-0.2,0.3-0.4,0.6-0.6,0.9c-0.9,1.5-1.8,2.9-2.9,4.1c-0.3,0.3-0.7,0.6-1,1
				c-1,1.1-2.1,2.1-3.3,3c-0.6,0.5-1.3,0.9-1.9,1.3c-0.9,0.6-1.8,1.1-2.7,1.6c-1.1,0.6-2.3,1.1-3.5,1.6c-0.4,0.1-0.8,0.3-1.2,0.4
				c-5.1,1.9-10.7,2.9-16.2,3c-1.6,0-3.2,0-4.8-0.1c-8.1-0.6-16.2-3.1-22.7-8.2c-8.4-6.6-9.9-18.4-0.5-25c1.7-1.2,0.1-3.9-1.6-2.8
				c-6.7,4.8-10.3,13.2-7.2,21.2c3.4,8.7,13.4,13.9,21.8,16.3c4,1.1,8.2,1.7,12.5,1.8c-9.8,27.2,9.6,57.4,39.4,57.5
				c29.9,0.1,49.1-30.4,39.4-57.5c4.3-0.1,8.6-0.7,12.5-1.8c8.5-2.3,18.4-7.5,21.8-16.3C453.1,430.6,449.6,422.1,442.8,417.4z
				 M372.9,426.1c-3.2-3-7.1-7.6-9.4-11.3c-0.3-0.4-1-1-1.1-1.5c-2-5.6,5.6-5.6,8.4-5.7c6-0.3,11.9,0.1,17.7,1
				c6.7,2.3-4.2,12.3-5.7,14C379.9,425.7,377.3,430.1,372.9,426.1z M415.4,472.8c-0.1,5.1-1.3,10-3.3,14.6
				c-8.3,18.9-30.5,28.3-49.9,20.9c-9.1-3.5-16.8-10.5-21.1-19.2c-2.3-4.8-3.7-9.9-4-15.3c-0.3-3.7-0.4-13.3,2.5-16.2
				c0.5-0.5,1.3-0.9,2.1-1.1c3-0.2,6.1-0.6,9.1-1.3c0.1,0,0.2,0,0.3-0.1c0.1,0,0.1,0,0.2-0.1c1.8-0.4,3.7-1,5.4-1.6
				c0.8-0.3,1.5-0.6,2.2-0.9c0.9-0.4,1.7-0.8,2.5-1.3c0.7-0.3,1.4-0.6,2-1c0.9-0.6,1.6-1.2,2.5-1.8c0.4-0.3,0.8-0.6,1.2-1
				c0.8-0.6,1.6-1.3,2.3-2c0.8-0.7,1.4-1.5,2.1-2.3c0.6-0.7,1.1-1.4,1.6-2.1c0.8-1.1,1.5-2.2,2.1-3.4c0.3-0.4,0.4-1,0.7-1.4
				c0.1-0.3,0.3-0.4,0.3-0.7c0.1,0.1,0.1,0.2,0.1,0.3c0.3,0.4,0.4,0.9,0.7,1.3c0.5,1.1,1.1,2.1,1.8,3.1c0.2,0.4,0.4,0.7,0.6,1
				c1.8,2.5,3.9,4.6,6.3,6.5c0.4,0.3,0.7,0.6,1.1,0.9c0.4,0.3,1,0.6,1.5,0.8c1.3,0.9,2.7,1.6,4.2,2.3c0.2,0.1,0.4,0.2,0.6,0.3
				c1.6,0.7,3.3,1.3,5.1,1.9c0.2,0.1,0.4,0.2,0.6,0.3c0.1,0,0.3,0.1,0.4,0.1c3.8,1.1,7.8,1.8,11.9,2c0.4,0.2,0.7,0.4,1,0.6
				C415.4,460,415.5,468.9,415.4,472.8z"/>
			<path class="st4" d="M411.1,456.6c-4.1-0.2-8-0.8-11.9-2c-0.1,0-0.3-0.1-0.4-0.1c-0.3-0.1-0.4-0.2-0.6-0.3
				c-1.8-0.6-3.4-1.2-5.1-1.9c-0.3-0.1-0.4-0.2-0.6-0.3c-1.5-0.7-2.9-1.5-4.2-2.3c-0.5-0.3-1-0.5-1.5-0.8c-0.4-0.3-0.7-0.6-1.1-0.9
				c-2.4-1.8-4.5-4-6.3-6.5c-0.2-0.3-0.4-0.6-0.6-1c-0.7-1-1.3-2-1.8-3.1c-0.3-0.4-0.4-0.9-0.7-1.3c0-0.1-0.1-0.2-0.1-0.3
				c-0.1,0.3-0.2,0.4-0.3,0.7c-0.3,0.4-0.4,1-0.7,1.4c-0.6,1.2-1.3,2.3-2.1,3.4c-0.5,0.7-1.1,1.4-1.6,2.1c-0.7,0.8-1.3,1.6-2.1,2.3
				c-0.7,0.7-1.5,1.3-2.3,2c-0.4,0.3-0.8,0.6-1.2,1c-0.8,0.6-1.6,1.2-2.5,1.8c-0.6,0.4-1.3,0.6-2,1c-0.8,0.4-1.6,0.9-2.5,1.3
				c-0.7,0.3-1.4,0.6-2.2,0.9c-1.7,0.6-3.5,1.2-5.4,1.6c-0.1,0.1-0.1,0.1-0.2,0.1c-0.1,0.1-0.3,0.1-0.3,0.1c-3,0.7-6,1.1-9.1,1.3
				c-0.8,0.3-1.6,0.6-2.1,1.1c-3,2.9-2.8,12.4-2.5,16.2c0.3,5.3,1.6,10.5,4,15.3c4.3,8.7,12,15.7,21.1,19.2
				c19.3,7.4,41.6-2,49.9-20.9c2-4.6,3.2-9.6,3.3-14.6c0.1-3.9,0-12.8-3.4-15.7C411.8,457,411.5,456.8,411.1,456.6z"/>
			<path class="st5" d="M385.1,475.9c-15.9-0.7-31.5,3.6-47.1,3.8c0.7,3.3,1.7,6.5,3.2,9.5c4.3,8.7,12,15.7,21.1,19.2
				c19.3,7.4,41.6-2,49.9-20.9c1-2.3,1.8-4.7,2.4-7.1C405,477.5,394.8,476.3,385.1,475.9z"/>
			<path class="st6" d="M382.7,422.6c1.5-1.7,12.4-11.7,5.7-14c-5.8-1-11.7-1.3-17.7-1c-2.7,0.1-10.4,0.1-8.4,5.7
				c0.1,0.5,0.9,1,1.1,1.5c2.3,3.7,6.2,8.4,9.4,11.3C377.3,430.1,379.9,425.7,382.7,422.6z"/>
			<path class="st0" d="M299.8,356.3c-28.8-28.9-71.2-41.3-111-32.6c-2,0.4-1.2,3.5,0.8,3.1c36-7.9,74.1,2,101.8,26
				c-28.9-10.9-60.4-12.4-90.2-3.7c-2,0.5-1.1,3.6,0.8,3c31.7-9.1,65.6-6.8,95.8,6.6c0.1,0.1,0.2,0,0.3,0c0.3,0.1,0.6,0.1,0.9,0
				c0.1,0,0.1,0,0.2-0.1c0.3-0.1,0.5-0.3,0.6-0.6c0.1-0.1,0.2-0.3,0.3-0.4c0-0.2,0.1-0.3,0.1-0.4c0-0.3-0.1-0.6-0.3-0.8
				C299.8,356.5,299.8,356.4,299.8,356.3z"/>
			<path class="st3" d="M286.8,583.5c-4.7-4.1-11.3-4.5-17.2-3.7c-11.6,1.5-21.7,7.5-25.3,19.1c-2.5,9.6-5,18.8-1.3,28.6
				c2.7,7.1,8.3,13.2,14.9,16.9c4.4,2.3,9.3,3.7,14.2,2.5c7.5-1.8,12.6-10.1,7.1-17.1c-1-1.2-0.1-2.9,1.5-2.6
				c14.8,2.7,15.3-18.6,1.4-20.1c-1.5-0.1-2.3-2.1-0.8-2.9C289.2,599.8,296.1,591.5,286.8,583.5z"/>
			<path class="st0" d="M269.1,152.2c-0.6-48.5-42.8-87.5-91.5-82.4c-48.5,5.1-81.4,51.8-72.6,99.1c4.9,26.5,22.1,52.3,49.2,59.6
				c0.1,0,0.2-0.1,0.3-0.1c0.3,0.1,0.5,0,0.8-0.1c0.1-0.1,0.2-0.1,0.3-0.1c0.2-0.1,0.3-0.3,0.5-0.5c24.9-36.9,67.3-66.7,111.9-74.1
				C268.6,153.6,269.1,152.8,269.1,152.2z M266.4,150.7c-1,1-5,1.1-6.3,1.4c-9,2.3-17.7,5.3-26.3,8.9
				c-32.1,13.5-60.1,35.4-79.8,64.1c-37.8-10.9-54.3-58.3-44.7-93.8c9.4-35.1,42.7-59.8,79.1-58.8c35.9,1,67.4,26.9,75.4,61.9
				C264.6,137.4,267.2,150,266.4,150.7z"/>
			<path class="st3" d="M188.5,72.5c-36.4-1-69.6,23.7-79.1,58.8c-9.6,35.5,6.8,82.9,44.7,93.8c19.7-28.8,47.7-50.6,79.8-64.1
				c8.6-3.5,17.3-6.6,26.3-8.9c1.3-0.3,5.3-0.4,6.3-1.4c0.8-0.7-1.8-13.3-2.5-16.4C255.9,99.4,224.4,73.5,188.5,72.5z"/>
			<path class="st3" d="M226.4,748.2c-17.3-2.5-34.2-6.9-49.7-14.6c-1.1-0.3-2.2-0.6-3.4-1c-5.4,3.3-12.7,9.6-13.4,16.2
				c-1.5,14.4,18.1,6.1,22.6,1.5c1.1-1.1,3.1,0,2.6,1.5c3,8.7,6.7,11.3,11.2,7.8c2-0.7,3.2-2.1,3.8-4.1c0.6-1.1,2.2-1,2.8,0
				c4.8,8.9,17.9,10.1,23.3,0.9c0.7-1.1,3.5-6.7,3.3-7.2c-0.3-0.3-1.6-0.4-2-0.6C227.2,748.5,226.8,748.4,226.4,748.2z"/>
		</g>
		<g>
			<path class="st7" d="M124,143.5c0.1-30,15.3-54,39.7-67.7c-25.9,7.8-47.1,28.5-54.4,55.4c-9.6,35.5,6.8,82.9,44.7,93.9
				c1.6-2.4,3.4-4.6,5.1-6.9C139.1,198,123.9,172.8,124,143.5z"/>
			<path class="st7" d="M628.5,143.5c-0.1-30-15.3-54-39.7-67.7c25.9,7.8,47.1,28.5,54.4,55.4c9.6,35.5-6.1,82.6-44.8,93.8
				c-1.6-2.4-3.2-4.5-4.9-6.8C613.4,198,628.5,172.8,628.5,143.5z"/>
		</g>
	</g>
</g>
</svg>
