<?xml version="1.0" encoding="utf-8"?>
<!-- Generator: Adobe Illustrator 24.1.1, SVG Export Plug-In . SVG Version: 6.00 Build 0)  -->
<svg version="1.1" id="Lager_1" xmlns="http://www.w3.org/2000/svg" xmlns:xlink="http://www.w3.org/1999/xlink" x="0px" y="0px"
	 viewBox="0 0 727.7 744.3" style="enable-background:new 0 0 727.7 744.3;" xml:space="preserve">
<style type="text/css">
	.st0{fill:none;}
	.st1{fill:#1D1D1B;}
	.st2{fill:#F7BEC7;}
	.st3{fill:#575756;}
	.st4{fill:#6F6F6E;}
	.st5{fill:#FFFFFF;}
	.st6{fill:#EB5E69;}
	.st7{fill:#F29AA7;}
</style>
<g>
	<g>
		<g>
			<path class="st0" d="M73.1,476.9c0.2,0.1,0.3,0,0.5,0.1c0,0.1,0,0.1,0,0.1c14.1-4.3,28.2-8.1,42.5-11.3
				c-6.5-11.1-11.5-23-14.9-35.4c-15.1,1.1-30.2,2.8-45.2,5.2c4.1,0.4,8,2.5,11,5.6C76.1,450.5,78.2,465.3,73.1,476.9z"/>
			<path class="st0" d="M144.1,499.7c-3.9-3.4-7.5-7-11-10.9c-5.7-6.3-10.8-13.1-15.2-20.2c-13.8,3-27.5,6.6-41.1,10.7
				c6.2,4.3,13.7,7.3,20.4,9.8C112.3,495,128.1,498.3,144.1,499.7z"/>
			<path class="st0" d="M611.1,468.9c-7.4,11.7-16.7,22-27.2,30.8c15.9-1.4,31.6-4.7,46.5-10.4c6.7-2.5,14.3-5.6,20.4-9.9
				C637.7,475.3,624.5,471.8,611.1,468.9z"/>
			<path class="st0" d="M621.4,449c-2.5,6-5.4,11.7-8.6,17.1c13.9,3.1,27.7,6.8,41.3,11c0.1-0.1,0.2-0.1,0.4-0.1
				c-5.1-11.6-3-26.6,6.1-35.8c3-3,7-5.1,11.1-5.6c-14.8-2.3-29.6-4-44.4-5.1C625.7,436.7,623.8,442.9,621.4,449z"/>
			<path class="st1" d="M726.7,394.8c-31.1-8.3-63.5-9.1-95.6-7c-1-23-6.6-46.1-13.9-68.5c-9-27.4-19.5-54.4-25.4-82.7
				c5.7-1,12.7-6.2,17.2-9c7.7-4.9,14.9-10.6,21.4-17c12.7-12.7,22.6-28.1,28.8-44.9c12.3-33.8,9.1-72.3-8.8-103.5
				C614.4-0.4,529-18.6,470.8,24.4C440.9,46.5,423,81,421,117.8c-2.3-4-5-7.8-9.4-9.7c-7.4-3.2-14.9-0.6-20.7,4.1
				c1.3-7.4-0.9-15.2-8.8-18.4c-8.6-3.4-14.8,2.2-19.1,8.9c0.4-9.4-0.4-19.2-6.5-26.7c-4.9-5.9-12.5-9.1-20.1-8.6
				c-28.2,1.7-11.1,43.3-29.4,54.3c0.6-5.7-0.8-12.5-1.7-17.8c-1.4-9.2-4-18.2-7.5-26.8c-6.2-15.2-15.4-29.1-27-40.7
				c-24.8-24.8-59.5-37.9-94.5-35.8C104.8,5.1,51.4,72.3,62.7,143.2c6.6,41.5,34.9,76.8,73.3,93.5c-9.7,46.9-33,90.4-38.8,138.3
				c-0.5,4.3-0.8,8.6-0.9,12.8c-31.9-2.1-64.2-1.2-95.1,7c-1.9,0.6-1.1,3.5,0.8,3c30.6-8.2,62.6-9,94.2-6.9
				c-0.1,12.4,1.3,24.7,4.3,36.6c-20.7,1.5-41.4,4.1-61.9,8c-2,0.4-1.1,3.3,0.8,3c3.1-0.6,6.4-1,9.5-1.5c-5.2,2.4-7,7.5-7.5,12.9
				c-4.8-4.4-12.2-6.1-17.7-1.5c-4.8,3.9-5.6,10.2-3.1,15.4c-6.3,0.1-11.7,4.5-12.8,11.2c-1.6,10.4,6.8,18.5,15.4,22.3
				c5.1,2.3,10,3.2,14.6,3c21.9,32,53.1,56.2,89.5,69.4c0.3,0.1,0.6,0,0.8-0.1c-5.2,16.8-9.6,33.8-10.8,51.5
				c-2.3,35.3,10.9,67.2,41.4,86.2c1.6,1,3.3,1.9,4.9,2.8c-6.8,4.6-18.6,16.5-13.6,24.7c4.8,7.7,17.1,4,24.1-0.7
				c0.3,9.2,13.6,11.6,19.5,4c3.6,4.9,9.6,7.3,15.8,6.4c8.6-1.3,12.3-8.6,13.6-16.5c23,2.8,46.7,2.5,69.3,2.5c43.5,0,87,0,130.6,0
				c26.3,0,53.5,0.9,80-2.2c1.4,7.7,5.2,14.9,13.6,16.2c6.2,0.9,12.2-1.5,15.8-6.4c5.9,7.6,19.3,5.2,19.5-4c7,4.6,19.5,8.5,24.1,0.7
				c4.6-7.8-5.4-18.7-12.4-23.8c11.4-6,21.7-13.9,29.8-23.8c12.3-15.2,17.8-34.2,18.4-53.5c0.7-22.2-4.6-43.3-11.1-64.2
				c36.1-13.3,67.2-37.4,88.9-69.2c4.6,0.2,9.5-0.7,14.6-3c8.6-3.9,17-11.9,15.4-22.3c-1-6.7-6.4-11.1-12.7-11.2
				c2.3-5.2,1.5-11.5-3.1-15.4c-5.5-4.6-12.9-2.9-17.7,1.5c-0.6-5.4-2.3-10.6-7.6-13c3.3,0.6,6.5,1,9.8,1.7c2,0.4,2.8-2.6,0.9-3
				c-20.3-3.9-40.8-6.4-61.3-8c2.7-12.1,3.6-24.3,3.3-36.5c31.8-2.2,63.9-1.4,94.6,6.9C727.8,398.3,728.6,395.3,726.7,394.8z
				 M101.3,430.4c3.3,12.4,8.3,24.3,14.9,35.4c-14.3,3.2-28.5,7-42.5,11.3c0,0,0,0,0-0.1c-0.2-0.1-0.3-0.1-0.5-0.1
				c5.1-11.6,3-26.5-6.1-35.8c-3-3-6.9-5.1-11-5.6C71,433.2,86.1,431.5,101.3,430.4z M117.9,468.7c4.4,7.1,9.4,13.9,15.2,20.2
				c3.5,3.9,7.2,7.5,11,10.9c-16.1-1.4-31.9-4.8-46.9-10.5c-6.7-2.5-14.3-5.6-20.4-9.8C90.3,475.3,104,471.7,117.9,468.7z
				 M21.6,492.9c-4.5-2.7-8.6-6.3-10.2-11.4c-2.3-7.6,2.5-16.5,11.5-14.7c1.6,0.3,2.5-1.4,1.5-2.6c-8.9-11.4,9.3-21.9,16.9-9.9
				c0.8,1.3,2.8,0.7,2.9-0.8c0.2-7.5,2.3-15.9,11.9-14.8c7.2,0.8,12.1,7.8,14.4,14.2c3.9,10.8,2.9,22.3-5.6,30.6
				c-7.2,6.4-14.1,12.5-24.1,13.6C34.2,497.9,27.4,496.3,21.6,492.9z M41.4,499.9c9.4-1.4,17.8-7.1,25.7-14.1c1.5-1.4,2.7-3,3.8-4.6
				c0.7-0.2,1.4-0.4,2.2-0.6c6.3,4.9,14.3,8.1,21.5,11.1c16.7,6.6,34.4,10.2,52.3,11.5c-3.8,21.9-11.5,42.9-18.2,64.1
				c-0.2-0.2-0.3-0.5-0.7-0.6C93.1,553.9,62.8,530.5,41.4,499.9z M217.8,735.4c-5.2,9-18.1,7.7-22.8-0.9c-0.5-1-2.2-1-2.7,0
				c-0.6,2-1.9,3.3-3.8,4c-4.4,3.5-8,1-10.9-7.5c0.5-1.5-1.5-2.6-2.6-1.5c-4.4,4.4-23.5,12.7-22-1.5c0.7-6.4,7.8-12.6,13.1-15.7
				c1,0.3,2.2,0.6,3.2,0.9c15.2,7.5,31.7,11.8,48.5,14.3c0.4,0.1,0.7,0.2,1.1,0.4c0.3,0.2,1.7,0.2,1.9,0.6
				C221.2,728.8,218.4,734.3,217.8,735.4z M573,728c1.5,14.1-17.6,5.9-22,1.5c-1.1-1-3.1,0-2.6,1.5c-2.9,8.5-6.5,11-10.9,7.5
				c-1.9-0.7-3.1-2-3.7-4c-0.5-1-2.2-1-2.7,0c-4.3,8-15.5,9.8-21.4,2.6c-0.9-1-5.1-8-4.6-8.6c0.1-0.3,1.4-0.4,1.7-0.6
				c0.1,0,0.1,0,0.2-0.1c14.2-1.9,28.2-4.9,41.6-10c4.1-1.5,8.1-3.3,12-5.2C565.7,715.9,572.3,721.8,573,728z M599.9,566.5
				c-6.6-21.1-14.2-41.9-18-63.5c17.5-1.4,34.7-4.9,51.1-11.4c7.3-2.9,15.2-6.2,21.6-11.1c0.7,0.2,1.4,0.4,2,0.6
				c1.1,1.7,2.4,3.3,3.8,4.7c8,7,16.4,12.7,25.7,14.1C664.9,530.4,634.8,553.7,599.9,566.5z M583.9,499.7
				c10.6-8.8,19.8-19.1,27.2-30.8c13.4,3,26.6,6.5,39.8,10.5c-6.1,4.3-13.7,7.3-20.4,9.9C615.5,495,599.8,498.2,583.9,499.7z
				 M683.3,453.6c0.1,1.5,2,2.1,2.9,0.8c7.6-12,25.7-1.5,16.9,9.9c-0.9,1.2-0.1,2.9,1.5,2.6c9.1-1.9,13.8,7.1,11.5,14.7
				c-1.5,5.1-5.6,8.8-10.1,11.4c-5.9,3.4-12.6,4.9-19.3,4.2c-10.1-1.1-16.9-7.2-24.1-13.6c-8.5-8.2-9.4-19.8-5.6-30.6
				c2.1-5.9,6.4-12.2,12.7-14C679.8,436.2,683.2,445.6,683.3,453.6z M671.7,435.6c-4.1,0.4-8.1,2.5-11.1,5.6
				c-9.1,9.2-11.2,24.2-6.1,35.8c-0.1,0.1-0.2,0-0.4,0.1c-13.6-4.2-27.4-7.9-41.3-11c3.2-5.4,6.1-11.1,8.6-17.1
				c2.5-6.1,4.4-12.3,5.9-18.5C642.1,431.6,656.9,433.2,671.7,435.6z M624.8,427.3c-46.8-3.2-93.9-0.6-140.1,8.3
				c-2,0.4-1.2,3.3,0.8,3c45.7-8.8,92.3-11.4,138.6-8.3c-3.1,12.3-7.9,24.3-14.4,35.2c-43.1-9.4-87.2-13.6-131.4-12.3
				c-2,0.1-2,3.1,0,3.1c43.6-1.3,87.1,2.8,129.6,12c-3.4,5.4-7.2,10.7-11.5,15.6c-15.4,17.5-35.3,29.9-56.9,38.3
				c-1.8,0.7-1.1,3.6,0.8,3c13.8-5,26.9-12.2,38.8-20.7c6.9,38.8,26.1,74.7,29.3,114.3c1.6,18.7-0.4,38.2-9.4,54.9
				c-8.9,16.5-24,28.8-40.6,36.9c-38.5,18.7-83.3,17.1-125.3,17.1c-41.2,0-82.5,0-123.8,0c-37.7,0-76.1,1.6-112.9-7.8
				c-20-5.2-39.6-14.4-54-29.4c-15.3-16-22-37.2-22.2-59c-0.4-44.2,22.2-84,29.8-126.7c1.1,0.9,2.2,1.7,3.3,2.5
				c10.3,7.9,22,14.1,34.3,18c1.9,0.6,2.7-2.3,0.8-3c-13.3-4.5-25.5-11.4-36.4-19.9c-0.7-0.6-1.4-1-2-1.6c-0.1,0-0.1,0-0.1-0.1
				c-11.3-9.1-21-20.2-28.9-32.5c42.2-9,85.3-13,128.5-11.8c2,0.1,2-3,0-3.1c-43.8-1.3-87.5,2.8-130.3,12.1
				c-5.1-8.3-9.3-17.1-12.5-26.3c-1-2.9-1.9-5.8-2.7-8.7c46.1-3.1,92.6-0.4,138.2,8.3c1.9,0.4,2.8-2.6,0.8-3
				c-46.1-8.9-93.1-11.5-139.8-8.4c-3-12-4.1-24.1-3.8-36.1c10.6,0.7,21.1,1.9,31.5,3.1c42.8,5.1,85,15,124.8,31.5
				c1.9,0.7,2.7-2.2,0.9-3c-40.2-16.6-82.7-26.5-125.7-31.6c-10.4-1.2-20.9-2.3-31.4-3.1c1.2-26.4,8.6-52.5,17.3-78
				c8.3-24.5,17.3-48.8,22.3-74.3c0.2-1-0.4-2-1.5-2c-0.2,0-0.4,0-0.7,0c-32.2-14.1-57.3-41.4-67.7-75.1
				c-10.2-33.1-5.2-69.8,13.2-99.1C119.6,1,201.1-14,256.3,27.7c14.8,11.2,26.9,25.7,35.1,42.3c4.2,8.5,7.4,17.4,9.5,26.5
				c1.8,8,4.9,19.5,2.8,27.6c-0.3,1,0.7,2.3,1.9,1.9c16.2-6.3,13-27.2,16.8-40.9c2-7.3,5.2-14.1,14.1-14.6c5.9-0.4,12,1.8,16.2,5.9
				c8.6,8.5,7.8,21.8,7,32.8c-0.1,1.5,2.2,2.1,2.9,0.7c3-6,7-14.3,14.9-14c10.9,0.3,12.5,13,9.1,20.7c-0.7,1.5,1.2,3.3,2.4,1.9
				c6.4-7.7,18.6-13.2,26.4-3.8c2.3,2.7,4,6.3,5.7,9.4c0.7,1.4,2.8,0.7,2.8-0.8C424.5,53.9,484.8-2,554.4,4
				c70.4,6.2,121.1,74.8,106.7,143.8c-4.1,19.7-13.1,38.2-26.3,53.5c-6.4,7.5-13.8,14.3-21.9,20c-3.5,2.5-7.2,4.8-10.9,6.9
				c-3.2,1.8-8.3,5.5-12,5.5c-1.1,0-1.7,1-1.5,2c9.3,46.9,32.8,90.3,38.8,137.9c0.6,4.8,1,9.6,1.2,14.3c-10.7,0.8-21.2,1.9-31.7,3.1
				c-43.1,5.1-85.6,15-125.7,31.6c-1.8,0.7-1,3.7,0.8,3c39.9-16.5,82.1-26.4,124.9-31.5c10.5-1.2,21.1-2.3,31.8-3.1
				C628.8,403.2,627.5,415.4,624.8,427.3z"/>
			<path class="st2" d="M657,453c-3.8,10.8-2.8,22.3,5.6,30.6c7.2,6.4,14,12.5,24.1,13.6c6.7,0.7,13.5-0.8,19.3-4.2
				c4.5-2.7,8.6-6.3,10.1-11.4c2.3-7.6-2.4-16.5-11.5-14.7c-1.6,0.3-2.5-1.4-1.5-2.6c8.9-11.4-9.3-21.9-16.9-9.9
				c-0.9,1.3-2.8,0.7-2.9-0.8c-0.2-8-3.6-17.3-13.6-14.6C663.4,440.8,659.1,447.1,657,453z"/>
			<path class="st3" d="M656.6,481.1c-0.6-0.2-1.3-0.4-2-0.6c-6.4,4.9-14.3,8.2-21.6,11.1c-16.4,6.4-33.6,10-51.1,11.4
				c3.8,21.6,11.4,42.5,18,63.5c34.9-12.8,65-36.1,86.2-66.5c-9.3-1.4-17.7-7.1-25.7-14.1C659,484.4,657.7,482.8,656.6,481.1z"/>
			<path class="st3" d="M471.9,425.6c-1.8,0.7-2.6-2.2-0.8-3c40.1-16.6,82.6-26.5,125.7-31.6c10.5-1.2,21.1-2.3,31.7-3.1
				c-0.2-4.8-0.6-9.6-1.2-14.3c-6-47.7-29.6-91-38.8-137.9c-0.2-1,0.4-2,1.5-2c3.6,0,8.8-3.7,12-5.5c3.8-2.1,7.4-4.4,10.9-6.9
				c8.1-5.7,15.5-12.5,21.9-20c13.1-15.2,22.2-33.8,26.3-53.5C675.5,78.8,624.8,10.2,554.4,4c-69.6-6-129.9,49.9-130.6,119.4
				c0,1.5-2.1,2.2-2.8,0.8c-1.7-3.1-3.4-6.7-5.7-9.4c-7.7-9.4-19.9-3.9-26.4,3.8c-1.2,1.4-3.1-0.4-2.4-1.9
				c3.4-7.7,1.8-20.4-9.1-20.7c-7.9-0.2-12,8-14.9,14c-0.7,1.4-3,0.7-2.9-0.7c0.8-11.1,1.7-24.4-7-32.8c-4.2-4.1-10.3-6.3-16.2-5.9
				c-8.9,0.6-12.1,7.3-14.1,14.6c-3.8,13.7-0.6,34.6-16.8,40.9c-1.1,0.5-2.2-0.9-1.9-1.9c2.1-8.1-1-19.6-2.8-27.6
				c-2.1-9.1-5.3-18.1-9.5-26.5c-8.3-16.5-20.4-31.1-35.1-42.3C201.1-14,119.6,1,82.7,59.4c-18.5,29.3-23.4,66.1-13.2,99.1
				c10.4,33.8,35.5,61.1,67.7,75.1c0.2,0,0.4,0,0.7,0c1,0,1.7,1,1.5,2c-5.1,25.5-14,49.8-22.3,74.3c-8.6,25.4-16.1,51.6-17.3,78
				c10.5,0.8,21,1.9,31.4,3.1c43,5.1,85.5,15,125.7,31.6c1.8,0.7,1,3.7-0.9,3c-39.8-16.5-82-26.4-124.8-31.5
				c-10.4-1.2-20.9-2.3-31.5-3.1c-0.3,12,0.9,24.1,3.8,36.1c46.7-3.1,93.6-0.5,139.8,8.4c2,0.4,1.1,3.3-0.8,3
				c-45.6-8.8-92.1-11.4-138.2-8.3c0.7,2.9,1.7,5.8,2.7,8.7c3.2,9.2,7.4,18,12.5,26.3c42.7-9.3,86.4-13.4,130.3-12.1
				c2,0.1,2,3.1,0,3.1C206.3,455,163.2,459,121,468c7.9,12.3,17.6,23.3,28.9,32.5c0,0.1,0,0.1,0.1,0.1c0.6,0.6,1.4,1,2,1.6
				c10.9,8.5,23.1,15.4,36.4,19.9c1.9,0.6,1.1,3.6-0.8,3c-12.3-3.8-24-10.1-34.3-18c-1.1-0.8-2.2-1.7-3.3-2.5
				c-7.7,42.7-30.2,82.5-29.8,126.7c0.2,21.9,6.9,43,22.2,59c14.4,15.1,34,24.3,54,29.4c36.9,9.4,75.3,7.8,112.9,7.8
				c41.2,0,82.5,0,123.8,0c41.9,0,86.7,1.6,125.3-17.1c16.7-8.1,31.7-20.4,40.6-36.9c9-16.7,11.1-36.2,9.4-54.9
				c-3.3-39.6-22.5-75.4-29.3-114.3c-11.9,8.5-25,15.7-38.8,20.7c-1.9,0.7-2.6-2.2-0.8-3c21.6-8.4,41.5-20.8,56.9-38.3
				c4.3-4.9,8.1-10.1,11.5-15.6c-42.5-9.1-86-13.3-129.6-12c-2,0.1-2-3,0-3.1c44.2-1.3,88.3,2.9,131.4,12.3
				c6.5-10.9,11.2-22.8,14.4-35.2c-46.3-3.1-92.9-0.4-138.6,8.3c-2,0.4-2.8-2.6-0.8-3c46.2-8.9,93.3-11.5,140.1-8.3
				c2.7-11.9,4-24,3.8-36.2c-10.7,0.8-21.3,1.9-31.8,3.1C554,399.3,511.8,409.2,471.9,425.6z M500.6,82.2
				c37.5-28.3,93-17.5,117.4,22.7c23.5,38.6,10,103.4-37.8,116.2c-0.1,0.1-0.1-0.1-0.2,0c-0.2,0-0.5-0.1-0.7-0.1
				c-0.1-0.1-0.2-0.1-0.2-0.1c-0.2-0.1-0.3-0.2-0.5-0.4c-24.3-36-65.6-65-109-72.2c-0.6-0.1-1.1-0.9-1.1-1.5
				C468.6,121.4,480.2,97.5,500.6,82.2z M149.4,220.4c-0.1,0.2-0.3,0.4-0.5,0.4c-0.1,0.1-0.1,0.1-0.2,0.1c-0.2,0.1-0.5,0.1-0.7,0.1
				c-0.1-0.1-0.2,0.1-0.3,0c-26.4-7-43.1-32.3-47.9-58.1c-8.6-46.1,23.3-91.6,70.6-96.6c47.5-4.9,88.5,33,89.2,80.3
				c0,0.6-0.5,1.4-1.2,1.5C215,155.4,173.6,184.5,149.4,220.4z M289.4,329.8c0.7,0.2,1.1,0.9,1,1.5c-5.7,28.8-31.1,48-57.5,46.2
				c-29.2-2.1-51.4-30.5-49.1-62.9c2.3-32.5,28.2-57.5,57.4-55.5c27.7,2,50,23,49.9,53.8c0,0.7-0.6,1.4-1.4,1.4c0,0-23.5,7.5-22.1,8
				L289.4,329.8z M435.7,425.7c-3.3,8.5-13,13.6-21.3,15.9c-6.2,1.8-13.1,2.3-19.9,1.5c-4.8,7.5-9.5,15.1-14.3,22.6
				c-3.7,5.9-8,16.8-16.3,16.8c-8.3,0-12.6-10.9-16.3-16.8c-4.8-7.5-9.6-15.1-14.3-22.6c-6.8,0.8-13.7,0.3-19.9-1.5
				c-8.3-2.3-18-7.3-21.2-15.9c-3-7.8,0.4-16,7-20.6c1.6-1.2,3.1,1.5,1.5,2.7c-9.2,6.4-7.7,17.9,0.5,24.3c6.3,5,14.2,7.4,22.1,8.1
				c3.6,0.2,7.4,0.1,11.1-0.4c1.4-0.2,2.7-0.5,4.1-0.9c0.1,0,0.1,0,0.1,0c4.3-1,8.3-2.7,11.9-5c0.4-0.2,0.9-0.5,1.2-0.7
				c0.6-0.4,1.2-0.9,1.7-1.4c0.9-0.7,1.8-1.5,2.6-2.3c0.4-0.4,0.8-0.9,1.2-1.4c0.9-1,1.7-2.2,2.3-3.3c0.2-0.4,0.6-0.9,0.7-1.3
				c0.8-1.5,1.4-3.1,1.9-4.8c-0.9-0.3-1.9-0.9-2.8-1.8c-2.7-2.5-4.9-5.8-7.2-8.6c-1.7-2-4.4-4.4-5.4-7c-4.6-13,24.5-8.4,29.8-7.5
				c9.4,3.1,2.5,10.9-1.2,15.3c-2.5,3-5.9,8.1-9.7,9.6c0.5,1.7,1.1,3.4,1.9,4.9c0.2,0.4,0.6,0.9,0.8,1.4c0.7,1.1,1.5,2.2,2.3,3.3
				c0.4,0.4,0.8,0.9,1.2,1.4c0.8,0.9,1.7,1.6,2.5,2.3c0.6,0.4,1.1,1,1.7,1.4c0.5,0.3,1,0.6,1.4,0.9c3.5,2.1,7.3,3.7,11.4,4.8
				c0.4,0.1,0.9,0.2,1.3,0.3c1,0.2,2,0.4,3,0.6c3.8,0.6,7.7,0.7,11.4,0.5c8.3-0.6,17.5-3.4,23.6-9.3c7.1-6.7,7.3-17.3-1-23.1
				c-1.6-1.2-0.1-3.8,1.6-2.7C435.3,409.7,438.8,417.9,435.7,425.7z M437,314.6c2.3-32.5,28.2-57.5,57.4-55.5
				c27.7,2,50,23,49.9,53.8c0,0.7-0.6,1.4-1.4,1.4c0,0-23.5,7.5-22.1,8l21.8,7.5c0.7,0.2,1.1,0.9,1,1.5c-5.7,28.8-31.1,48-57.5,46.2
				C456.8,375.4,434.7,347,437,314.6z"/>
			<path class="st4" d="M438.6,643.8c-3.3-1.8-6.6-3.5-9.8-5c-37.6-17.9-84.9-16.7-123.7-2.8c-22.6,8.1-43.6,22-58.5,41
				c-6.8,8.7-10.9,16.8-13.5,27.4c-0.5,2-4.3,21.1-6.8,20.8c27.2,3.1,54.9,2.3,82.2,2.3h123.8c22.7,0,46.3,0.4,69.2-2.1
				C500.8,690.1,468.7,660.6,438.6,643.8z"/>
			<path class="st2" d="M473.2,145.8c2.8,0.9,5.7,1.4,8.5,2.2c9.8,2.8,19.3,6.4,28.5,10.7c28.2,13.3,52.5,33.4,70.1,59.1
				c41.9-12,56.1-68,38.8-104.3c-15.1-31.8-50.9-49.8-85.4-42.8c-16.6,3.4-31.8,12.2-43,24.9c-6,6.8-10.9,14.7-14.1,23.2
				c-1.4,3.8-2.6,7.7-3.5,11.7c-0.9,3.9-0.6,8.2-1.6,12C470.5,146.3,469.9,144.8,473.2,145.8z"/>
			<path class="st1" d="M469.4,148.2c43.5,7.2,84.8,36.2,109,72.2c0.2,0.2,0.3,0.4,0.5,0.4c0.1,0.1,0.2,0.1,0.2,0.1
				c0.2,0.1,0.5,0.1,0.7,0.1c0.1-0.1,0.2,0.1,0.2,0c47.8-12.8,61.3-77.6,37.8-116.2C593.6,64.8,538.1,54,500.6,82.2
				c-20.3,15.3-31.9,39.2-32.2,64.5C468.3,147.4,468.8,148.1,469.4,148.2z M471.5,142.5c1-3.8,0.7-8.1,1.6-12c0.9-4,2-8,3.5-11.7
				c3.3-8.5,8.1-16.4,14.1-23.2c11.2-12.7,26.4-21.5,43-24.9c34.6-6.9,70.3,11,85.4,42.8c17.3,36.4,3.1,92.3-38.8,104.3
				c-17.6-25.7-41.9-45.8-70.1-59.1c-9.2-4.3-18.8-8-28.5-10.7c-2.8-0.8-5.7-1.3-8.5-2.2C469.9,144.8,470.5,146.3,471.5,142.5z"/>
			<path class="st2" d="M548.6,717.8c-13.5,5.1-27.4,8.1-41.6,10c-0.1,0.1-0.1,0.1-0.2,0.1c-0.3,0.2-1.5,0.2-1.7,0.6
				c-0.4,0.7,3.7,7.6,4.6,8.6c5.9,7.2,17.1,5.4,21.4-2.6c0.5-1,2.2-1,2.7,0c0.6,2,1.9,3.3,3.7,4c4.4,3.5,8,1,10.9-7.5
				c-0.5-1.5,1.5-2.6,2.6-1.5c4.4,4.4,23.5,12.7,22-1.5c-0.7-6.2-7.3-12-12.4-15.4C556.7,714.6,552.7,716.3,548.6,717.8z"/>
			<path class="st1" d="M543.6,331.3c0.1-0.7-0.3-1.4-1-1.5l-21.8-7.5c-1.4-0.4,22.1-8,22.1-8c0.7,0,1.4-0.6,1.4-1.4
				c0.1-30.8-22.2-51.9-49.9-53.8c-29.1-2-55.1,23-57.4,55.5c-2.2,32.4,19.9,60.8,49.1,62.9C512.5,379.3,537.9,360.2,543.6,331.3z
				 M470.2,311.1c-25.2-10.6-8.7-49.8,16.5-39.1C512,282.6,495.4,321.7,470.2,311.1z M492,316.8c10.1,4.3,3.5,19.9-6.6,15.7
				C475.4,328.2,482,312.6,492,316.8z"/>
			<path class="st5" d="M492,316.8c-10.1-4.3-16.7,11.4-6.6,15.7C495.6,336.7,502.2,321.1,492,316.8z"/>
			<path class="st5" d="M486.7,272c-25.2-10.6-41.7,28.5-16.5,39.1C495.4,321.7,512,282.6,486.7,272z"/>
			<path class="st1" d="M428.8,405.2c-1.7-1.2-3.2,1.5-1.6,2.7c8.4,5.8,8.1,16.5,1,23.1c-6.2,5.9-15.3,8.6-23.6,9.3
				c-3.7,0.2-7.6,0.1-11.4-0.5c-1-0.2-2-0.4-3-0.6c-0.4-0.1-0.9-0.2-1.3-0.3c-4.1-1-7.9-2.7-11.4-4.8c-0.4-0.3-0.9-0.6-1.4-0.9
				c-0.6-0.4-1.2-1-1.7-1.4c-0.9-0.7-1.7-1.5-2.5-2.3c-0.4-0.4-0.9-0.9-1.2-1.4c-0.8-1-1.6-2.2-2.3-3.3c-0.2-0.5-0.6-0.9-0.8-1.4
				c-0.8-1.5-1.4-3.2-1.9-4.9c3.8-1.4,7.2-6.6,9.7-9.6c3.8-4.4,10.6-12.2,1.2-15.3c-5.2-0.9-34.3-5.5-29.8,7.5
				c0.9,2.6,3.7,5.1,5.4,7c2.3,2.8,4.6,6.2,7.2,8.6c0.9,0.9,1.9,1.5,2.8,1.8c-0.5,1.7-1.1,3.3-1.9,4.8c-0.2,0.4-0.5,0.9-0.7,1.3
				c-0.7,1.2-1.5,2.3-2.3,3.3c-0.4,0.4-0.7,0.9-1.2,1.4c-0.8,0.8-1.7,1.6-2.6,2.3c-0.6,0.5-1.1,1-1.7,1.4c-0.4,0.2-0.8,0.5-1.2,0.7
				c-3.6,2.3-7.7,4-11.9,5c-0.1,0-0.1,0-0.1,0c-1.4,0.4-2.7,0.6-4.1,0.9c-3.7,0.6-7.5,0.7-11.1,0.4c-7.9-0.7-15.8-3.1-22.1-8.1
				c-8.1-6.4-9.7-17.9-0.5-24.3c1.6-1.2,0.1-3.8-1.5-2.7c-6.6,4.6-10,12.8-7,20.6c3.3,8.5,13,13.6,21.2,15.9
				c6.2,1.8,13.1,2.3,19.9,1.5c4.8,7.5,9.6,15.1,14.3,22.6c3.7,5.9,8,16.8,16.3,16.8c8.3,0,12.6-10.9,16.3-16.8
				c4.8-7.5,9.5-15.1,14.3-22.6c6.8,0.8,13.8,0.3,19.9-1.5c8.3-2.3,18-7.3,21.3-15.9C438.8,417.9,435.3,409.7,428.8,405.2z
				 M360.7,413.6c-3.1-2.9-6.9-7.4-9.2-11.1c-0.2-0.4-1-0.9-1.2-1.4c-2-5.6,5.6-5.5,8.2-5.6c5.7-0.3,11.5,0.1,17.2,1
				c6.5,2.2-4.1,12-5.6,13.6C367.5,413.3,364.9,417.5,360.7,413.6z M380.8,459c-3.1,4.9-9.5,20.4-16.9,20.4
				c-7.2,0-13.4-14.9-16.5-19.8c-3.6-5.7-7.2-11.4-10.8-17c9.6-1.7,18.5-6.3,24.1-13.9c0.2-0.2,0.4-0.6,0.6-0.9c0.7-1,1.3-2,1.9-3.1
				c0.2-0.4,0.4-0.8,0.6-1.2c0.1-0.1,0.1-0.2,0.2-0.4c0.1,0.1,0.1,0.2,0.2,0.4c0.2,0.4,0.4,0.8,0.6,1.2c0.6,1.1,1.2,2.2,1.9,3.1
				c0.2,0.3,0.4,0.6,0.6,0.9c5.5,7.6,14.4,12.2,24,13.9C387.7,448.1,384.2,453.5,380.8,459z"/>
			<path class="st6" d="M367.1,428.7c-0.2-0.2-0.4-0.6-0.6-0.9c-0.7-1-1.3-2-1.9-3.1c-0.2-0.4-0.4-0.8-0.6-1.2
				c-0.1-0.1-0.1-0.2-0.2-0.4c-0.1,0.1-0.1,0.2-0.2,0.4c-0.2,0.4-0.4,0.8-0.6,1.2c-0.6,1.1-1.2,2.2-1.9,3.1
				c-0.2,0.3-0.4,0.6-0.6,0.9c-5.6,7.6-14.4,12.2-24.1,13.9c3.6,5.7,7.2,11.4,10.8,17c3.1,4.9,9.3,19.8,16.5,19.8
				c7.3,0,13.7-15.4,16.9-20.4c3.5-5.5,6.9-10.9,10.4-16.4C381.5,440.8,372.6,436.3,367.1,428.7z"/>
			<path class="st2" d="M370.1,410.2c1.5-1.7,12.2-11.4,5.6-13.6c-5.7-0.9-11.5-1.3-17.2-1c-2.7,0.1-10.2,0.1-8.2,5.6
				c0.2,0.4,0.9,1,1.2,1.4c2.3,3.6,6,8.1,9.2,11.1C364.9,417.5,367.5,413.3,370.1,410.2z"/>
			<path class="st1" d="M289.7,314.3c0.7,0,1.4-0.6,1.4-1.4c0.1-30.8-22.2-51.9-49.9-53.8c-29.2-2-55.1,23-57.4,55.5
				c-2.3,32.4,19.9,60.8,49.1,62.9c26.4,1.9,51.9-17.3,57.5-46.2c0.1-0.7-0.3-1.4-1-1.5l-21.8-7.5
				C266.2,321.8,289.7,314.3,289.7,314.3z M232.2,332.5c-10.1-4.3-3.5-19.9,6.6-15.7C248.9,321.1,242.3,336.7,232.2,332.5z
				 M217,311.1c-25.2-10.6-8.7-49.8,16.5-39.1C258.7,282.6,242.2,321.7,217,311.1z"/>
			<path class="st1" d="M259.5,146.7c-0.7-47.2-41.7-85.2-89.2-80.3c-47.3,4.9-79.2,50.4-70.6,96.6c4.8,25.8,21.5,51.1,47.9,58.1
				c0.1,0.1,0.2-0.1,0.3,0c0.2,0,0.5-0.1,0.7-0.1c0.1-0.1,0.1-0.1,0.2-0.1c0.2-0.1,0.4-0.2,0.5-0.4c24.3-36,65.6-65,109-72.2
				C259.1,148.1,259.5,147.4,259.5,146.7z M257,145.4c-0.9,0.9-4.9,1-6.1,1.4c-8.8,2.2-17.3,5.1-25.6,8.6
				c-31.4,13.1-58.5,34.4-77.7,62.5c-36.9-10.7-52.9-56.9-43.6-91.4c9.3-34.2,41.7-58.2,77-57.2c35,0.9,65.7,26.2,73.5,60.3
				C255.2,132.4,257.7,144.6,257,145.4z"/>
			<path class="st2" d="M181,69.2c-35.4-1-67.8,23-77,57.2c-9.3,34.6,6.7,80.7,43.6,91.4c19.2-28.1,46.4-49.4,77.7-62.5
				c8.3-3.5,16.9-6.4,25.6-8.6c1.2-0.3,5.2-0.5,6.1-1.4c0.7-0.7-1.8-13-2.5-15.9C246.7,95.4,216,70.1,181,69.2z"/>
			<path class="st5" d="M238.8,316.8c-10.1-4.3-16.7,11.4-6.6,15.7C242.3,336.7,248.9,321.1,238.8,316.8z"/>
			<path class="st5" d="M233.5,272c-25.2-10.6-41.7,28.5-16.5,39.1C242.2,321.7,258.7,282.6,233.5,272z"/>
			<path class="st2" d="M217.9,727.4c-16.9-2.5-33.3-6.7-48.5-14.3c-1-0.3-2.2-0.6-3.2-0.9c-5.2,3.1-12.4,9.3-13.1,15.7
				c-1.5,14.1,17.6,5.9,22,1.5c1-1,3.1,0,2.6,1.5c2.9,8.5,6.5,11,10.9,7.5c1.9-0.7,3.1-2,3.8-4c0.5-1,2.2-1,2.7,0
				c4.7,8.6,17.5,9.9,22.8,0.9c0.7-1.1,3.5-6.6,3.1-7c-0.2-0.3-1.5-0.4-1.9-0.6C218.7,727.6,218.3,727.5,217.9,727.4z"/>
			<path class="st3" d="M128.8,567.3c6.7-21.2,14.4-42.2,18.2-64.1c-17.9-1.4-35.6-4.9-52.3-11.5c-7.3-2.9-15.2-6.2-21.5-11.1
				c-0.7,0.2-1.4,0.4-2.2,0.6c-1,1.7-2.3,3.2-3.8,4.6c-8,7-16.4,12.7-25.7,14.1c21.4,30.6,51.6,54,86.7,66.7
				C128.5,566.8,128.6,567,128.8,567.3z"/>
			<path class="st2" d="M70.6,453c-2.3-6.4-7.2-13.4-14.4-14.2c-9.6-1.1-11.7,7.2-11.9,14.8c-0.1,1.5-2.1,2.1-2.9,0.8
				c-7.6-12-25.8-1.5-16.9,9.9c1,1.2,0.1,2.9-1.5,2.6c-9.1-1.9-13.8,7.1-11.5,14.7c1.6,5.1,5.7,8.8,10.2,11.4
				c5.8,3.4,12.5,4.9,19.3,4.2C50.9,496,57.8,490,65,483.6C73.5,475.3,74.5,463.8,70.6,453z"/>
		</g>
		<path class="st7" d="M118.2,138.4c0.1-29.3,14.9-52.6,38.6-65.9c-25.2,7.6-45.9,27.8-53,54c-9.3,34.6,6.7,80.7,43.5,91.4
			c1.6-2.3,3.3-4.5,5-6.7C132.9,191.5,118.1,166.9,118.2,138.4z"/>
	</g>
</g>
</svg>
