<?xml version="1.0" encoding="utf-8"?>
<!-- Generator: Adobe Illustrator 24.1.1, SVG Export Plug-In . SVG Version: 6.00 Build 0)  -->
<svg version="1.1" id="Lager_1" xmlns="http://www.w3.org/2000/svg" xmlns:xlink="http://www.w3.org/1999/xlink" x="0px" y="0px"
	 viewBox="0 0 751.8 768.9" style="enable-background:new 0 0 751.8 768.9;" xml:space="preserve">
<style type="text/css">
	.st0{fill:#1D1D1B;}
	.st1{fill:#FEFCF0;}
	.st2{fill:#C6C6C5;}
	.st3{fill:#F7BEC7;}
	.st4{fill:#FFFFFF;}
	.st5{fill:#EB5E69;}
	.st6{fill:#EAE6C1;}
</style>
<g>
	<g>
		<g>
			<path class="st0" d="M34.3,365.5c30.2-4.2,60.8-1.2,90.7,4.6c-1.6,11.8-1.7,23.7-0.4,35.4c-19.9-1-39.9-1-59.8,0.2
				c-1.9,0.1-1.9,3.1,0,3c20.1-1.2,40.2-1.2,60.2-0.2c1.7,12.2,5,24.2,10,35.6c-17.1,1.6-34.2,4-51.1,7.3c-1.8,0.4-1.1,3.2,0.8,2.9
				c17-3.3,34.3-5.7,51.6-7.3c3.2,6.9,7,13.7,11.5,20.1c3.9,5.7,8.4,11,13.1,16c2.6,3.8,1.5,10.6,1.2,14.9
				c-0.5,6.6-1.4,13.1-2.4,19.6c-2.4,16.3-4.5,32.4-7.6,48.6c-6.1,31.7-9.7,65.6,0.6,96.8c10,30.4,33.3,54.4,63,66.2
				c5.9,2.3,11.9,4.2,18,5.6c-5.2,6.3-12.8,19.9-6,25.9c6.5,5.7,16.7-0.7,22-6.7c2.6,8.5,15.6,7.4,19.2-1.1
				c4.7,3.7,11.1,4.6,16.7,1.9c6.1-2.9,8.3-8.7,8.4-14.8c33.4-0.2,66.8-0.5,100.1-0.8c14.6-0.1,29.2-0.2,43.8-0.4
				c8.4-0.1,16.8,0.2,25.1,0.5c0,6.4,2.1,12.5,8.4,15.4c5.6,2.7,12.1,1.8,16.7-1.9c3.6,8.5,16.6,9.6,19.1,1.1
				c5.3,6,15.7,12.4,22.1,6.7c6.8-6.2-0.9-19.8-6.1-26c16.5-4.8,32.5-13,44.3-25.8c12.2-13.1,18.7-30.2,21.1-47.8
				c5.9-43.2-11.7-84.7-13.4-127.5c9.6-5.8,18.6-12.8,26.4-21.2c2-2.1,3.8-4.3,5.6-6.5c16,5.7,31.7,12.1,47.1,19.4
				c1.7,0.8,3.3-1.7,1.5-2.6c-15.3-7.2-30.9-13.6-46.7-19.2c7.5-9.9,13.5-20.8,18-32.3c19.4,3.9,38.7,8.7,57.6,14.8
				c1.8,0.6,2.6-2.3,0.8-2.9c-18.8-6.1-38-10.9-57.3-14.8c2.5-6.9,4.5-14,5.9-21.3c0.8-4.4,1.5-8.8,1.9-13.2
				c30.5,1.7,60.9,6.3,89.3,17.8c1.8,0.7,2.6-2.1,0.8-2.9c-28.5-11.6-59.2-16.2-89.9-17.9c2.3-28.3-3.2-56.7-9-84.3
				c-3.9-18.4-7.9-36.8-10-55.5c-0.2-1.8-1.2-9.1-1.4-9.1c1.1-1.1,6.7-2,8.1-2.6c5.8-2.1,11.5-4.6,16.9-7.6
				c47.4-26,71.9-83,57.3-135.2C683.9,85.5,636,49.2,582.8,49.7c-57.2,0.5-105.3,43.1-115.3,98.5c-1.8-4.4-4.1-8.5-8.5-10.9
				c-6.7-3.5-13.7-1.9-19.5,1.8c2.1-7,0.8-14.8-6.4-18.7c-7.8-4.2-14.4,0.5-19.2,6.5c2-16.1-0.4-35-20.3-37.1
				c-27.7-2.7-16.6,39.7-35.3,48.3c1.4-5.9,0.8-13.3,0.5-19c-0.4-8-1.7-16.1-3.7-23.9c-4-15.3-11.1-29.7-20.7-42.2
				c-19.9-25.9-50.1-42.5-82.6-45.6c-70-6.8-132.2,52.4-129.4,122.5c1.6,40.3,24.3,77,58.9,97.5c-14.6,43.2-41.8,81.6-53.1,126
				c-1.1,4.5-2,9-2.7,13.6c-30.4-5.8-61.3-8.9-91.9-4.6C31.6,362.9,32.5,365.8,34.3,365.5z M290.7,744.5
				c-2.7,9.6-14.8,11.7-21.4,4.8c-0.7-0.8-2.3-0.5-2.5,0.7c-0.1,2-0.9,3.6-2.5,4.6c-3.2,4.3-7.2,2.9-12-4.3c0.1-1.5-2-2-2.7-0.8
				c-2.4,4.2-17.9,17.8-20.9,5c-1.5-6.2,4.3-14.7,8.3-18.9c0.2,0,0.4,0,0.5,0c17.2,3.7,34.9,4.6,52.4,4.5c0.5,0,0.9,0,1.4,0
				C291,742,290.8,744.2,290.7,744.5z M528.5,754.5c-2.9,12.5-18.4-0.8-20.8-5c-0.7-1.2-2.9-0.7-2.8,0.8c-4.8,7.2-8.8,8.7-12,4.3
				c-1.6-1.1-2.4-2.6-2.5-4.6c-0.2-1.1-1.7-1.4-2.5-0.7c-5.9,6.4-16.8,5.2-20.6-2.9c-0.2-0.6-1.1-4.4-1.7-6.9
				c18.1,0.6,35.9,0.7,54-3.9c0.2,0,0.4,0,0.5,0C524.2,739.8,530,748.3,528.5,754.5z M128.2,370.7c11,2.2,22,4.8,32.9,7.5
				c39,9.9,77,24.1,112,44c1.7,1,3.1-1.7,1.5-2.6c-36.1-20.6-75.1-35-115.3-45c-10.1-2.6-20.4-4.9-30.6-6.9
				c4.4-26,15.4-51.1,27.1-75.1c10.5-21.6,21.4-42.9,28.9-65.8c0.3-1-0.5-1.7-1.4-1.8c-0.2,0-0.3-0.1-0.5-0.1
				c-29.8-17.7-50.8-47.8-56.1-82.2c-5.2-33.8,5.3-68.8,28.2-94.1C199-0.4,277.3-2.7,323.5,45c11.9,12.4,21.1,27.4,26.5,43.7
				c2.9,8.6,4.8,17.6,5.5,26.6c0.7,7.4,2,18.1-0.8,25.1c-0.4,1.1,0.8,2.1,1.8,1.8c16-4.1,15.4-24.5,20.7-36.9
				c2.7-6.4,6.7-12.4,14.4-12.3c5.3,0,10.7,2.3,14.4,6.1c8.6,8.9,6.1,22.6,4,33.4c-0.3,1.7,1.8,2.6,2.7,1.2
				c4-6.1,10.5-14.8,18.9-10.5c7.8,4,6.8,13.6,3,20c-0.9,1.5,1.1,2.9,2.3,1.8c6.7-6.2,18.4-10.1,24.9-1.2c2.2,3,3.4,6.9,4.8,10.3
				c0.7,1.6,2.7,1.3,2.9-0.4c8.9-66.6,73.9-112.7,139.8-98.1c67.4,15,107.1,89,82.6,153.5c-6.4,16.9-16.8,32.1-30.1,44.3
				c-6.8,6.2-14.4,11.6-22.5,16c-4,2.2-8.1,4.2-12.4,5.8c-3.3,1.3-8.6,4.2-12.1,3.8c-0.8-0.1-1.5,0.7-1.5,1.5
				c3.4,46.9,21.3,92,20.7,139.3c-0.1,3.7-0.4,7.4-0.7,11c-9.5-0.5-19-0.7-28.5-0.8c-42.5-0.4-85,4-126,15.3c-1.8,0.5-1,3.3,0.8,2.9
				c40.7-11.2,83-15.6,125.2-15.2c9.4,0.1,18.8,0.4,28.3,0.8c-1.2,11.7-4,23.1-8,34c-44.2-8.6-89.4-11.6-134.5-8.7
				c-1.9,0.1-1.9,3.1,0,3c44.7-3,89.6,0.1,133.5,8.6c-4.5,11.4-10.5,22.1-18.1,31.8c-40-14-81.6-23.3-124-27.3c-1.9-0.2-1.8,2.8,0,3
				c41.7,3.9,82.6,13,122,26.7c-4.1,5-8.5,9.9-13.5,14.2c-16.7,14.6-37,23.8-58.3,29.2c-1.8,0.5-1.1,3.3,0.8,2.9
				c13.7-3.1,27-8.5,39.3-15.1c1.9,36.9,15.2,72.5,14.5,109.6c-0.3,17.6-3.8,35.6-13.2,50.7c-9.8,15.7-25.5,26.6-42.6,33
				c-29.9,11.2-60.5,7.1-91.6,6.8c-12.4-0.1-24.9,0.2-37.3,0.3c-35.5,0.3-71,0.6-106.5,0.9c-19.3,0.2-38.7-0.2-57.7-4.3
				c-34.1-7.4-63.8-28-78.5-60.3c-16.2-35.9-10.1-76-3-113.3c3-15.6,4.8-31.3,6.9-47c0.9-6.2,3.4-16.4,2.2-24.2
				c8.8,8.6,19.2,16,30.4,21c1.7,0.8,3.2-1.7,1.5-2.6c-25.8-12.6-45.9-34.2-58-59.8c41.2-3.6,82.8-2.3,123.8,4
				c1.8,0.3,2.7-2.6,0.8-2.9c-41.8-6.5-84-7.7-126-4c-4-8.9-7-18.2-9-27.9c-0.5-2.4-1-4.9-1.3-7.4c44.5,2.6,88.6,10.6,131.2,24.5
				c1.8,0.6,2.6-2.3,0.8-2.9c-42.9-13.9-87.4-22-132.3-24.5C126,393.9,126.4,382.2,128.2,370.7z"/>
			<path class="st1" d="M259.8,430.3c1.8,0.6,1,3.5-0.8,2.9c-42.6-13.8-86.7-21.9-131.2-24.5c0.4,2.4,0.8,4.9,1.3,7.4
				c2,9.6,5,18.9,9,27.9c41.9-3.7,84.2-2.5,126,4c1.9,0.3,1.1,3.1-0.8,2.9c-41-6.4-82.6-7.6-123.8-4c12.2,25.6,32.3,47.2,58,59.8
				c1.7,0.8,0.2,3.3-1.5,2.6c-11.1-5-21.6-12.4-30.4-21c1.2,7.8-1.3,17.9-2.2,24.2c-2.1,15.7-3.9,31.4-6.9,47
				c-7.1,37.2-13.2,77.4,3,113.3c14.7,32.4,44.4,52.9,78.5,60.3c19,4.1,38.4,4.5,57.7,4.3c35.5-0.3,71-0.6,106.5-0.9
				c12.4-0.1,24.9-0.4,37.3-0.3c31.1,0.3,61.7,4.3,91.6-6.8c17.2-6.4,32.8-17.3,42.6-33c9.4-15.1,12.9-33.1,13.2-50.7
				c0.7-37.1-12.6-72.7-14.5-109.6c-12.4,6.7-25.7,12.1-39.3,15.1c-1.8,0.5-2.6-2.4-0.8-2.9c21.3-5.3,41.6-14.6,58.3-29.2
				c5-4.3,9.4-9.1,13.5-14.2c-39.4-13.7-80.3-22.8-122-26.7c-1.8-0.2-1.9-3.1,0-3c42.4,4,83.9,13.2,124,27.3
				c7.5-9.7,13.5-20.4,18.1-31.8c-43.9-8.5-88.7-11.5-133.5-8.6c-1.9,0.1-1.9-2.9,0-3c45.1-3,90.3,0.1,134.5,8.7
				c4-10.9,6.8-22.3,8-34c-9.4-0.5-18.9-0.7-28.3-0.8c-42.2-0.4-84.5,4-125.2,15.2c-1.8,0.5-2.7-2.4-0.8-2.9
				c41-11.3,83.6-15.7,126-15.3c9.4,0.1,18.9,0.4,28.5,0.8c0.4-3.7,0.7-7.4,0.7-11c0.6-47.3-17.3-92.4-20.7-139.3
				c-0.1-0.8,0.7-1.6,1.5-1.5c3.6,0.4,8.9-2.5,12.1-3.8c4.2-1.7,8.4-3.6,12.4-5.8c8.1-4.5,15.7-9.9,22.5-16
				c13.3-12.2,23.7-27.4,30.1-44.3c24.5-64.5-15.1-138.5-82.6-153.5C543.5,40.9,478.5,87,469.6,153.6c-0.2,1.7-2.3,2-2.9,0.4
				c-1.4-3.4-2.6-7.3-4.8-10.3c-6.5-8.9-18.2-5-24.9,1.2c-1.2,1.1-3.2-0.3-2.3-1.8c3.8-6.4,4.8-16-3-20c-8.4-4.3-14.9,4.4-18.9,10.5
				c-1,1.4-3,0.5-2.7-1.2c2.1-10.8,4.6-24.5-4-33.4c-3.7-3.8-9.1-6.1-14.4-6.1c-7.7-0.1-11.7,5.9-14.4,12.3
				c-5.2,12.5-4.6,32.8-20.7,36.9c-1,0.3-2.3-0.7-1.8-1.8c2.9-7,1.5-17.6,0.8-25.1c-0.8-9-2.6-18-5.5-26.6
				c-5.4-16.3-14.6-31.3-26.5-43.7C277.3-2.7,199-0.4,154.8,48.7c-22.9,25.4-33.4,60.3-28.2,94.1c5.3,34.5,26.3,64.5,56.1,82.2
				c0.2,0,0.3,0.1,0.5,0.1c0.9,0.1,1.7,0.8,1.4,1.8c-7.5,22.8-18.4,44.2-28.9,65.8c-11.8,24.1-22.7,49.1-27.1,75.1
				c10.3,2,20.6,4.4,30.6,6.9c40.2,10,79.3,24.4,115.3,45c1.7,0.9,0.2,3.5-1.5,2.6c-35-20-73-34.1-112-44
				c-10.9-2.7-21.9-5.3-32.9-7.5c-1.7,11.5-2.1,23.1-0.7,35C172.3,408.2,216.8,416.4,259.8,430.3z M549.3,122.6
				c39.5-21.4,90.4-3.7,108.2,37.5c17,39.4-3.5,99-50.1,105.5c-0.1,0-0.2-0.1-0.2-0.1c-0.6,0.1-1.1,0-1.5-0.7
				c-18.8-37.2-54.8-69.9-95.4-82c-0.8-0.2-1.1-1-1-1.8C512.7,156.4,527.3,134.5,549.3,122.6z M459.3,337.8
				c6.1-30.7,33.7-51.6,61.4-46.2c26.2,5.2,45,27.9,41.3,57.3c-0.1,0.7-0.8,1.2-1.4,1.1c0,0-23.4,4.4-22.1,5l20,9.7
				c0.6,0.3,0.9,1,0.7,1.7c-2.7,8-6.9,15-12.2,20.7c-6.3-2.1-45.2-17.8-83.3-12.2C458.6,364,456.8,351,459.3,337.8z M440.7,542.2
				c-15.2-0.9-29.3-6-41.6-15c-1.4,8.1-6.4,15.6-14.2,19.7c-1.6,0.8-3.4,1.3-5.3,1.8c11.8,19,28.3,34.2,48.2,44.4
				c1.7,0.9,0.2,3.4-1.5,2.6c-20.7-10.6-37.8-26.6-49.9-46.4c-1.5,0.2-2.9,0.2-4.4,0.2c-1.6,0.1-3.1,0-4.7-0.2
				c-12,19.9-29.1,35.9-49.9,46.4c-1.7,0.9-3.2-1.7-1.5-2.6c20-10.2,36.5-25.4,48.3-44.5c-1.8-0.5-3.5-1-5-1.7
				c-7.8-4.1-12.9-11.6-14.3-19.8c-12.3,9.1-26.6,14.3-41.9,15.1c-1.9,0.1-1.9-2.9,0-3c15.2-0.9,29.3-6.2,41.4-15.4
				c0.1,0,0.1,0,0.1-0.1c-0.2-5.7,1.5-11.5,5.5-16.4c4.1-5.1,12.3-10.3,19.2-8.6c1.1,0.2,2.1,0.7,2.9,1.3c1-0.7,2.1-1.3,3.7-1.5
				c6.7-1,14.3,3.8,18.2,8.8c4,4.9,5.6,10.8,5.4,16.6c12.1,9.1,26.1,14.4,41.3,15.3C442.6,539.3,442.6,542.3,440.7,542.2z
				 M333.8,443.8c4.3,1.1,9,1.5,13.6,1.3c2.6-0.2,5.1-0.5,7.5-1c0.2,0,0.4-0.1,0.6-0.1c1.4-0.3,2.7-0.7,4-1.2
				c0.2-0.1,0.4-0.2,0.7-0.2c1.8-0.7,3.5-1.5,5.1-2.5c0.9-0.6,1.8-1.1,2.7-1.8c0.5-0.4,1-0.8,1.5-1.3c1-0.8,1.8-1.7,2.6-2.7
				c0.4-0.4,0.7-0.8,1.1-1.3c1-1.4,1.8-3,2.6-4.7c-0.9-0.4-1.8-1-2.6-2c-2.1-2.4-3.6-5.6-5.3-8.3c-1.5-2.3-4.1-5.2-4.8-8
				c-3.2-13.1,24.2-5.3,29.2-3.9c0.1,0.1,0.1,0.1,0.2,0.2c0.1,0,0.1-0.1,0.2,0c8.9,4.3,0.1,11.3-3.9,15c-2.7,2.4-6.2,6.5-9.7,7.3
				c0.2,1.4,0.5,2.7,0.9,3.9c0.1,0.4,0.2,0.7,0.3,1c1,2.7,2.4,5.2,4.1,7.2c0.1,0.1,0.1,0.1,0.1,0.2c4.7,5.7,11.8,9.4,19.2,11.5
				c0,0,0,0,0.1,0c3.9,1.1,8,1.6,11.9,1.6c7.6,0.1,15.7-1.7,22-6.2c7.8-5.6,8.7-15.7,1.4-22.2c-1.4-1.3,0.7-3.4,2.1-2.1
				c5.7,5.2,7.8,13.6,4,20.6c-4.2,7.6-14,11.2-22,12.5c-6.2,0.9-12.9,0.6-19.4-1c-16.2,18.7-47.2,14.8-58.3-7.2
				c-6.5-0.1-13-1.4-18.8-3.7c-7.6-3.1-16.3-9-18.5-17.5c-2-7.7,2.1-15.3,8.9-18.9c1.7-0.9,3.2,1.7,1.5,2.6
				c-9.1,4.8-9.9,15.4-3.3,22.7C319.8,438.6,326.8,442.1,333.8,443.8z M195.8,213.9c-0.1,0-0.1,0-0.1,0.1c-0.2,0.2-0.4,0.2-0.7,0.2
				c-0.2,0.1-0.3,0.1-0.5,0.1c-0.1,0-0.1,0-0.2,0c-23.3-9.4-36.1-33.4-38.7-57.5c-4.9-45.8,30.6-87.6,77.3-87.6
				c46.3,0.1,82,41.5,77,87.1c-0.1,0.8-0.7,1.4-1.5,1.5C266.1,159.5,223.2,182.5,195.8,213.9z M222.6,346.3
				c-5.6-11.2-7.7-24.8-5-38.5c6-30.7,33.7-51.6,61.3-46.1c26.3,5.1,45,27.9,41.3,57.3c-0.1,0.7-0.7,1.2-1.4,1.1c0,0-23.4,4.5-22,5
				l19.9,9.7c0.6,0.2,0.9,1,0.7,1.6c-2.7,8.4-7.2,15.6-12.8,21.4c-0.5-0.1-1-0.3-1.4-0.4C287.6,353.4,259.4,341.3,222.6,346.3z"/>
			<path class="st2" d="M444.9,188.7c-26.4,20.5-50.9,48.7-64.7,79.3c-15.3,33.9-14.2,72.6,10.8,101.4c34,39.2,93.3,41.6,140.8,32.7
				c32.8-6.1,66.6-16.8,100.3-12.9c-4.6-36.4-16.1-72-18.8-108.7c-0.1-0.8,0.7-1.6,1.5-1.5c3.6,0.4,8.9-2.5,12.1-3.8
				c4.2-1.7,8.4-3.6,12.4-5.8c8.1-4.5,15.7-9.9,22.5-16c13.3-12.2,23.7-27.4,30.1-44.3c24.5-64.5-15.1-138.5-82.6-153.5
				C543.5,40.9,478.5,87,469.6,153.6C467.6,168.6,457.1,179.2,444.9,188.7z M549.3,122.6c39.5-21.4,90.4-3.7,108.2,37.5
				c17,39.4-3.5,99-50.1,105.5c-0.1,0-0.2-0.1-0.2-0.1c-0.6,0.1-1.1,0-1.5-0.7c-18.8-37.2-54.8-69.9-95.4-82c-0.8-0.2-1.1-1-1-1.8
				C512.7,156.4,527.3,134.5,549.3,122.6z M459.3,337.8c6.1-30.7,33.7-51.6,61.4-46.2c26.2,5.2,45,27.9,41.3,57.3
				c-0.1,0.7-0.8,1.2-1.4,1.1c0,0-23.4,4.4-22.1,5l20,9.7c0.6,0.3,0.9,1,0.7,1.7c-2.7,8-6.9,15-12.2,20.7
				c-6.3-2.1-45.2-17.8-83.3-12.2C458.6,364,456.8,351,459.3,337.8z"/>
			<path class="st0" d="M510.3,182.9c40.6,12.1,76.6,44.8,95.4,82c0.4,0.7,0.9,0.8,1.5,0.7c0.1,0,0.1,0.1,0.2,0.1
				c46.6-6.5,67.2-66,50.1-105.5c-17.8-41.2-68.7-58.9-108.2-37.5c-22,11.9-36.6,33.8-40,58.4C509.2,181.9,509.5,182.7,510.3,182.9z
				 M601.4,117.8c43.3,9,68.7,54.2,56,96.1c-7.1,23.2-24.8,44.6-49.6,48.6c-19.1-37.1-54.9-69.6-95.4-82
				C519,138.6,559.2,109,601.4,117.8z"/>
			<path class="st3" d="M607.8,262.5c24.8-4,42.5-25.5,49.6-48.6c12.8-41.9-12.7-87.1-56-96.1c-42.2-8.7-82.4,20.8-89,62.7
				C552.8,193,588.7,225.4,607.8,262.5z"/>
			<path class="st0" d="M547,387.2c5.3-5.7,9.5-12.7,12.2-20.7c0.2-0.7-0.1-1.4-0.7-1.7l-20-9.7c-1.3-0.6,22.1-5,22.1-5
				c0.7,0.1,1.3-0.4,1.4-1.1c3.7-29.4-15.1-52.2-41.3-57.3c-27.6-5.4-55.3,15.4-61.4,46.2c-2.6,13.2-0.8,26.2,4.3,37.1
				C501.8,369.4,540.7,385.1,547,387.2z M503.5,360.7c-9.1-5.2-1-19.4,8.1-14.1C520.8,351.8,512.6,365.9,503.5,360.7z M511.9,303.1
				c22.8,13.1,2.4,48.5-20.4,35.4C468.7,325.4,489.2,290,511.9,303.1z"/>
			<path class="st3" d="M519.6,735.6c-18.1,4.6-35.9,4.5-54,3.9c0.6,2.6,1.4,6.4,1.7,6.9c3.7,8.1,14.6,9.2,20.6,2.9
				c0.8-0.8,2.3-0.5,2.5,0.7c0.1,2,0.9,3.6,2.5,4.6c3.2,4.3,7.2,2.9,12-4.3c-0.1-1.5,2.1-2,2.8-0.8c2.4,4.2,17.9,17.5,20.8,5
				c1.5-6.2-4.3-14.7-8.3-18.9C520,735.6,519.8,735.6,519.6,735.6z"/>
			<path class="st4" d="M491.5,338.5c22.8,13.1,43.2-22.3,20.4-35.4C489.2,290,468.7,325.4,491.5,338.5z"/>
			<path class="st4" d="M511.7,346.5c-9.1-5.2-17.3,8.9-8.1,14.1C512.6,365.9,520.8,351.8,511.7,346.5z"/>
			<path class="st0" d="M318.3,410.5c1.7-0.9,0.2-3.4-1.5-2.6c-6.8,3.6-10.9,11.2-8.9,18.9c2.3,8.5,10.9,14.4,18.5,17.5
				c5.8,2.4,12.3,3.7,18.8,3.7c11.1,22,42.1,25.9,58.3,7.2c6.4,1.6,13.1,1.9,19.4,1c8-1.2,17.8-4.9,22-12.5c3.9-6.9,1.7-15.4-4-20.6
				c-1.4-1.2-3.5,0.8-2.1,2.1c7.2,6.5,6.4,16.6-1.4,22.2c-6.2,4.5-14.4,6.3-22,6.2c-3.9,0-8-0.5-11.9-1.6c-0.1,0-0.1,0-0.1,0
				c-7.4-2.1-14.5-5.8-19.2-11.5c-0.1-0.1-0.1-0.1-0.1-0.2c-1.7-2.1-3.1-4.5-4.1-7.2c-0.1-0.4-0.2-0.7-0.3-1
				c-0.4-1.2-0.7-2.5-0.9-3.9c3.6-0.8,7-4.9,9.7-7.3c4-3.7,12.8-10.8,3.9-15c-0.1-0.1-0.1,0-0.2,0c-0.1-0.1-0.1-0.1-0.2-0.2
				c-5-1.4-32.4-9.1-29.2,3.9c0.7,2.8,3.3,5.6,4.8,8c1.7,2.7,3.2,5.8,5.3,8.3c0.8,1.1,1.7,1.7,2.6,2c-0.7,1.7-1.6,3.3-2.6,4.7
				c-0.4,0.5-0.7,0.9-1.1,1.3c-0.8,1-1.6,1.9-2.6,2.7c-0.5,0.5-1,1-1.5,1.3c-0.8,0.7-1.8,1.2-2.7,1.8c-1.6,1-3.3,1.8-5.1,2.5
				c-0.2,0.1-0.5,0.2-0.7,0.2c-1.3,0.5-2.7,0.9-4,1.2c-0.2,0.1-0.4,0.1-0.6,0.1c-2.4,0.5-5,0.8-7.5,1c-4.6,0.2-9.3-0.2-13.6-1.3
				c-6.9-1.7-14-5.2-18.8-10.6C308.4,425.9,309.2,415.4,318.3,410.5z M374.5,422.9c-2.6-3.2-5.8-7.8-7.5-11.6c-2-4.6,4.4-5.6,8-5.4
				c5.5,0.4,10.9,1.5,16.2,3c5.8,3-4.8,10.3-6.3,11.8C381.5,423.6,378.3,427.7,374.5,422.9z M372.9,437.7c0.3-0.3,0.5-0.6,0.8-1
				c0.7-0.8,1.4-1.7,2-2.6c0.2-0.4,0.5-0.8,0.8-1.2c0.1-0.1,0.1-0.1,0.2-0.2c0,0.1,0.1,0.2,0.1,0.2c0.2,0.5,0.4,1,0.5,1.4
				c0.4,1,0.8,2,1.3,3c0.2,0.4,0.4,0.8,0.6,1.2c4.4,7.8,12.2,13.2,21.1,16c-14.8,15.4-41.1,12.2-51.7-6.4
				C357.8,447.5,366.8,444.3,372.9,437.7z"/>
			<path class="st0" d="M440.7,539.2c-15.1-0.9-29.2-6.2-41.3-15.3c0.2-5.8-1.4-11.6-5.4-16.6c-3.9-5-11.5-9.7-18.2-8.8
				c-1.5,0.2-2.7,0.8-3.7,1.5c-0.8-0.6-1.8-1.1-2.9-1.3c-6.9-1.7-15.1,3.4-19.2,8.6c-3.9,4.9-5.6,10.7-5.5,16.4
				c0,0.1-0.1,0.1-0.1,0.1c-12.1,9.2-26.2,14.6-41.4,15.4c-1.9,0.1-1.9,3.1,0,3c15.3-0.9,29.6-6.1,41.9-15.1
				c1.3,8.2,6.4,15.7,14.3,19.8c1.5,0.7,3.3,1.2,5,1.7c-11.8,19.1-28.3,34.3-48.3,44.5c-1.7,0.9-0.2,3.4,1.5,2.6
				c20.8-10.6,37.9-26.6,49.9-46.4c1.5,0.2,3.1,0.2,4.7,0.2c1.5,0.1,2.9,0,4.4-0.2c12.1,19.9,29.2,35.9,49.9,46.4
				c1.7,0.9,3.2-1.7,1.5-2.6c-20-10.2-36.5-25.4-48.2-44.4c1.8-0.5,3.7-1,5.3-1.8c7.8-4,12.8-11.5,14.2-19.7
				c12.3,9,26.4,14.1,41.6,15C442.6,542.3,442.6,539.3,440.7,539.2z M355.1,540.3c-6.3-5.9-9.1-14.6-6.7-23.3
				c1.5-5.2,4.8-9.8,9.4-12.6c1.8-1.1,4.1-2.3,6.2-2.5c2.6-0.3,4.5,0.1,5.8,1c-1.7,3.4-1.4,8.3,0,12.3c-4.8-2.2-10.3-3.3-14.1,1.2
				c-3.7,4.5-0.7,9.2,2.9,12.6C354.4,530.9,353.2,535.9,355.1,540.3z M383.4,544.3c-1.8,0.8-3.9,1.4-5.9,1.8
				c-0.4-0.1-0.8-0.1-1.2,0.2c-2.7,0.4-5.5,0.2-8.2-0.4c-1.8-0.4-3.7-1.1-5.3-2c-3.3-1.8-10.1-12-1.2-12.8c1.1-0.1,2.1-1.6,1-2.5
				c-2.1-1.8-10.4-8.3-3.2-11.5c4.4-2,9.2,0.5,12.9,2.7c1.2,0.8,2.9-0.8,2-2c-1.1-1.5-2-3.3-2.5-5.1c-1.3-5.3-0.5-7.1,4.2-9
				c4.4-1.8,5.3-1.9,9.5,0.4c5,2.8,8.6,7.4,10.2,12.9C398.8,528,393.4,539.1,383.4,544.3z"/>
			<path class="st3" d="M385.5,504c-4.2-2.3-5.1-2.3-9.5-0.4c-4.7,2-5.5,3.7-4.2,9c0.5,1.8,1.4,3.6,2.5,5.1c0.8,1.2-0.8,2.8-2,2
				c-3.7-2.1-8.5-4.7-12.9-2.7c-7.2,3.2,1.1,9.7,3.2,11.5c1.1,0.9,0.1,2.4-1,2.5c-8.9,0.8-2.1,11,1.2,12.8c1.7,0.9,3.6,1.5,5.3,2
				c2.7,0.7,5.5,0.8,8.2,0.4c0.4-0.2,0.8-0.3,1.2-0.2c2-0.4,4-1,5.9-1.8c10-5.2,15.4-16.3,12.3-27.4
				C394.1,511.4,390.6,506.8,385.5,504z"/>
			<path class="st3" d="M384.8,420.6c1.5-1.4,12.1-8.7,6.3-11.8c-5.3-1.5-10.6-2.6-16.2-3c-3.6-0.2-9.9,0.8-8,5.4
				c1.7,3.8,4.9,8.4,7.5,11.6C378.3,427.7,381.5,423.6,384.8,420.6z"/>
			<path class="st5" d="M400.2,454.6c-8.9-2.9-16.7-8.2-21.1-16c-0.2-0.4-0.4-0.8-0.6-1.2c-0.5-1-0.9-2-1.3-3
				c-0.1-0.5-0.3-1-0.5-1.4c0-0.1-0.1-0.1-0.1-0.2c-0.1,0.1-0.1,0.2-0.2,0.2c-0.2,0.4-0.5,0.8-0.8,1.2c-0.7,0.9-1.3,1.8-2,2.6
				c-0.3,0.4-0.5,0.7-0.8,1c-6.2,6.6-15.1,9.9-24.4,10.5C359.1,466.8,385.4,470,400.2,454.6z"/>
			<path class="st3" d="M358.6,528.9c-3.6-3.4-6.7-8.1-2.9-12.6c3.7-4.6,9.3-3.4,14.1-1.2c-1.4-4-1.7-8.9,0-12.3
				c-1.3-0.8-3.1-1.2-5.8-1c-2.1,0.2-4.4,1.4-6.2,2.5c-4.7,2.8-8,7.4-9.4,12.6c-2.4,8.8,0.4,17.5,6.7,23.3
				C353.2,535.9,354.4,530.9,358.6,528.9z"/>
			<path class="st0" d="M304.5,357.9c5.6-5.9,10.1-13.1,12.8-21.4c0.2-0.7-0.1-1.4-0.7-1.6l-19.9-9.7c-1.4-0.6,22-5,22-5
				c0.7,0.1,1.4-0.4,1.4-1.1c3.7-29.3-15-52.2-41.3-57.3c-27.6-5.5-55.3,15.4-61.3,46.1c-2.7,13.8-0.7,27.3,5,38.5
				c36.8-4.9,65,7.1,80.5,11.2C303.6,357.6,304,357.7,304.5,357.9z M261.7,330.6c-9.1-5.3-1-19.4,8.1-14.2
				C279,321.7,270.8,335.8,261.7,330.6z M249.7,308.4c-22.8-13.1-2.4-48.5,20.4-35.4C292.9,286.1,272.5,321.5,249.7,308.4z"/>
			<path class="st0" d="M309.9,156.3c5-45.6-30.7-87-77-87.1c-46.7-0.1-82.1,41.8-77.3,87.6c2.6,24.1,15.4,48.1,38.7,57.5
				c0.1,0,0.1,0,0.2,0c0.2,0.1,0.3,0,0.5-0.1c0.3,0,0.5-0.1,0.7-0.2c0.1-0.1,0.1-0.1,0.1-0.1c27.4-31.5,70.3-54.4,112.6-56.1
				C309.3,157.8,309.8,157.2,309.9,156.3z M302.2,155.4c-8.4,1-16.6,2.7-24.8,4.9c-32,8.7-61.1,26-83,50.8
				c-33.1-14.1-43.2-58.7-31.6-90.2c12.1-32.7,46.6-53.1,81.1-47.9c33.5,5.1,60.2,33,63.3,66.8c0.3,3.4,0.4,6.8,0.2,10.2
				c-0.1,1.2-0.1,4.8,0.5,4.8C306.8,155.6,303.3,155.3,302.2,155.4z"/>
			<path class="st3" d="M307.4,150.1c0.2-3.4,0.1-6.8-0.2-10.2c-3.1-33.8-29.8-61.7-63.3-66.8c-34.5-5.2-69,15.2-81.1,47.9
				c-11.6,31.5-1.5,76.1,31.6,90.2c22-24.9,51.1-42.2,83-50.8c8.1-2.2,16.4-3.9,24.8-4.9c1.1-0.1,4.5,0.2,5.6-0.5
				C307.3,154.9,307.4,151.3,307.4,150.1z"/>
			<path class="st3" d="M237.4,735.6c-0.1,0-0.3,0-0.5,0c-4,4.2-9.8,12.7-8.3,18.9c3,12.8,18.5-0.9,20.9-5c0.7-1.2,2.9-0.7,2.7,0.8
				c4.8,7.2,8.8,8.7,12,4.3c1.6-1.1,2.4-2.6,2.5-4.6c0.2-1.1,1.8-1.4,2.5-0.7c6.5,6.9,18.7,4.8,21.4-4.8c0.1-0.2,0.3-2.4,0.6-4.3
				c-0.5,0-0.9,0-1.4,0C272.4,740.3,254.6,739.4,237.4,735.6z"/>
			<path class="st4" d="M270.1,273c-22.7-13.1-43.2,22.3-20.4,35.4S292.9,286.1,270.1,273z"/>
			<path class="st4" d="M269.9,316.4c-9.1-5.2-17.3,8.9-8.1,14.2C270.8,335.8,279,321.7,269.9,316.4z"/>
		</g>
		<path class="st6" d="M444.9,188.7c-26.4,20.5-50.9,48.7-64.7,79.3c-15.3,33.9-14.2,72.6,10.8,101.4c34,39.2,93.3,41.6,140.8,32.7
			c32.8-6.1,66.6-16.8,100.3-12.9c-4.6-36.4-16.1-72-18.8-108.7c-0.1-0.8,0.7-1.6,1.5-1.5c3.6,0.4,8.9-2.5,12.1-3.8
			c4.2-1.7,8.4-3.6,12.4-5.8c8.1-4.5,15.7-9.9,22.5-16c13.3-12.2,23.7-27.4,30.1-44.3c24.5-64.5-15.1-138.5-82.6-153.5
			C543.5,40.9,478.5,87,469.6,153.6C467.6,168.6,457.1,179.2,444.9,188.7z M549.3,122.6c39.5-21.4,90.4-3.7,108.2,37.5
			c17,39.4-3.5,99-50.1,105.5c-0.1,0-0.2-0.1-0.2-0.1c-0.6,0.1-1.1,0-1.5-0.7c-18.8-37.2-54.8-69.9-95.4-82c-0.8-0.2-1.1-1-1-1.8
			C512.7,156.4,527.3,134.5,549.3,122.6z M459.3,337.8c6.1-30.7,33.7-51.6,61.4-46.2c26.2,5.2,45,27.9,41.3,57.3
			c-0.1,0.7-0.8,1.2-1.4,1.1c0,0-23.4,4.4-22.1,5l20,9.7c0.6,0.3,0.9,1,0.7,1.7c-2.7,8-6.9,15-12.2,20.7
			c-6.3-2.1-45.2-17.8-83.3-12.2C458.6,364,456.8,351,459.3,337.8z"/>
	</g>
</g>
</svg>
