<?xml version="1.0" encoding="utf-8"?>
<!-- Generator: Adobe Illustrator 24.1.1, SVG Export Plug-In . SVG Version: 6.00 Build 0)  -->
<svg version="1.1" id="Lager_1" xmlns="http://www.w3.org/2000/svg" xmlns:xlink="http://www.w3.org/1999/xlink" x="0px" y="0px"
	 viewBox="0 0 751.8 768.9" style="enable-background:new 0 0 751.8 768.9;" xml:space="preserve">
<style type="text/css">
	.st0{fill:#1D1D1B;}
	.st1{fill:#FEFCF0;}
	.st2{fill:#F7BEC7;}
	.st3{fill:#39B7B1;}
	.st4{fill:#FFFFFF;}
	.st5{fill:#EB5E69;}
	.st6{fill:#F29AA7;}
</style>
<g>
	<g>
		<g>
			<path class="st0" d="M739.7,407.1c-31.1-8.4-63.6-9.2-95.8-7.1c-1.1-23.1-6.6-46.2-13.9-68.6c-9-27.5-19.6-54.5-25.4-83
				c5.8-1,12.8-6.2,17.3-9c7.7-4.8,14.9-10.6,21.4-17c12.8-12.7,22.7-28.2,28.9-45.1c12.4-33.9,9.1-72.5-8.9-103.7
				C627.1,10.7,541.4-7.5,483.1,35.7c-30,22.2-48,56.7-49.9,93.6c-2.4-4-5-7.7-9.4-9.7c-7.4-3.3-14.9-0.7-20.7,4.1
				c1.3-7.5-0.9-15.3-8.8-18.4c-8.6-3.5-14.8,2.2-19.1,8.9c0.4-9.5-0.4-19.3-6.6-26.8c-4.9-5.9-12.6-9.2-20.1-8.7
				c-28.2,1.7-11.1,43.5-29.5,54.5c0.6-5.8-0.8-12.5-1.7-17.9c-1.4-9.2-4-18.2-7.5-26.8c-6.2-15.3-15.4-29.2-27.1-40.8
				C257.9,23,223.1,9.7,188,11.9C116.1,16.3,62.5,83.7,73.9,154.7c6.6,41.6,35,77,73.5,93.7c-9.7,47.1-33.1,90.7-38.9,138.7
				c-0.5,4.3-0.8,8.6-0.9,12.9c-32-2.2-64.4-1.3-95.4,7.1c-1.9,0.5-1.1,3.5,0.8,3c30.7-8.2,62.8-9.1,94.5-6.9
				c-0.1,12.4,1.3,24.8,4.3,36.6c-20.8,1.5-41.5,4.1-62,8c-2,0.4-1.1,3.3,0.8,3c20.6-3.9,41.2-6.4,62-7.9
				c3.3,12.4,8.4,24.4,14.9,35.5c-17.5,3.8-34.7,8.5-51.8,14.1c-1.9,0.6-1.1,3.7,0.8,3c17.3-5.6,34.9-10.3,52.7-14.2
				c4.5,7.1,9.5,13.9,15.2,20.3c4.4,4.8,9.2,9.3,14.2,13.4c-5,29.3-17.1,57-24.3,85.7c-0.1,0.1-0.1,0.1-0.1,0.1
				c-7.9,28.4-9.7,61.9,5.2,88.5c5.1,9.1,12,16.7,19.9,23.2c0.1,0.1,0.2,0.2,0.4,0.4c1.2,0.9,2.4,1.9,3.6,2.8
				c2.2,1.7,4.5,3.3,6.9,4.8c0.2,0.1,0.4,0.2,0.6,0.3c1.4,0.9,2.9,1.7,4.3,2.5c-6.8,4.6-18.7,16.6-13.6,24.7
				c4.8,7.7,17.1,4,24.1-0.6c0.3,9.2,13.7,11.6,19.6,4c3.7,4.8,9.7,7.4,15.8,6.4c8.6-1.4,12.4-8.7,13.7-16.5
				c20.9,2.5,42.4,2.5,63.1,2.5c4.7,0,9.4,0,14.2,0c11.3,0,22.7,0,34,0c22.1,0,44.2,0,66.2,0c5,0,9.9,0,14.9,0
				c7.2,0,14.5,0,21.7,0.1c22,0.1,44.6,0.2,66.5-2.3c1.4,7.7,5.2,14.9,13.7,16.3c6.2,0.9,12.2-1.6,15.8-6.4
				c5.9,7.6,19.3,5.2,19.6-4.1c7,4.6,19.6,8.5,24.1,0.7c4.6-7.8-5.4-18.6-12.4-23.8c0.9-0.4,1.8-1,2.7-1.5c0.4-0.2,0.7-0.4,1.1-0.6
				c5.7-3.3,11.1-7.2,16.1-11.6c0.2-0.1,0.3-0.2,0.4-0.4c1.3-1.1,2.5-2.3,3.7-3.5c0.6-0.5,1.1-1,1.5-1.5c0.8-0.8,1.6-1.7,2.4-2.6
				c0.6-0.7,1.3-1.4,1.9-2.2c0.1-0.1,0.2-0.3,0.4-0.5c0.1-0.1,0.2-0.2,0.3-0.4c0.9-1.2,1.7-2.4,2.6-3.6c0.4-0.5,0.7-1,1.1-1.5
				c2.6-4,4.8-8.2,6.7-12.4c0-0.1,0.1-0.2,0.1-0.4c0.8-1.9,1.5-3.9,2.2-5.9c0.2-0.6,0.4-1.2,0.6-1.9c0.4-1.4,0.8-2.8,1.2-4.2
				c0.3-1.2,0.6-2.5,0.9-3.7c0.1-0.7,0.3-1.3,0.4-2c1.1-5.6,1.7-11.3,1.9-17.1c0.4-12.1-1-23.9-3.4-35.5c0-0.1-0.1-0.2-0.1-0.2
				c-0.1-0.4-0.2-0.8-0.2-1.2c-0.4-1.7-0.7-3.3-1.1-5c-0.1-0.3-0.1-0.6-0.2-0.8c-0.2-1-0.4-2-0.7-3c0-0.1-0.1-0.1-0.1-0.1
				c-7.4-29-19.6-57.2-24.5-86.7c11.6-9.2,21.6-20.1,29.6-32.7c17.3,3.8,34.5,8.5,51.5,14c1.9,0.7,2.7-2.4,0.9-3
				c-16.7-5.4-33.6-10-50.7-13.8c3.2-5.4,6.1-11.1,8.6-17.1c2.5-6.2,4.4-12.4,5.9-18.6c20.5,1.5,41,4,61.3,7.9c2,0.4,2.8-2.6,0.9-3
				c-20.4-3.8-40.9-6.4-61.5-7.9c2.7-12.2,3.7-24.5,3.3-36.7c31.9-2.2,64.1-1.4,94.9,6.9C740.8,410.5,741.6,407.6,739.7,407.1z
				 M229.3,748.6c-5.3,9-18.1,7.8-22.8-0.9c-0.5-0.9-2.2-1.1-2.7,0c-0.6,2-1.9,3.4-3.8,4.1c-4.4,3.5-8,0.9-10.9-7.6
				c0.5-1.5-1.5-2.5-2.6-1.5c-4.4,4.4-23.5,12.6-22-1.5c0.7-6.4,7.9-12.6,13.1-15.8c1.1,0.3,2.2,0.6,3.2,1
				c15.3,7.5,31.8,11.8,48.7,14.2c0.4,0.2,0.7,0.3,1.1,0.5c0.3,0.2,1.7,0.2,1.9,0.6C232.8,742,230,747.5,229.3,748.6z M344.5,740.7
				c-5.5,0-11.1,0-16.6,0c-22.2,0-44.6,0.8-66.9-0.7c-37.5-2.5-78.7-7.8-106.5-35.9c-21.4-21.5-25.8-52.1-21.9-81.1
				c70.3,7.8,141,12.9,211.8,14.7C344.5,672,344.5,706.3,344.5,740.7z M410.7,658.5c0,27.4,0,54.8,0,82.2c-10.5,0-21,0-31.6,0
				c-7.7,0-15.4,0-23.1,0c-2.2,0-4.7-0.2-6.9,0c-0.2,0-0.9-0.1-1.4-0.1c0.1-2-0.2-4.2-0.2-6c0-6.2,0-12.4,0-18.5
				c0-16.1,0-32.1,0-48.2c0-6.6,0-13.1,0-19.7c0-2.3,0.7-6.8,0.2-9.6c1.5,0.1,3.5-0.2,4.6-0.2c7.2,0,14.3,0,21.4,0
				c7.9,0,15.7,0,23.5,0c3.3,0,9.5,1.2,13.2,0.3c-0.1,1.1,0.1,2.4,0.1,3.1C410.7,647.3,410.7,652.9,410.7,658.5z M585.6,741.1
				c1.5,14.2-17.6,5.9-22,1.5c-1.1-1.1-3.1,0-2.6,1.5c-2.9,8.5-6.6,11.1-11,7.6c-1.9-0.7-3.2-2-3.7-4.1c-0.5-1.1-2.2-0.9-2.7,0
				c-4.3,8-15.5,9.8-21.5,2.7c-0.9-1.1-5.1-8-4.6-8.7c0.1-0.3,1.4-0.3,1.7-0.5c0.1,0,0.1-0.1,0.2-0.1c14.2-1.9,28.2-5,41.7-10
				c3-1.1,5.9-2.4,8.9-3.8c0.2-0.1,0.4-0.2,0.6-0.3c0.9-0.4,1.7-0.8,2.5-1.2C578.3,729,584.9,734.9,585.6,741.1z M620,623.5
				c3.5,26.1,1,53.3-16.2,74.5c-21,26.1-55.1,36-87.1,39.9c-27.1,3.2-53.8,2.8-81,2.8c-7.3,0-14.6,0-22,0c0-34.1,0-68.2,0-102.4
				c0.3,0,0.6,0,0.9,0c56-0.4,112.1-3,167.8-9.5C595.1,627.3,607.6,625.6,620,623.5z M619.6,620.4c-32.1,5.4-64.7,8.5-97.2,10.7
				c-72.6,5.1-145.7,5.2-218.4,2c-57-2.4-114-7-170.7-13.2c0.6-3.2,1.1-6.5,1.8-9.7c0.2-1.4,0.6-2.8,0.9-4.3c0.1-0.5,0.2-1,0.3-1.4
				c-0.2-2.8,0.3-3.5,1.5-2.2c0,0,3.5,0.9,3.8,1c2,0.4,4.1,0.4,6.1,0.7c4,0.4,8,0.8,12.1,1.2c14.6,1.5,29.3,2.9,44,4.2
				c27.2,2.4,54.5,4.3,81.7,5.7c46.1,2.4,92.2,3.4,138.2,2.8c55.9-0.7,112-3.6,167.5-11.1c8.3-1.1,16.6-2.2,24.9-3.8
				C617.5,608.8,618.7,614.6,619.6,620.4z M637.5,439.6c-46.9-3.2-94.2-0.5-140.5,8.4c-2,0.4-1.2,3.3,0.8,3
				c45.8-8.9,92.5-11.5,139-8.4c-3.2,12.4-7.9,24.3-14.4,35.3c-43.2-9.4-87.4-13.6-131.7-12.3c-2,0.1-2,3.2,0,3.1
				c43.7-1.3,87.3,2.8,129.9,12c-3.4,5.4-7.2,10.6-11.6,15.6c-15.5,17.5-35.4,30-57.1,38.4c-1.8,0.7-1.1,3.7,0.8,3
				c13.8-5,26.9-12.3,38.9-20.9c5,28.5,16.7,55.4,23.8,83.3c-5.9,1.1-11.8,2.2-17.8,3c-19.3,2.9-38.9,4.6-58.3,6.3
				c-27.5,2.4-55.1,3.9-82.8,4.8c-46.1,1.5-92.2,1.1-138.2-0.6c-60.4-2.3-120.7-7.1-180.8-13.8c7.2-27.7,18.6-54.6,23.7-82.8
				c1.1,0.9,2.2,1.7,3.3,2.6c10.3,7.9,22.1,14.2,34.4,18c1.9,0.6,2.7-2.4,0.8-3c-13.3-4.6-25.6-11.5-36.5-20c-0.7-0.6-1.4-1.1-2-1.6
				c-0.1,0-0.1,0-0.1,0c-11.3-9.2-21-20.3-29-32.6c42.3-9,85.5-13.1,128.9-11.8c2,0.1,2-3,0-3.1c-44-1.3-87.8,2.8-130.6,12.1
				c-5.1-8.3-9.3-17.1-12.5-26.3c-1-2.9-1.9-5.8-2.7-8.7c46.2-3.2,92.9-0.4,138.6,8.4c1.9,0.4,2.8-2.6,0.8-3
				c-46.2-8.9-93.3-11.6-140.1-8.4c-3-12.1-4.1-24.2-3.8-36.3c10.6,0.8,21.1,1.9,31.6,3.1c42.9,5.1,85.2,15,125.2,31.6
				c1.9,0.7,2.7-2.2,0.9-3c-40.3-16.7-82.9-26.5-126-31.7c-10.4-1.2-20.9-2.3-31.4-3c1.2-26.4,8.7-52.7,17.3-78.2
				c8.4-24.6,17.3-49,22.4-74.5c0.2-1-0.4-2-1.5-2c-0.2,0-0.4,0-0.7,0c-32.3-14.2-57.5-41.5-67.9-75.4c-10.2-33.2-5.3-70,13.2-99.4
				C130.9,12.2,212.6-2.9,268,39c14.8,11.1,26.9,25.8,35.2,42.4c4.2,8.4,7.4,17.4,9.5,26.6c1.8,7.9,4.9,19.6,2.8,27.6
				c-0.3,1.1,0.7,2.4,1.9,1.9c16.2-6.4,13-27.2,16.8-41c2-7.4,5.3-14.1,14.2-14.7c5.9-0.4,12,1.7,16.2,5.9c8.7,8.5,7.8,21.9,7,32.9
				c-0.1,1.5,2.2,2.2,2.9,0.8c3-6,7.1-14.4,15-14.1c10.9,0.4,12.5,13.1,9.1,20.8c-0.7,1.4,1.2,3.3,2.4,1.9
				c6.4-7.6,18.7-13.2,26.4-3.8c2.3,2.8,4,6.3,5.7,9.4c0.7,1.4,2.8,0.7,2.8-0.7c0.6-69.7,61.1-125.8,130.9-119.7
				c70.6,6.1,121.4,74.9,107,144.2c-4.1,19.7-13.2,38.4-26.4,53.7c-6.4,7.6-13.8,14.3-22,20.1c-3.5,2.5-7.2,4.8-11,6.9
				c-3.2,1.7-8.4,5.5-12,5.5c-1.1,0-1.7,1-1.5,2c9.3,47,32.9,90.4,38.9,138.2c0.6,4.8,1,9.6,1.2,14.4c-10.7,0.8-21.3,1.9-31.8,3.1
				c-43.2,5.2-85.8,15-126,31.7c-1.8,0.8-1,3.8,0.8,3c40-16.6,82.3-26.5,125.2-31.6c10.5-1.2,21.2-2.4,31.9-3.1
				C641.5,415.5,640.2,427.7,637.5,439.6z"/>
			<path class="st1" d="M484.2,438c-1.8,0.7-2.6-2.2-0.8-3c40.2-16.7,82.8-26.5,126-31.7c10.5-1.2,21.1-2.3,31.8-3.1
				c-0.2-4.8-0.6-9.7-1.2-14.4c-6.1-47.8-29.7-91.2-38.9-138.2c-0.2-1,0.4-2,1.5-2c3.7,0,8.8-3.8,12-5.5c3.8-2.1,7.4-4.5,11-6.9
				c8.2-5.8,15.5-12.5,22-20.1c13.2-15.3,22.3-33.9,26.4-53.7c14.4-69.3-36.4-138-107-144.2c-69.8-6.1-130.3,50-130.9,119.7
				c0,1.5-2.1,2.1-2.8,0.7c-1.7-3.1-3.4-6.6-5.7-9.4c-7.7-9.4-20-3.8-26.4,3.8c-1.2,1.5-3.1-0.4-2.4-1.9c3.4-7.7,1.8-20.4-9.1-20.8
				c-7.9-0.2-12,8.1-15,14.1c-0.7,1.4-3,0.7-2.9-0.8c0.8-11,1.7-24.5-7-32.9c-4.2-4.1-10.3-6.3-16.2-5.9
				c-8.9,0.6-12.1,7.3-14.2,14.7c-3.8,13.7-0.6,34.6-16.8,41c-1.1,0.4-2.2-0.9-1.9-1.9c2.1-8-1-19.7-2.8-27.6
				c-2.1-9.2-5.3-18.2-9.5-26.6C294.9,64.8,282.8,50.1,268,39C212.6-2.9,130.9,12.2,93.9,70.8c-18.5,29.3-23.5,66.2-13.2,99.4
				c10.4,33.9,35.6,61.2,67.9,75.4c0.2,0,0.4,0,0.7,0c1.1,0,1.7,1,1.5,2c-5.1,25.5-14.1,49.9-22.4,74.5
				c-8.7,25.5-16.2,51.8-17.3,78.2c10.5,0.7,21,1.8,31.4,3c43.1,5.2,85.7,15,126,31.7c1.8,0.8,1,3.8-0.9,3
				c-39.9-16.6-82.3-26.5-125.2-31.6c-10.5-1.2-21-2.3-31.6-3.1c-0.3,12.1,0.9,24.2,3.8,36.3c46.8-3.2,93.9-0.5,140.1,8.4
				c2,0.4,1.1,3.3-0.8,3c-45.7-8.8-92.4-11.5-138.6-8.4c0.7,2.9,1.7,5.8,2.7,8.7c3.2,9.2,7.4,18,12.5,26.3
				c42.8-9.2,86.7-13.4,130.6-12.1c2,0.1,2,3.2,0,3.1c-43.4-1.3-86.6,2.8-128.9,11.8c7.9,12.3,17.6,23.4,29,32.6c0,0,0,0,0.1,0
				c0.6,0.6,1.3,1.1,2,1.6c11,8.5,23.2,15.4,36.5,20c1.9,0.6,1.1,3.6-0.8,3c-12.3-3.8-24.1-10.2-34.4-18c-1.1-0.9-2.2-1.7-3.3-2.6
				c-5.1,28.2-16.5,55.1-23.7,82.8c60.1,6.7,120.4,11.5,180.8,13.8c46,1.7,92.1,2.1,138.2,0.6c27.7-0.9,55.2-2.4,82.8-4.8
				c19.4-1.7,39-3.4,58.3-6.3c5.9-0.9,11.9-1.9,17.8-3c-7.2-27.9-18.8-54.8-23.8-83.3c-11.9,8.5-25.1,15.8-38.9,20.9
				c-1.9,0.7-2.6-2.3-0.8-3c21.7-8.4,41.6-20.9,57.1-38.4c4.3-5,8.2-10.2,11.6-15.6c-42.6-9.2-86.2-13.3-129.9-12c-2,0.1-2-3,0-3.1
				c44.3-1.3,88.5,2.9,131.7,12.3c6.5-11,11.3-22.9,14.4-35.3c-46.4-3.2-93.2-0.5-139,8.4c-2,0.4-2.8-2.6-0.8-3
				c46.4-8.9,93.6-11.6,140.5-8.4c2.7-11.8,4-24.1,3.8-36.3c-10.7,0.7-21.4,1.9-31.9,3.1C566.5,411.5,524.2,421.4,484.2,438z
				 M512.9,93.7c37.6-28.4,93.3-17.6,117.7,22.7c23.6,38.8,10,103.7-37.9,116.6c-0.1,0-0.1-0.1-0.2-0.1c-0.2,0-0.5,0-0.7-0.1
				c-0.1,0-0.2,0-0.2-0.1c-0.2-0.1-0.3-0.2-0.5-0.5c-24.3-36-65.7-65.2-109.3-72.4c-0.6-0.1-1.1-0.9-1.1-1.5
				C480.9,133,492.5,109,512.9,93.7z M449.1,326.6c2.3-32.6,28.3-57.6,57.5-55.6c27.8,1.9,50.1,23.1,50.1,53.9
				c0,0.7-0.6,1.4-1.4,1.4c0,0-23.6,7.6-22.2,8l21.9,7.5c0.7,0.2,1.1,0.9,1,1.6c-5.7,28.8-31.2,48.1-57.7,46.2
				C469.1,387.6,446.9,359.2,449.1,326.6z M160.7,232.2c-0.1,0.2-0.3,0.4-0.5,0.5c-0.1,0.1-0.1,0.1-0.2,0.1
				c-0.2,0.1-0.5,0.1-0.7,0.1c-0.1,0-0.2,0.1-0.3,0.1c-26.4-7.1-43.2-32.4-48-58.3c-8.6-46.2,23.4-91.9,70.8-96.8
				c47.6-5,88.8,33.1,89.5,80.4c0,0.7-0.5,1.4-1.2,1.5C226.5,167,185.1,196.2,160.7,232.2z M244.4,389.7
				c-29.3-2-51.5-30.5-49.2-63.1s28.2-57.6,57.5-55.6c27.8,1.9,50.1,23.1,50.1,53.9c0,0.7-0.6,1.4-1.4,1.4c0,0-23.6,7.6-22.2,8
				l21.9,7.5c0.7,0.2,1.1,0.9,1,1.6C296.4,372.3,270.9,391.5,244.4,389.7z M347.6,586.6c4,4.6,4.4,11.5,0.3,16.7
				c-6.3,8-17.5,7.7-26.1,4.1c-5.2-2.1-9.6-5.4-13.2-9.5c-0.1,0-0.1,0.1-0.1,0.1c-38.4,4.9-77.3-2.5-111.4-20.9
				c-1.7-0.9-0.2-3.6,1.5-2.7c32.9,17.8,70.4,24.9,107.5,20.6c-1.4-2-2.7-4.3-3.7-6.7c-2.8-7.1-2.6-14.5-2.6-22
				c0.1-2.7,0.7-5.2,1.6-7.7c-6-0.7-11.7-2.2-17.3-4.5c-1.8-0.7-1-3.8,0.8-3c5.5,2.3,11.1,3.8,17,4.5c0.2,0.1,0.3,0.2,0.4,0.2
				c5.1-11.2,17-19.2,29.7-19.3c6.4,0,13,2.7,15.8,8.7c3.1,6.4,0.2,11.7-4,16.3c5.9,0.5,11.6,4.1,12.8,10.5
				C358.1,579,353.6,584.7,347.6,586.6z M384.2,466.1c-2.9,2.1-4.2,4.3-8.3,4.3c-4.1,0-5.4-2.2-8.3-4.3c-1.9-1.4-4.5-2.2-6.6-3.2
				c-5.1-2.5-10.2-5-15.3-7.4c-7,0.9-14.2,0.4-20.6-1.4c-8.3-2.4-18-7.4-21.3-15.9c-3-7.8,0.4-16,7-20.7c1.6-1.1,3.2,1.5,1.5,2.7
				c-9.2,6.5-7.7,18,0.5,24.5c6.3,5,14.2,7.4,22.2,8c3.7,0.3,7.4,0.1,11.1-0.4c1.4-0.2,2.7-0.5,4.1-0.8c0.1,0,0.1,0,0.1,0
				c4.3-1.1,8.4-2.8,11.9-5c0.4-0.3,0.9-0.5,1.2-0.8c0.6-0.4,1.2-0.9,1.7-1.4c0.9-0.8,1.8-1.5,2.6-2.4c0.4-0.4,0.8-0.9,1.2-1.3
				c0.9-1.1,1.7-2.2,2.4-3.4c0.2-0.4,0.6-0.8,0.7-1.3c0.8-1.5,1.4-3.1,1.9-4.8c-0.9-0.3-1.9-0.8-2.8-1.7c-2.7-2.5-4.9-5.8-7.2-8.7
				c-1.7-2-4.5-4.5-5.4-7.1c-4.6-13.1,24.6-8.4,29.8-7.6c9.4,3.2,2.5,11-1.2,15.4c-2.5,3-5.9,8.2-9.7,9.5c0.5,1.8,1.1,3.4,1.9,5
				c0.2,0.5,0.6,0.9,0.8,1.4c0.7,1.2,1.5,2.3,2.3,3.3c0.4,0.5,0.8,1,1.2,1.4c0.8,0.8,1.7,1.5,2.5,2.3c0.6,0.5,1.1,1,1.7,1.4
				c0.5,0.3,1,0.6,1.4,0.9c3.5,2.2,7.3,3.7,11.4,4.8c0.4,0.1,0.9,0.2,1.3,0.3c1,0.2,2,0.4,3,0.6c3.8,0.6,7.7,0.8,11.4,0.5
				c8.4-0.6,17.5-3.4,23.7-9.2c7.1-6.7,7.4-17.4-1.1-23.3c-1.6-1.1-0.1-3.8,1.6-2.7c6.6,4.6,10,12.9,7,20.7
				c-3.3,8.5-13.1,13.6-21.4,15.9c-6.4,1.8-13.6,2.3-20.5,1.4c-5.1,2.5-10.2,5-15.4,7.4C388.7,463.9,386.1,464.7,384.2,466.1z
				 M553,574.5c1.8-0.9,3.3,1.7,1.6,2.7c-34.1,18.4-73,25.8-111.4,20.9c0,0,0-0.1-0.1-0.1c-3.6,4.1-8,7.4-13.2,9.5
				c-8.6,3.5-20,3.8-26.2-4.3c-4-5.2-3.5-11.9,0.4-16.6c-6-1.9-10.5-7.6-9.3-14.3c1.1-6.4,6.8-10,12.8-10.5c-4.2-4.6-7.1-9.9-4-16.3
				c2.8-6,9.5-8.7,15.9-8.7c12.6,0.1,24.6,8,29.7,19.3c0.2-0.1,0.2-0.2,0.5-0.2c5.9-0.7,11.5-2.2,17-4.5c1.9-0.7,2.7,2.3,0.9,3
				c-5.6,2.3-11.3,3.7-17.3,4.5c0.8,2.5,1.5,5,1.5,7.7c0,7.6,0.3,15-2.6,22.2c-1,2.4-2.2,4.5-3.6,6.5
				C482.7,599.4,520.1,592.3,553,574.5z"/>
			<path class="st2" d="M485.5,157.4c2.8,0.9,5.7,1.4,8.5,2.1c9.8,2.8,19.4,6.5,28.6,10.8c28.3,13.2,52.7,33.5,70.3,59.2
				c42-12.1,56.2-68.2,38.9-104.6c-15.2-31.9-51-50-85.7-43c-16.7,3.3-31.9,12.2-43.1,24.9c-6,6.9-10.9,14.8-14.2,23.3
				c-1.4,3.8-2.6,7.8-3.5,11.8c-0.9,4-0.6,8.3-1.6,12.1C482.8,157.8,482.2,156.4,485.5,157.4z"/>
			<path class="st0" d="M481.7,159.8c43.6,7.2,85,36.3,109.3,72.4c0.2,0.2,0.3,0.4,0.5,0.5c0.1,0.1,0.2,0.1,0.2,0.1
				c0.2,0.1,0.5,0.1,0.7,0.1c0.1,0,0.2,0.1,0.2,0.1c47.9-12.9,61.5-77.9,37.9-116.6c-24.5-40.2-80.1-51.1-117.7-22.7
				c-20.4,15.4-32,39.3-32.3,64.6C480.6,158.9,481.1,159.7,481.7,159.8z M483.8,154c1-3.8,0.7-8.1,1.6-12.1c0.9-4,2-7.9,3.5-11.8
				c3.3-8.5,8.2-16.4,14.2-23.3c11.2-12.7,26.4-21.5,43.1-24.9c34.7-7,70.5,11.1,85.7,43c17.3,36.5,3.1,92.5-38.9,104.6
				c-17.6-25.8-42-46-70.3-59.2c-9.2-4.3-18.8-8-28.6-10.8c-2.8-0.7-5.8-1.2-8.5-2.1C482.2,156.4,482.8,157.8,483.8,154z"/>
			<path class="st1" d="M414.7,638.3c-0.3,0-0.6,0-0.9,0c0,34.2,0,68.3,0,102.4c7.4,0,14.7,0,22,0c27.2,0,53.9,0.4,81-2.8
				c32-3.8,66.1-13.7,87.1-39.9c17.1-21.2,19.7-48.4,16.2-74.5c-12.4,2.1-24.9,3.8-37.5,5.3C526.8,635.2,470.7,637.8,414.7,638.3z"
				/>
			<path class="st3" d="M423.8,618c-46.1,0.6-92.2-0.4-138.2-2.8c-27.2-1.4-54.5-3.3-81.7-5.7c-14.7-1.3-29.3-2.7-44-4.2
				c-4-0.4-8-0.8-12.1-1.2c-2-0.2-4.1-0.3-6.1-0.7c-0.4-0.1-3.8-1-3.8-1c-1.2-1.4-1.7-0.7-1.5,2.2c-0.1,0.4-0.2,0.9-0.3,1.4
				c-0.3,1.4-0.7,2.8-0.9,4.3c-0.7,3.2-1.2,6.5-1.8,9.7c56.8,6.3,113.7,10.8,170.7,13.2c72.7,3.2,145.8,3,218.4-2
				c32.5-2.2,65.1-5.3,97.2-10.7c-0.9-5.9-2.1-11.6-3.5-17.4c-8.3,1.6-16.6,2.7-24.9,3.8C535.8,614.4,479.7,617.2,423.8,618z"/>
			<path class="st2" d="M570.6,726.9c-0.2,0.1-0.4,0.2-0.6,0.3c-3,1.4-5.9,2.7-8.9,3.8c-13.5,5.1-27.5,8.1-41.7,10
				c-0.1,0-0.1,0.1-0.2,0.1c-0.3,0.2-1.5,0.2-1.7,0.5c-0.4,0.7,3.7,7.6,4.6,8.7c5.9,7.2,17.1,5.3,21.5-2.7c0.5-0.9,2.2-1.1,2.7,0
				c0.6,2,1.9,3.4,3.7,4.1c4.4,3.5,8,0.9,11-7.6c-0.5-1.5,1.5-2.5,2.6-1.5c4.4,4.4,23.5,12.6,22-1.5c-0.7-6.2-7.3-12.1-12.4-15.4
				C572.3,726.1,571.5,726.5,570.6,726.9z"/>
			<path class="st0" d="M498.4,389.7c26.5,1.9,52-17.4,57.7-46.2c0.1-0.7-0.3-1.4-1-1.6l-21.9-7.5c-1.4-0.4,22.2-8,22.2-8
				c0.7,0,1.4-0.6,1.4-1.4c0.1-30.8-22.3-52-50.1-53.9c-29.2-2-55.2,23-57.5,55.6C446.9,359.2,469.1,387.6,498.4,389.7z
				 M497.7,344.5c-10.1-4.3-3.5-19.9,6.6-15.7C514.5,333.1,507.9,348.8,497.7,344.5z M499,283.9c25.3,10.6,8.7,49.9-16.5,39.2
				C457.3,312.5,473.8,273.3,499,283.9z"/>
			<path class="st0" d="M445.6,595.1c1.4-2,2.6-4.1,3.6-6.5c2.9-7.2,2.6-14.6,2.6-22.2c-0.1-2.7-0.7-5.2-1.5-7.7
				c5.9-0.7,11.7-2.2,17.3-4.5c1.8-0.7,1-3.8-0.9-3c-5.4,2.3-11.1,3.8-17,4.5c-0.2,0.1-0.3,0.2-0.5,0.2c-5.1-11.2-17-19.2-29.7-19.3
				c-6.4,0-13.1,2.7-15.9,8.7c-3,6.4-0.2,11.7,4,16.3c-5.9,0.5-11.6,4.1-12.8,10.5c-1.2,6.7,3.3,12.4,9.3,14.3
				c-3.9,4.6-4.4,11.4-0.4,16.6c6.3,8.1,17.6,7.8,26.2,4.3c5.1-2.1,9.6-5.4,13.2-9.5c0.1,0,0.1,0.1,0.1,0.1
				c38.4,4.9,77.3-2.5,111.4-20.9c1.7-0.9,0.2-3.6-1.6-2.7C520.1,592.3,482.7,599.4,445.6,595.1z M441.2,595.9
				c-4.2,5-10.3,8.5-16.7,10.2c-5.3,1.4-11.1,1.1-15.6-2.2c-5.4-4-7.1-12.3-0.9-16.8c1.2-0.9,0.8-2.7-0.8-2.8
				c-14.6-1.1-10.3-21.6,3.7-19.3c1.4,0.2,2.7-1.4,1.5-2.5c-6.1-5.7-9.9-13.7-2-20c5.1-4.1,13.7-2.4,19.1-0.1
				c10.6,4.3,18.6,12.5,19.1,24.3C448.7,577.1,448.5,587.3,441.2,595.9z"/>
			<path class="st4" d="M504.4,328.9c-10.1-4.3-16.7,11.4-6.6,15.7C507.9,348.8,514.5,333.1,504.4,328.9z"/>
			<path class="st4" d="M482.5,323.1c25.3,10.6,41.8-28.6,16.5-39.2C473.8,273.3,457.3,312.5,482.5,323.1z"/>
			<path class="st0" d="M426.6,454c8.3-2.4,18-7.4,21.4-15.9c3-7.8-0.4-16-7-20.7c-1.7-1.1-3.2,1.5-1.6,2.7
				c8.4,5.9,8.2,16.5,1.1,23.3c-6.2,5.8-15.4,8.6-23.7,9.2c-3.7,0.3-7.6,0.1-11.4-0.5c-1.1-0.2-2-0.4-3-0.6
				c-0.4-0.1-0.9-0.2-1.3-0.3c-4.1-1.1-7.9-2.6-11.4-4.8c-0.4-0.2-0.9-0.6-1.4-0.9c-0.6-0.4-1.2-0.9-1.7-1.4
				c-0.9-0.7-1.7-1.5-2.5-2.3c-0.4-0.4-0.9-0.9-1.2-1.4c-0.8-1-1.6-2.1-2.3-3.3c-0.2-0.4-0.6-0.9-0.8-1.4c-0.8-1.5-1.4-3.2-1.9-5
				c3.8-1.4,7.2-6.6,9.7-9.5c3.8-4.5,10.6-12.3,1.2-15.4c-5.3-0.8-34.4-5.4-29.8,7.6c0.9,2.6,3.7,5,5.4,7.1c2.4,2.8,4.6,6.1,7.2,8.7
				c0.9,0.9,1.9,1.4,2.8,1.7c-0.5,1.7-1.1,3.3-1.9,4.8c-0.2,0.5-0.5,0.9-0.7,1.3c-0.7,1.2-1.5,2.4-2.4,3.4c-0.4,0.4-0.7,0.9-1.2,1.3
				c-0.8,0.9-1.7,1.6-2.6,2.4c-0.6,0.4-1.1,0.9-1.7,1.4c-0.4,0.3-0.8,0.5-1.2,0.8c-3.6,2.2-7.7,3.9-11.9,5c-0.1,0-0.1,0-0.1,0
				c-1.4,0.3-2.7,0.6-4.1,0.8c-3.7,0.6-7.5,0.7-11.1,0.4c-7.9-0.6-15.8-3.1-22.2-8c-8.2-6.4-9.7-18-0.5-24.5
				c1.6-1.1,0.1-3.8-1.5-2.7c-6.6,4.6-10,12.9-7,20.7c3.3,8.5,13,13.6,21.3,15.9c6.4,1.8,13.6,2.3,20.6,1.4c5.1,2.5,10.2,5,15.3,7.4
				c2,1.1,4.7,1.9,6.6,3.2c2.9,2.1,4.2,4.3,8.3,4.3c4.1,0,5.4-2.2,8.3-4.3c1.9-1.4,4.5-2.2,6.5-3.2c5.1-2.5,10.2-5,15.4-7.4
				C413,456.3,420.2,455.8,426.6,454z M372.6,425.9c-3.2-2.9-6.9-7.4-9.2-11.1c-0.2-0.4-1-0.9-1.2-1.4c-2-5.5,5.6-5.4,8.2-5.6
				c5.8-0.3,11.5,0.1,17.3,1c6.6,2.2-4.1,12-5.6,13.7C379.5,425.6,376.9,429.8,372.6,425.9z M391.8,458.9c-2.5,1.2-5.4,2.2-7.7,3.8
				c-2.5,1.5-5.3,4.6-8.2,4.6c-2.8,0-5.8-3-8.2-4.6c-2.4-1.5-5.2-2.5-7.7-3.8c-3.1-1.5-6.1-3-9.2-4.5c8.7-2,16.7-6.4,21.8-13.4
				c0.2-0.3,0.4-0.6,0.6-0.9c0.7-1.1,1.3-2.1,1.9-3.2c0.2-0.4,0.4-0.8,0.6-1.2c0.1-0.1,0.1-0.2,0.2-0.3c0.1,0.1,0.1,0.2,0.2,0.3
				c0.2,0.4,0.4,0.9,0.6,1.2c0.6,1.1,1.2,2.2,1.9,3.2c0.2,0.2,0.4,0.6,0.6,0.8c5.1,7.1,13.1,11.5,21.8,13.5
				C397.8,456,394.8,457.5,391.8,458.9z"/>
			<path class="st2" d="M429.5,542.1c-5.4-2.2-14-4-19.1,0.1c-7.9,6.3-4.1,14.3,2,20c1.2,1.1-0.1,2.8-1.5,2.5
				c-14-2.3-18.3,18.3-3.7,19.3c1.6,0.1,2,2,0.8,2.8c-6.3,4.6-4.6,12.8,0.9,16.8c4.5,3.3,10.3,3.7,15.6,2.2
				c6.3-1.7,12.4-5.2,16.7-10.2c7.3-8.5,7.4-18.8,7.4-29.4C448.2,554.6,440.1,546.4,429.5,542.1z"/>
			<path class="st3" d="M397.3,638.4c-7.9,0-15.7,0-23.5,0c-7.1,0-14.2,0-21.4,0c-1.1,0-3.2,0.3-4.6,0.2c0.6,2.8-0.2,7.3-0.2,9.6
				c0,6.6,0,13.1,0,19.7c0,16,0,32.1,0,48.2c0,6.1,0,12.3,0,18.5c0,1.8,0.3,4,0.2,6c0.5,0.1,1.1,0.1,1.4,0.1c2.2-0.2,4.7,0,6.9,0
				c7.7,0,15.4,0,23.1,0c10.5,0,21,0,31.6,0c0-27.4,0-54.8,0-82.2c0-5.6,0-11.1,0-16.7c0-0.7-0.2-2-0.1-3.1
				C406.9,639.6,400.6,638.4,397.3,638.4z"/>
			<path class="st5" d="M379.1,441c-0.2-0.2-0.4-0.6-0.6-0.8c-0.7-1.1-1.3-2.1-1.9-3.2c-0.2-0.4-0.4-0.8-0.6-1.2
				c-0.1-0.1-0.1-0.2-0.2-0.3c-0.1,0.1-0.1,0.2-0.2,0.3c-0.2,0.4-0.4,0.9-0.6,1.2c-0.6,1.1-1.2,2.2-1.9,3.2
				c-0.2,0.2-0.4,0.6-0.6,0.9c-5.1,7-13.1,11.4-21.8,13.4c3,1.5,6.1,3,9.2,4.5c2.5,1.2,5.3,2.2,7.7,3.8c2.4,1.5,5.3,4.6,8.2,4.6
				c2.9,0,5.7-3,8.2-4.6c2.3-1.5,5.2-2.6,7.7-3.8c3-1.5,6.1-3,9.2-4.5C392.2,452.4,384.2,448,379.1,441z"/>
			<path class="st2" d="M382.1,422.5c1.5-1.7,12.2-11.5,5.6-13.7c-5.8-0.9-11.5-1.3-17.3-1c-2.7,0.1-10.2,0.1-8.2,5.6
				c0.2,0.5,0.9,1,1.2,1.4c2.3,3.7,6.1,8.2,9.2,11.1C376.9,429.8,379.5,425.6,382.1,422.5z"/>
			<path class="st0" d="M344.2,561.8c4.1-4.6,7.1-9.9,4-16.3c-2.8-6-9.5-8.7-15.8-8.7c-12.7,0.1-24.6,8-29.7,19.3
				c-0.1-0.1-0.2-0.2-0.4-0.2c-5.9-0.7-11.5-2.2-17-4.5c-1.8-0.7-2.6,2.3-0.8,3c5.6,2.3,11.3,3.7,17.3,4.5c-0.9,2.5-1.5,5-1.6,7.7
				c0,7.5-0.2,14.9,2.6,22c0.9,2.4,2.2,4.6,3.7,6.7c-37.1,4.3-74.6-2.8-107.5-20.6c-1.7-0.9-3.3,1.7-1.5,2.7
				c34,18.4,72.9,25.8,111.4,20.9c0.1,0,0.1-0.1,0.1-0.1c3.6,4.1,8,7.4,13.2,9.5c8.5,3.5,19.8,3.8,26.1-4.1
				c4.1-5.2,3.7-12.1-0.3-16.7c6-1.9,10.5-7.6,9.3-14.3C355.8,565.8,350.2,562.3,344.2,561.8z M344.5,584.1c-1.6,0.1-2,2-0.8,2.8
				c5.2,3.8,5.1,11.5,0.6,15.7c-4,3.8-9.7,4.6-14.9,3.7c-7.1-1.2-14.2-5-18.9-10.5c-7.2-8.5-7.4-18.8-7.4-29.4
				c0.6-11.8,8.5-20.1,19.2-24.3c5.4-2.2,11.7-3.4,17.1-0.7c10.9,5.3,6.3,14.9-0.1,20.9c-1.2,1.1,0.1,2.8,1.5,2.5
				C354.9,562.5,359.1,583.1,344.5,584.1z"/>
			<path class="st2" d="M340.9,564.8c-1.4,0.2-2.7-1.4-1.5-2.5c6.4-6,11-15.5,0.1-20.9c-5.4-2.7-11.8-1.4-17.1,0.7
				c-10.6,4.3-18.6,12.5-19.2,24.3c0,10.6,0.2,20.9,7.4,29.4c4.7,5.5,11.8,9.3,18.9,10.5c5.2,0.9,11,0.1,14.9-3.7
				c4.5-4.3,4.6-11.9-0.6-15.7c-1.2-0.9-0.8-2.7,0.8-2.8C359.1,583.1,354.9,562.5,340.9,564.8z"/>
			<path class="st1" d="M154.6,704.1c27.8,28.1,69,33.4,106.5,35.9c22.2,1.5,44.6,0.7,66.9,0.7c5.5,0,11.1,0,16.6,0
				c0-34.4,0-68.7,0-102.9c-70.8-1.8-141.4-6.9-211.8-14.7C128.8,652,133.2,682.5,154.6,704.1z"/>
			<path class="st0" d="M302.1,343.4c0.1-0.7-0.3-1.4-1-1.6l-21.9-7.5c-1.4-0.4,22.2-8,22.2-8c0.7,0,1.4-0.6,1.4-1.4
				c0.1-30.8-22.3-52-50.1-53.9c-29.3-2-55.2,23-57.5,55.6s19.9,61,49.2,63.1C270.9,391.5,296.4,372.3,302.1,343.4z M243.8,344.5
				c-10.1-4.3-3.5-19.9,6.6-15.7C260.5,333.1,253.9,348.8,243.8,344.5z M228.6,323.1c-25.3-10.6-8.7-49.8,16.5-39.2
				C270.4,294.5,253.8,333.8,228.6,323.1z"/>
			<path class="st0" d="M271.2,158.3c-0.7-47.3-41.8-85.4-89.5-80.4c-47.4,5-79.4,50.6-70.8,96.8c4.8,25.9,21.6,51.1,48,58.3
				c0.1,0,0.2-0.1,0.3-0.1c0.2,0,0.5,0,0.7-0.1c0.1,0,0.1,0,0.2-0.1c0.2-0.1,0.4-0.2,0.5-0.5c24.3-36,65.8-65.2,109.3-72.4
				C270.7,159.7,271.2,159,271.2,158.3z M268.6,156.9c-0.9,0.9-4.9,1.1-6.1,1.4c-8.8,2.2-17.4,5.1-25.7,8.7
				c-31.4,13.2-58.7,34.5-77.9,62.6c-37-10.6-53.1-57-43.7-91.6c9.3-34.4,41.8-58.4,77.3-57.4c35.1,0.9,65.9,26.2,73.7,60.4
				C266.8,143.9,269.4,156.2,268.6,156.9z"/>
			<path class="st2" d="M192.4,80.5c-35.5-0.9-68,23.1-77.3,57.4c-9.3,34.7,6.7,81,43.7,91.6c19.3-28.1,46.5-49.5,77.9-62.6
				c8.3-3.5,16.9-6.5,25.7-8.7c1.2-0.3,5.2-0.4,6.1-1.4c0.7-0.7-1.8-13-2.5-16C258.4,106.8,227.5,81.5,192.4,80.5z"/>
			<path class="st4" d="M250.4,328.9c-10.1-4.3-16.7,11.4-6.6,15.7C253.9,348.8,260.5,333.1,250.4,328.9z"/>
			<path class="st4" d="M245.1,283.9c-25.3-10.6-41.8,28.6-16.5,39.2C253.8,333.8,270.4,294.5,245.1,283.9z"/>
			<path class="st2" d="M229.5,740.5c-16.9-2.4-33.4-6.7-48.7-14.2c-1.1-0.4-2.2-0.7-3.2-1c-5.3,3.2-12.4,9.3-13.1,15.8
				c-1.5,14.2,17.6,5.9,22,1.5c1.1-1.1,3.1,0,2.6,1.5c2.9,8.5,6.5,11.1,10.9,7.6c1.9-0.7,3.2-2,3.8-4.1c0.5-1.1,2.2-0.9,2.7,0
				c4.7,8.7,17.6,10,22.8,0.9c0.7-1.1,3.5-6.6,3.2-7c-0.2-0.4-1.5-0.4-1.9-0.6C230.3,740.8,229.9,740.7,229.5,740.5z"/>
		</g>
		<g>
			<path class="st6" d="M129.7,149.9c0.1-29.3,15-52.7,38.7-66.1c-25.3,7.6-46,27.8-53.2,54.1c-9.3,34.7,6.7,81,43.6,91.7
				c1.6-2.3,3.3-4.5,5-6.7C144.4,203.1,129.6,178.5,129.7,149.9z"/>
			<path class="st6" d="M622.4,149.9c-0.1-29.3-15-52.7-38.7-66.1c25.3,7.6,46,27.8,53.2,54.1c9.3,34.7-6,80.7-43.8,91.6
				c-1.6-2.3-3.1-4.4-4.8-6.6C607.6,203.1,622.5,178.5,622.4,149.9z"/>
		</g>
	</g>
</g>
</svg>
