<?xml version="1.0" encoding="utf-8"?>
<!-- Generator: Adobe Illustrator 24.1.1, SVG Export Plug-In . SVG Version: 6.00 Build 0)  -->
<svg version="1.1" id="Lager_1" xmlns="http://www.w3.org/2000/svg" xmlns:xlink="http://www.w3.org/1999/xlink" x="0px" y="0px"
	 viewBox="0 0 751.8 768.9" style="enable-background:new 0 0 751.8 768.9;" xml:space="preserve">
<style type="text/css">
	.st0{fill:none;}
	.st1{fill:#737185;}
	.st2{fill:#FEF9DF;}
	.st3{fill:#F7BEC7;}
	.st4{fill:#1D1D1B;}
	.st5{fill:#FEFCF0;}
	.st6{fill:#FFFFFF;}
	.st7{fill:#F29AA7;}
</style>
<g>
	<g>
		<path class="st0" d="M401.6,611.7c0,1.6,0,3.3,0,4.9c0.5-1.4,1.3-2.8,2.4-3.9C403.1,612.4,402.3,612.1,401.6,611.7z"/>
		<path class="st0" d="M351.6,618c0-2.2,0-4.4,0-6.6c-0.8,0.5-1.7,0.9-2.7,1.2C350.2,614.2,351.1,616.1,351.6,618z"/>
		<path class="st1" d="M398.6,609.5c-1.9-1.8-3.3-4.2-3.7-6.8c-11.4,0-22.8,0-34.2,0c-0.6,0-1.7,0.1-2.8,0.2
			c-0.5,2.4-1.6,4.5-3.3,6.2c0,3.3,0,6.6,0,9.8c0,7.4,0,14.7,0,22.1c0,2.1-0.7,5.4,0,7.4c0,0.1,0,0.3-0.1,0.4
			c1.1,0.1,2.3,0.2,3.4,0.2c1.4-0.1,2.8,0,3.2,0c7.5,0.3,15,0.4,22.4,0.2c3.6-0.1,7.5-0.6,11.1-0.4c0.4,0.1,1.3,0.1,2.2,0.2
			c0.7-0.1,1.3-0.1,1.9-0.1c1-2.9-0.3-11.8-0.3-13.9C398.6,626.6,398.6,618,398.6,609.5z"/>
		<path class="st2" d="M323.7,633c-4-1.7-7.7-4-10.8-6.9c-1.3,5.5-1.6,11.2,1.1,14.4c5.1,5.9,19.8,6.3,26.7,7.1
			c3.6,0.4,7.2,0.8,10.9,1.1c0-8.2,0-16.4,0-24.5c-0.4,1.7-1.3,3.4-2.5,4.9C343,636.7,332.1,636.4,323.7,633z"/>
		<path class="st2" d="M429,633c-8.4,3.4-19.5,3.7-25.5-4.2c-0.9-1.2-1.5-2.4-1.9-3.7c0,7.9,0,15.8,0,23.7
			c6.9-0.6,13.7-1.4,20.4-2.7c6.3-1.1,17.5-2.1,18.4-10c0.4-3.2,0.1-6.6-0.5-10.1C436.7,629,433.1,631.3,429,633z"/>
		<path class="st2" d="M349.4,572.6c3,6.2,0.1,11.4-3.9,15.9c5.8,0.5,11.3,4,12.4,10.3c0.1,0.3,0,0.6,0.1,0.9c12.2,0,24.5,0,36.8,0
			c0.1-0.3,0-0.6,0.1-0.9c1.1-6.3,6.6-9.8,12.4-10.3c-4-4.5-6.8-9.6-3.9-15.9c1.6-3.3,4.4-5.5,7.7-6.9c-0.8-1.1-1.6-2.2-2.5-3.3
			c-7.9-9.7-18.8-20.4-32.1-20.7c-14.8,0.4-26.6,12.7-35.1,24.1C344.8,567,347.7,569.2,349.4,572.6z"/>
		<path class="st3" d="M364.2,414.1c2.2,3.6,5.9,8,9,10.8c4.2,3.8,6.7-0.3,9.3-3.3c1.4-1.6,11.8-11.2,5.4-13.3
			c-5.5-0.8-11.2-1.3-16.8-1c-2.6,0.1-9.9,0.1-8,5.5C363.2,413.2,364,413.7,364.2,414.1z"/>
		<path class="st4" d="M22.9,409.4c29.9-8,61.1-8.8,92.1-6.8c-0.2,12.1,1.3,24.1,4.1,35.8c-20.2,1.4-40.4,4-60.4,7.8
			c-1.9,0.4-1.1,3.3,0.8,2.9c20-3.8,40.2-6.3,60.4-7.8c3.3,12.1,8.1,23.8,14.6,34.6c-17,3.8-33.9,8.3-50.5,13.7
			c-1.8,0.6-1,3.5,0.8,2.9c16.8-5.5,33.9-10.1,51.3-13.9c4.3,6.9,9.3,13.6,14.9,19.7c4.2,4.8,8.9,9.1,13.7,13.1
			c-6.7,39.4-26.5,75.8-29.2,116c-2.2,34.5,10.7,65.6,40.5,84.2c1.6,1,3.3,1.9,4.9,2.8c-6.6,4.5-18.3,16.2-13.3,24.1
			c4.7,7.5,16.7,3.9,23.5-0.7c0.3,9,13.3,11.3,19.1,3.9c3.6,4.8,9.4,7.2,15.5,6.3c8.3-1.3,12.1-8.4,13.3-16.1
			c22.5,2.7,45.6,2.4,67.7,2.4c42.5,0,85.1,0,127.6,0c25.7,0,52.3,0.8,78.2-2.2c1.3,7.5,5,14.6,13.3,15.9c6,0.9,11.9-1.5,15.4-6.3
			c5.7,7.4,18.8,5.1,19.1-3.9c6.8,4.5,19,8.3,23.5,0.7c4.5-7.7-5.3-18.3-12.1-23.3c11-5.9,21.2-13.6,29.1-23.3
			c12-14.8,17.4-33.4,18-52.3c1.4-45-22.4-85.5-29.5-129.1c11.2-9,21-19.5,28.8-31.8c16.9,3.8,33.7,8.3,50.2,13.7
			c1.8,0.6,2.6-2.3,0.8-2.9c-16.2-5.4-32.7-9.8-49.4-13.5c3.2-5.3,6-10.9,8.4-16.7c2.4-6,4.3-12,5.8-18.1c20,1.5,40,4,59.8,7.7
			c1.9,0.4,2.7-2.5,0.8-2.9c-19.8-3.8-39.8-6.3-59.9-7.8c2.6-11.8,3.6-23.8,3.2-35.7c31.1-2.1,62.4-1.3,92.4,6.7
			c1.9,0.5,2.7-2.4,0.8-2.9c-30.3-8.1-62-8.9-93.3-6.8c-1-22.5-6.4-45-13.6-66.9C615,306,604.7,279.7,599,252
			c5.7-1,12.5-6.1,16.9-8.8c7.5-4.8,14.5-10.3,20.8-16.6c12.5-12.4,22.1-27.4,28.2-43.9c12.1-33,8.9-70.6-8.6-101.1
			C621,20.4,537.7,2.7,480.8,44.7C451.6,66.3,434,100,432.2,136c-2.2-3.9-4.8-7.6-9.1-9.5c-7.3-3.1-14.6-0.6-20.2,4
			c1.2-7.2-1-14.9-8.6-18c-8.4-3.3-14.4,2.2-18.6,8.7c0.4-9.2-0.4-18.8-6.4-26.1c-4.7-5.7-12.2-8.9-19.6-8.4
			c-27.5,1.7-10.9,42.3-28.7,53.1c0.5-5.6-0.8-12.2-1.6-17.4c-1.4-9-3.9-17.8-7.3-26.2c-6-14.8-15.1-28.4-26.4-39.7
			c-24.1-24.2-58.1-37-92.3-35c-70,4.3-122.2,70-111.2,139.2c6.5,40.5,34.1,75,71.6,91.3c-9.5,45.8-32.3,88.3-37.9,135.1
			c-0.5,4.2-0.7,8.4-0.9,12.5c-31.2-2.1-62.7-1.2-92.9,6.9C20.2,407,21,409.9,22.9,409.4z M233.6,739.2c-5.1,8.7-17.6,7.5-22.2-0.9
			c-0.5-1-2.1-1-2.7,0c-0.5,1.9-1.7,3.3-3.6,3.9c-4.3,3.4-7.8,1-10.7-7.4c0.5-1.5-1.4-2.5-2.5-1.5c-4.3,4.3-23,12.4-21.5-1.4
			c0.7-6.3,7.7-12.3,12.8-15.4c1.1,0.3,2.1,0.6,3.2,0.9c14.8,7.4,30.9,11.5,47.3,13.9c0.4,0.1,0.8,0.2,1.1,0.4
			c0.4,0.2,1.6,0.2,1.9,0.5C237,732.7,234.3,738.1,233.6,739.2z M580.6,731.9c1.4,13.8-17.1,5.8-21.5,1.4c-1-1-3,0-2.5,1.5
			c-2.8,8.3-6.3,10.7-10.6,7.4c-1.9-0.7-3.1-2-3.7-3.9c-0.5-1-2.1-1-2.6,0c-4.2,7.8-15.1,9.5-20.9,2.5c-0.8-1-4.9-7.8-4.5-8.4
			c0.2-0.3,1.4-0.4,1.6-0.5c0.1,0,0.2,0,0.2-0.1c13.9-1.8,27.5-4.8,40.6-9.8c4-1.5,8-3.2,11.8-5.1
			C573.5,720.1,580,725.9,580.6,731.9z M271.7,433.7c-39.2-16.2-80.7-25.9-122.8-30.9c-10.1-1.2-20.3-2.2-30.6-3
			c1.1-25.7,8.4-51.3,16.8-76.2c8.1-23.9,16.9-47.7,21.8-72.6c0.2-1-0.4-1.9-1.4-1.9c-0.2,0-0.4,0-0.7,0
			c-31.5-13.7-56-40.4-66.1-73.4c-9.9-32.3-5.1-68.2,12.9-96.8c36.1-57,115.7-71.7,169.6-31c14.4,10.9,26.2,25.1,34.3,41.3
			c4.1,8.3,7.2,17,9.3,25.9c1.7,7.8,4.8,19.1,2.7,27c-0.3,1,0.7,2.3,1.9,1.8c15.7-6.2,12.6-26.5,16.3-39.9c2-7.2,5.1-13.7,13.8-14.3
			c5.7-0.4,11.7,1.7,15.9,5.8c8.4,8.3,7.5,21.3,6.8,32.1c-0.1,1.4,2.1,2.1,2.8,0.7c2.9-5.8,6.9-13.9,14.7-13.7
			c10.6,0.3,12.2,12.7,8.8,20.2c-0.7,1.4,1.1,3.3,2.4,1.9c6.3-7.5,18.2-12.9,25.8-3.7c2.2,2.7,3.8,6.2,5.5,9.2
			c0.7,1.3,2.8,0.7,2.8-0.8c0.6-67.9,59.5-122.5,127.5-116.6c68.8,6,118.2,73,104.3,140.5c-4,19.2-12.9,37.3-25.7,52.2
			c-6.3,7.4-13.5,14-21.4,19.5c-3.5,2.5-7.1,4.7-10.7,6.8c-3.1,1.7-8.1,5.4-11.7,5.4c-1,0-1.6,1-1.4,1.9
			c9.1,45.8,32,88.2,37.9,134.7c0.6,4.6,1,9.3,1.1,14c-10.4,0.8-20.7,1.9-31,3.1c-42.1,5-83.6,14.7-122.8,30.9
			c-1.7,0.7-1,3.6,0.8,2.9c38.9-16.1,80.1-25.7,121.9-30.8c10.3-1.2,20.6-2.3,31.1-3.1c0.2,11.9-1,23.8-3.7,35.4
			c-45.7-3.1-91.7-0.5-136.9,8.1c-1.9,0.4-1.1,3.3,0.8,2.9c44.7-8.6,90.2-11.2,135.4-8.1c-3,12.1-7.7,23.7-14,34.4
			c-42.1-9.2-85.1-13.3-128.3-12c-1.9,0.1-1.9,3.1,0,3c42.6-1.3,85.1,2.8,126.6,11.7c-3.4,5.3-7.1,10.4-11.3,15.2
			c-15.1,17.1-34.5,29.2-55.6,37.4c-1.7,0.7-1,3.6,0.8,2.9c13.4-4.9,26.2-11.9,37.8-20.3c6.7,37.9,25.5,73,28.7,111.6
			c1.5,18.3-0.4,37.3-9.3,53.7c-8.3,15.4-22,26.9-37.4,34.9c-0.2-0.1-0.5-0.2-0.8-0.1c0,0,0,0-0.1,0c-17.5,5.2-35,10.4-52.5,15.6
			c-23.6,3-47.9,2.5-71.3,2.5c-40.3,0-80.6,0-120.9,0c-30.7,0-61.8,1-92.2-4c-14.4-4.3-28.7-8.5-43-12.7
			c-10.3-5-19.8-11.4-27.8-19.7c-15-15.6-21.5-36.3-21.8-57.6c-0.4-43.2,21.6-82,29.1-123.7c1.1,0.8,2.2,1.7,3.3,2.5
			c10.1,7.7,21.6,13.8,33.5,17.5c1.9,0.6,2.7-2.3,0.8-2.9c-13-4.4-24.9-11.1-35.5-19.4c-0.7-0.5-1.4-1-2.1-1.6c0,0-0.1,0-0.1-0.1
			c-11-8.9-20.5-19.7-28.2-31.7c41.1-8.8,83.3-12.7,125.5-11.5c1.9,0.1,1.9-3,0-3c-42.8-1.3-85.5,2.8-127.2,11.8
			c-4.9-8.1-9-16.7-12.2-25.7c-1-2.8-1.8-5.7-2.6-8.5c45.1-3,90.5-0.4,135,8.1c1.9,0.4,2.7-2.5,0.8-2.9c-45-8.7-90.9-11.3-136.5-8.2
			c-2.9-11.8-4-23.5-3.7-35.3c10.3,0.7,20.6,1.8,30.7,3c41.8,5,83,14.7,122,30.8C272.7,437.3,273.4,434.4,271.7,433.7z"/>
		<path class="st5" d="M270.9,436.6c-39-16.1-80.2-25.7-122-30.8c-10.1-1.2-20.4-2.3-30.7-3c-0.3,11.8,0.8,23.5,3.7,35.3
			c45.6-3.1,91.5-0.5,136.5,8.2c1.9,0.4,1.1,3.3-0.8,2.9c-44.5-8.6-89.9-11.2-135-8.1c0.8,2.8,1.6,5.7,2.6,8.5
			c3.2,9,7.3,17.5,12.2,25.7c41.7-9,84.4-13.1,127.2-11.8c1.9,0.1,1.9,3.1,0,3c-42.2-1.2-84.4,2.7-125.5,11.5
			c7.7,12,17.2,22.8,28.2,31.7c0,0.1,0.1,0.1,0.1,0.1c0.7,0.5,1.4,1,2.1,1.6c10.6,8.3,22.6,15,35.5,19.4c1.8,0.6,1,3.5-0.8,2.9
			c-11.9-3.7-23.5-9.8-33.5-17.5c-1.1-0.8-2.2-1.6-3.3-2.5c-7.5,41.7-29.5,80.6-29.1,123.7c0.2,21.3,6.8,42,21.8,57.6
			c8,8.3,17.5,14.7,27.8,19.7c14.3,4.2,28.6,8.4,43,12.7c30.4,5,61.5,4,92.2,4c40.3,0,80.6,0,120.9,0c23.4,0,47.7,0.5,71.3-2.5
			c17.5-5.2,35-10.4,52.5-15.6c0.1,0,0.1,0,0.1,0c0.3-0.1,0.5,0.1,0.8,0.1c15.4-8,29.1-19.5,37.4-34.9c8.9-16.3,10.8-35.4,9.3-53.7
			c-3.2-38.7-22-73.7-28.7-111.6c-11.6,8.3-24.4,15.4-37.8,20.3c-1.9,0.7-2.6-2.2-0.8-2.9c21.1-8.2,40.5-20.3,55.6-37.4
			c4.2-4.8,8-9.9,11.3-15.2c-41.5-8.9-84-13-126.6-11.7c-1.9,0.1-1.9-3,0-3c43.2-1.3,86.2,2.8,128.3,12c6.4-10.7,11-22.3,14-34.4
			c-45.2-3-90.7-0.4-135.4,8.1c-1.9,0.4-2.7-2.5-0.8-2.9c45.2-8.7,91.2-11.3,136.9-8.1c2.7-11.6,3.9-23.5,3.7-35.4
			c-10.4,0.8-20.8,1.9-31.1,3.1c-41.8,5-83,14.7-121.9,30.8c-1.8,0.7-2.6-2.2-0.8-2.9c39.2-16.2,80.7-25.9,122.8-30.9
			c10.3-1.2,20.6-2.3,31-3.1c-0.2-4.6-0.5-9.3-1.1-14c-5.9-46.5-28.8-88.9-37.9-134.7c-0.2-1,0.4-1.9,1.4-1.9
			c3.6,0,8.6-3.6,11.7-5.4c3.7-2.1,7.2-4.3,10.7-6.8c7.9-5.5,15.1-12.2,21.4-19.5c12.8-14.9,21.6-33,25.7-52.2
			c14-67.5-35.5-134.5-104.3-140.5c-68-5.9-126.9,48.7-127.5,116.6c0,1.5-2.1,2.1-2.8,0.8c-1.7-3-3.3-6.5-5.5-9.2
			c-7.6-9.2-19.5-3.8-25.8,3.7c-1.2,1.4-3-0.4-2.4-1.9c3.4-7.5,1.7-19.9-8.8-20.2c-7.8-0.2-11.8,7.8-14.7,13.7
			c-0.7,1.3-2.9,0.7-2.8-0.7c0.7-10.8,1.6-23.8-6.8-32.1c-4.2-4-10.1-6.1-15.9-5.8c-8.7,0.5-11.8,7.1-13.8,14.3
			c-3.7,13.4-0.6,33.8-16.3,39.9c-1.1,0.5-2.2-0.8-1.9-1.8c2.1-7.9-1-19.2-2.7-27c-2.1-8.9-5.2-17.7-9.3-25.9
			c-8.1-16.2-19.9-30.4-34.3-41.3c-54-40.7-133.6-26-169.6,31c-18,28.6-22.8,64.5-12.9,96.8c10.1,33,34.7,59.6,66.1,73.4
			c0.2,0,0.5,0,0.7,0c1,0,1.6,1,1.4,1.9c-4.9,24.9-13.7,48.7-21.8,72.6c-8.4,24.8-15.7,50.4-16.8,76.2c10.3,0.8,20.4,1.8,30.6,3
			c42.1,5,83.6,14.7,122.8,30.9C273.4,434.4,272.7,437.3,270.9,436.6z M509.8,101.2c36.7-27.6,90.9-17.1,114.7,22.1
			c23,37.7,9.8,101-36.9,113.5c-0.1,0.1-0.2-0.1-0.3,0c-0.2,0-0.5-0.1-0.7-0.1c-0.1-0.1-0.1-0.1-0.2-0.1c-0.2-0.1-0.4-0.2-0.5-0.4
			c-23.7-35.2-64.1-63.5-106.5-70.5c-0.7-0.1-1.1-0.8-1.1-1.4C478.7,139.5,490,116.1,509.8,101.2z M447.8,328.1
			c2.2-31.7,27.5-56.2,56-54.2c27.1,1.9,48.8,22.5,48.8,52.6c0,0.7-0.6,1.3-1.3,1.3c0,0-23,7.4-21.6,7.8l21.3,7.4
			c0.6,0.2,1,0.8,0.9,1.5c-5.5,28.2-30.4,46.9-56.2,45.1C467.1,387.5,445.5,359.8,447.8,328.1z M424.9,431.5
			c1.4-1.3,3.6,0.8,2.1,2.1c-24.8,23.6-28.1,61.2-7.8,88.8c1.1,1.6-1.4,3.1-2.6,1.6C395.5,495.3,399,455.9,424.9,431.5z
			 M388.7,405.3c9.1,3.1,2.5,10.6-1.3,15c-3.7,4.3-9.2,13.8-15.6,7.7c-2.6-2.4-4.7-5.7-7-8.4c-1.6-1.9-4.4-4.3-5.3-6.9
			C355.2,400,383.6,404.5,388.7,405.3z M380.8,480.7c-1.4-0.3-1.5-2.7,0-3c6-7.5,5.1-11.7-2.9-12.5c-1.3,0.2-2.5,0.4-3.7,0.6
			c-2.7,0.8-5,2.3-7.3,3.8c-1.6,1.1-3.1-1.5-1.5-2.6c6.5-4.3,16.3-8,21.9-0.1c3.1,4.5,1.7,9.9-2.4,12.4c5.2,3.6,8,12,3.9,17.2
			c-6,7.8-20.3,2.8-26.7-1.4c-1.6-1.1-0.1-3.7,1.5-2.7c4.6,3,9.7,4.9,15.3,4.8C387.9,497.2,390.8,482.8,380.8,480.7z M327,431.5
			c25.8,24.5,29.4,63.8,8.3,92.5c-1.1,1.5-3.7,0-2.6-1.6c20.3-27.6,17.1-65.2-7.8-88.8C323.4,432.3,325.6,430.2,327,431.5z
			 M166.8,236.2c-0.2,0.2-0.3,0.4-0.5,0.4c-0.1,0.1-0.2,0.1-0.2,0.1c-0.2,0.1-0.5,0.1-0.7,0.1c-0.1-0.1-0.2,0.1-0.3,0
			c-25.7-6.9-42.1-31.5-46.8-56.7c-8.4-45,22.9-89.5,69-94.3c46.3-4.8,86.5,32.3,87.1,78.4c0,0.6-0.5,1.3-1.1,1.4
			C230.9,172.7,190.5,201,166.8,236.2z M248.3,389.6c-28.5-2-50.1-29.8-47.9-61.4c2.2-31.7,27.5-56.2,56-54.2
			c27.1,1.9,48.8,22.5,48.8,52.6c0,0.7-0.6,1.3-1.3,1.3c0,0-23,7.4-21.5,7.8l21.2,7.4c0.7,0.2,1.1,0.8,1,1.5
			C299,372.6,274.1,391.4,248.3,389.6z M308.5,621c-1.4-2-2.6-4.2-3.6-6.5c-2.8-6.9-2.5-14.1-2.5-21.4c0.1-2.6,0.7-5.1,1.6-7.5
			c-5.8-0.7-11.4-2.1-16.8-4.3c-1.7-0.7-1-3.7,0.8-3c5.3,2.2,10.8,3.7,16.5,4.4c0.2,0.1,0.3,0.2,0.5,0.2
			c4.9-10.9,16.6-18.7,28.9-18.8c1.6,0,3.1,0.2,4.6,0.5c1.4-1.9,2.8-3.9,4.3-5.7c8.5-10.1,19.8-20.1,33.6-20.4
			c15.4,0.4,27.7,13,36.5,24.5c0.4,0.5,0.7,1.1,1.1,1.6c1.6-0.4,3.2-0.5,4.8-0.5c12.3,0.1,23.9,7.8,28.9,18.8
			c0.2-0.1,0.3-0.2,0.5-0.2c5.7-0.7,11.2-2.2,16.6-4.4c1.7-0.7,2.5,2.2,0.8,3c-5.4,2.2-11,3.6-16.8,4.3c0.8,2.4,1.4,4.9,1.6,7.5
			c0,7.4,0.2,14.6-2.6,21.6c-0.9,2.3-2.1,4.4-3.5,6.3c36.2,4.2,72.7-2.8,104.7-20.1c1.7-0.9,3.2,1.7,1.5,2.6
			c-33,17.8-70.8,25-108.1,20.4c1.6,6.3,2.5,13.3-0.5,17.7c-4.6,6.7-18.2,7.5-25.3,8.4c-29,3.9-61.1,4.5-89.9-1.6
			c-6.8-1.4-15.9-3.1-17.1-11.2c-0.7-4.2-0.2-8.8,0.7-13.4c-37.3,4.6-75-2.5-108.1-20.4c-1.7-0.9-0.2-3.5,1.6-2.6
			C235.9,618.2,272.4,625.2,308.5,621z"/>
		<path class="st3" d="M483.1,163.3c2.7,0.8,5.6,1.3,8.3,2.1c9.6,2.7,18.9,6.3,27.9,10.5c27.5,13,51.3,32.6,68.4,57.7
			c40.9-11.8,54.8-66.4,37.9-101.9c-14.8-31.1-49.7-48.6-83.4-41.8c-16.2,3.3-31.1,11.9-42,24.3c-5.8,6.6-10.6,14.4-13.7,22.7
			c-1.4,3.7-2.6,7.5-3.4,11.5c-0.8,3.8-0.6,8-1.6,11.8C480.5,163.8,479.9,162.3,483.1,163.3z"/>
		<path class="st4" d="M479.5,165.6c42.4,7.1,82.8,35.4,106.5,70.5c0.1,0.2,0.3,0.4,0.5,0.4c0.1,0.1,0.1,0.1,0.2,0.1
			c0.2,0.1,0.5,0.1,0.7,0.1c0.1-0.1,0.2,0.1,0.3,0c46.7-12.5,59.9-75.8,36.9-113.5c-23.9-39.2-78-49.7-114.7-22.1
			c-19.8,15-31.1,38.3-31.5,63C478.3,164.8,478.8,165.5,479.5,165.6z M481.5,160c1-3.7,0.7-8,1.6-11.8c0.8-3.9,2-7.8,3.4-11.5
			c3.2-8.3,7.9-16,13.7-22.7c11-12.4,25.8-21,42-24.3c33.7-6.8,68.6,10.8,83.4,41.8c16.9,35.5,3.1,90.1-37.9,101.9
			c-17.2-25.1-40.9-44.7-68.4-57.7c-9-4.2-18.3-7.8-27.9-10.5c-2.7-0.8-5.6-1.3-8.3-2.1C479.9,162.3,480.5,163.8,481.5,160z"/>
		<path class="st3" d="M556.7,722c-13.1,4.9-26.8,8-40.6,9.8c0,0.1-0.1,0.1-0.2,0.1c-0.2,0.2-1.4,0.2-1.6,0.5
			c-0.4,0.7,3.7,7.4,4.5,8.4c5.8,7,16.7,5.2,20.9-2.5c0.5-1,2.1-1,2.6,0c0.6,1.9,1.8,3.3,3.7,3.9c4.3,3.4,7.8,1,10.6-7.4
			c-0.5-1.5,1.5-2.5,2.5-1.5c4.3,4.3,22.9,12.4,21.5-1.4c-0.6-6-7.1-11.8-12.1-15C564.7,718.8,560.7,720.5,556.7,722z"/>
		<path class="st4" d="M495.6,389.6c25.8,1.8,50.6-16.9,56.2-45.1c0.1-0.7-0.3-1.3-0.9-1.5l-21.3-7.4c-1.4-0.4,21.6-7.8,21.6-7.8
			c0.7,0,1.3-0.6,1.3-1.3c0.1-30.1-21.7-50.7-48.8-52.6c-28.5-2-53.7,22.5-56,54.2C445.5,359.8,467.1,387.5,495.6,389.6z
			 M495.1,345.6c-9.9-4.2-3.4-19.5,6.4-15.3C511.4,334.5,504.9,349.7,495.1,345.6z M496.3,286.5c24.7,10.4,8.6,48.5-16,38.2
			C455.6,314.4,471.8,276.2,496.3,286.5z"/>
		<path class="st4" d="M202.3,603.5c33,17.8,70.8,25,108.1,20.4c-1,4.6-1.4,9.2-0.7,13.4c1.3,8,10.4,9.7,17.1,11.2
			c28.8,6,60.9,5.5,89.9,1.6c7.1-1,20.6-1.7,25.3-8.4c3-4.4,2.1-11.3,0.5-17.7c37.3,4.6,75-2.5,108.1-20.4c1.7-0.9,0.2-3.5-1.5-2.6
			c-32.1,17.3-68.6,24.2-104.7,20.1c1.4-1.9,2.6-4,3.5-6.3c2.8-7,2.6-14.2,2.6-21.6c-0.1-2.6-0.7-5.1-1.6-7.5
			c5.8-0.7,11.4-2.1,16.8-4.3c1.7-0.7,1-3.7-0.8-3c-5.4,2.2-10.9,3.7-16.6,4.4c-0.2,0.1-0.3,0.2-0.5,0.2
			c-4.9-10.9-16.6-18.7-28.9-18.8c-1.6,0-3.2,0.2-4.8,0.5c-0.4-0.5-0.7-1.1-1.1-1.6c-8.8-11.5-21-24.1-36.5-24.5
			c-13.9,0.3-25.1,10.3-33.6,20.4c-1.5,1.8-2.9,3.7-4.3,5.7c-1.5-0.4-3.1-0.5-4.6-0.5C321.6,564.3,310,572,305,583
			c-0.2-0.1-0.3-0.2-0.5-0.2c-5.7-0.7-11.2-2.2-16.5-4.4c-1.8-0.7-2.6,2.2-0.8,3c5.4,2.2,11,3.6,16.8,4.3c-0.8,2.4-1.4,4.9-1.6,7.5
			c0.1,7.3-0.2,14.5,2.5,21.4c1,2.4,2.2,4.5,3.6,6.5c-36.2,4.2-72.6-2.8-104.7-20.1C202.1,600,200.6,602.6,202.3,603.5z
			 M351.6,648.6c-3.7-0.3-7.3-0.7-10.9-1.1c-6.9-0.8-21.6-1.2-26.7-7.1c-2.7-3.2-2.4-8.8-1.1-14.4c3.1,2.9,6.8,5.2,10.8,6.9
			c8.3,3.4,19.3,3.7,25.4-4c1.2-1.5,2.1-3.2,2.5-4.9C351.6,632.2,351.6,640.4,351.6,648.6z M351.6,618c-0.5-1.9-1.4-3.8-2.7-5.4
			c1-0.3,1.9-0.7,2.7-1.2C351.6,613.6,351.6,615.9,351.6,618z M398.9,649c-0.7,0.1-1.3,0.1-1.9,0.1c-0.9-0.1-1.9-0.2-2.2-0.2
			c-3.6-0.2-7.5,0.3-11.1,0.4c-7.5,0.1-15,0.1-22.4-0.2c-0.4,0-1.8-0.1-3.2,0c-1.1-0.1-2.3-0.1-3.4-0.2c0.1-0.1,0.1-0.3,0.1-0.4
			c-0.7-1.9,0-5.3,0-7.4c0-7.4,0-14.7,0-22.1c0-3.3,0-6.5,0-9.8c1.6-1.7,2.8-3.8,3.3-6.2c1.1-0.1,2.2-0.2,2.8-0.2
			c11.4,0,22.8,0,34.2,0c0.4,2.7,1.7,5,3.7,6.8c0,8.6,0,17.1,0,25.6C398.6,637.2,399.8,646.1,398.9,649z M440.4,636.1
			c-0.9,7.9-12.1,8.9-18.4,10c-6.8,1.2-13.6,2.1-20.4,2.7c0-7.9,0-15.8,0-23.7c0.4,1.3,1,2.5,1.9,3.7c6,7.9,17.1,7.6,25.5,4.2
			c4.1-1.7,7.7-4,10.9-6.9C440.5,629.5,440.8,632.9,440.4,636.1z M401.6,616.6c0-1.6,0-3.3,0-4.9c0.7,0.4,1.5,0.7,2.4,1
			C402.9,613.8,402.1,615.2,401.6,616.6z M428.6,569.4c10.4,4.2,18.1,12.2,18.7,23.7c0,10.3-0.1,20.3-7.2,28.6
			c-4.2,4.8-10.1,8.3-16.3,9.9c-5.1,1.4-10.8,1-15.2-2.2c-5.2-3.9-6.9-11.9-0.8-16.4c1.2-0.8,0.8-2.7-0.8-2.8
			c-14.2-1-10.1-21,3.6-18.8c1.4,0.2,2.7-1.4,1.4-2.5c-5.8-5.5-9.6-13.3-1.9-19.5C415,565.6,423.3,567.3,428.6,569.4z M376.5,541.7
			c13.3,0.3,24.2,11,32.1,20.7c0.9,1.1,1.6,2.2,2.5,3.3c-3.3,1.4-6.1,3.6-7.7,6.9c-3,6.2-0.2,11.4,3.9,15.9
			c-5.8,0.5-11.3,4-12.4,10.3c-0.1,0.3,0,0.6-0.1,0.9c-12.2,0-24.5,0-36.8,0c-0.1-0.3,0-0.6-0.1-0.9c-1.1-6.3-6.6-9.8-12.4-10.3
			c4-4.5,6.9-9.6,3.9-15.9c-1.7-3.4-4.6-5.6-8-6.9C349.9,554.3,361.7,542,376.5,541.7z M305.5,593.1c0.5-11.5,8.3-19.5,18.7-23.7
			c5.2-2.1,11.4-3.3,16.7-0.7c10.6,5.2,6.2,14.5-0.1,20.3c-1.2,1.1,0.1,2.7,1.4,2.5c13.6-2.2,17.8,17.8,3.6,18.8
			c-1.6,0.1-2,1.9-0.8,2.8c5.1,3.7,4.9,11.2,0.7,15.3c-3.9,3.7-9.5,4.5-14.6,3.6c-6.9-1.1-13.8-4.9-18.3-10.3
			C305.6,613.4,305.5,603.4,305.5,593.1z"/>
		<path class="st6" d="M501.5,330.3c-9.8-4.2-16.3,11.2-6.4,15.3C504.9,349.7,511.4,334.5,501.5,330.3z"/>
		<path class="st6" d="M480.3,324.8c24.6,10.3,40.7-27.9,16-38.2C471.8,276.2,455.6,314.4,480.3,324.8z"/>
		<path class="st3" d="M412,589c1.2,1.1-0.1,2.7-1.4,2.5c-13.6-2.2-17.8,17.8-3.6,18.8c1.6,0.1,2,1.9,0.8,2.8
			c-6.1,4.5-4.4,12.5,0.8,16.4c4.4,3.2,10.1,3.6,15.2,2.2c6.2-1.6,12.1-5.1,16.3-9.9c7.1-8.3,7.2-18.3,7.2-28.6
			c-0.5-11.5-8.3-19.5-18.7-23.7c-5.2-2.1-13.6-3.8-18.5,0.1C402.3,575.7,406.1,583.4,412,589z"/>
		<path class="st4" d="M419.2,522.4c-20.3-27.6-17.1-65.2,7.8-88.8c1.4-1.3-0.7-3.4-2.1-2.1c-25.8,24.4-29.4,63.8-8.3,92.5
			C417.7,525.5,420.3,524,419.2,522.4z"/>
		<path class="st4" d="M379,497.3c-5.6,0.1-10.7-1.7-15.3-4.8c-1.6-1-3.1,1.6-1.5,2.7c6.5,4.2,20.7,9.2,26.7,1.4
			c4-5.2,1.3-13.7-3.9-17.2c4-2.5,5.5-8,2.4-12.4c-5.6-7.8-15.5-4.2-21.9,0.1c-1.6,1.1-0.1,3.7,1.5,2.6c2.3-1.5,4.6-3,7.3-3.8
			c1.3-0.2,2.5-0.4,3.7-0.6c8,0.8,8.9,5,2.9,12.5c-1.5,0.3-1.4,2.7,0,3C390.8,482.8,387.9,497.2,379,497.3z"/>
		<path class="st4" d="M364.9,419.5c2.3,2.8,4.4,6,7,8.4c6.4,6.1,11.9-3.4,15.6-7.7c3.7-4.3,10.4-11.9,1.3-15
			c-5.2-0.8-33.6-5.4-29.1,7.4C360.5,415.2,363.3,417.6,364.9,419.5z M371.1,407.2c5.7-0.3,11.3,0.1,16.8,1c6.4,2.2-4,11.7-5.4,13.3
			c-2.6,3-5.1,7.1-9.3,3.3c-3.1-2.8-6.8-7.2-9-10.8c-0.2-0.4-1-0.9-1.1-1.3C361.2,407.3,368.5,407.4,371.1,407.2z"/>
		<path class="st4" d="M332.7,522.4c-1.1,1.6,1.5,3.1,2.6,1.6c21.1-28.7,17.5-68-8.3-92.5c-1.4-1.3-3.6,0.8-2.1,2.1
			C349.8,457.2,353,494.8,332.7,522.4z"/>
		<path class="st3" d="M331.1,632c5.1,0.8,10.7,0.1,14.6-3.6c4.3-4.2,4.4-11.6-0.7-15.3c-1.2-0.8-0.8-2.7,0.8-2.8
			c14.2-1,10.1-21-3.6-18.8c-1.4,0.2-2.7-1.4-1.4-2.5c6.2-5.8,10.7-15.1,0.1-20.3c-5.3-2.6-11.5-1.4-16.7,0.7
			c-10.4,4.2-18.1,12.2-18.7,23.7c0.1,10.3,0.2,20.3,7.3,28.6C317.3,627.1,324.2,630.8,331.1,632z"/>
		<path class="st4" d="M304.5,344.5c0.1-0.7-0.3-1.3-1-1.5l-21.2-7.4c-1.4-0.4,21.5-7.8,21.5-7.8c0.7,0,1.3-0.6,1.3-1.3
			c0.1-30.1-21.7-50.7-48.8-52.6c-28.5-2-53.8,22.5-56,54.2c-2.2,31.7,19.4,59.4,47.9,61.4C274.1,391.4,299,372.6,304.5,344.5z
			 M247.8,345.6c-9.9-4.2-3.4-19.5,6.4-15.3C264,334.5,257.6,349.7,247.8,345.6z M232.9,324.8c-24.7-10.4-8.6-48.6,16-38.2
			C273.6,296.9,257.5,335.1,232.9,324.8z"/>
		<path class="st4" d="M274.4,164.2c-0.6-46.1-40.8-83.2-87.1-78.4c-46.2,4.8-77.4,49.3-69,94.3c4.7,25.2,21,49.9,46.8,56.7
			c0.1,0.1,0.2-0.1,0.3,0c0.2,0,0.5-0.1,0.7-0.1c0.1-0.1,0.2-0.1,0.2-0.1c0.2-0.1,0.3-0.2,0.5-0.4c23.7-35.2,64-63.5,106.5-70.5
			C273.9,165.5,274.4,164.8,274.4,164.2z M271.9,162.9c-0.9,0.8-4.8,1-6,1.3c-8.6,2.1-16.9,5-25,8.4c-30.6,12.8-57.2,33.6-75.9,61.1
			c-36-10.4-51.7-55.5-42.5-89.3c9-33.4,40.6-56.9,75.3-55.9c34.1,0.9,64.2,25.6,71.8,58.9C270.1,150.2,272.6,162.1,271.9,162.9z"/>
		<path class="st3" d="M197.7,88.5c-34.6-1-66.3,22.5-75.3,55.9c-9.2,33.8,6.5,78.9,42.5,89.3c18.8-27.4,45.3-48.2,75.9-61.1
			c8.1-3.4,16.5-6.3,25-8.4c1.2-0.3,5.1-0.5,6-1.3c0.7-0.7-1.7-12.7-2.4-15.6C261.9,114,231.8,89.4,197.7,88.5z"/>
		<path class="st6" d="M254.2,330.3c-9.8-4.2-16.3,11.2-6.4,15.3C257.6,349.7,264,334.5,254.2,330.3z"/>
		<path class="st6" d="M249,286.5c-24.6-10.4-40.7,27.9-16,38.2C257.5,335.1,273.6,296.9,249,286.5z"/>
		<path class="st3" d="M233.8,731.3c-16.5-2.4-32.5-6.6-47.3-13.9c-1.1-0.3-2.1-0.6-3.2-0.9c-5.1,3.1-12.1,9.1-12.8,15.4
			c-1.4,13.8,17.2,5.8,21.5,1.4c1-1,3,0,2.5,1.5c2.8,8.3,6.4,10.7,10.7,7.4c1.9-0.7,3.1-2,3.6-3.9c0.5-1,2.1-1,2.7,0
			c4.6,8.4,17.1,9.6,22.2,0.9c0.7-1.1,3.4-6.5,3.1-6.9c-0.2-0.3-1.5-0.4-1.9-0.5C234.6,731.6,234.1,731.5,233.8,731.3z"/>
	</g>
	<g>
		<path class="st7" d="M136.8,156c0.1-28.6,14.6-51.4,37.7-64.4c-24.6,7.4-44.8,27.1-51.8,52.7c-9.1,33.8,6.5,78.9,42.5,89.3
			c1.5-2.2,3.2-4.4,4.9-6.5C151.1,207.9,136.7,183.8,136.8,156z"/>
		<path class="st7" d="M616.7,156c-0.1-28.6-14.6-51.4-37.7-64.4c24.6,7.4,44.8,27.1,51.8,52.7c9.1,33.8-5.8,78.6-42.7,89.2
			c-1.5-2.2-3-4.3-4.7-6.5C602.4,207.9,616.8,183.8,616.7,156z"/>
	</g>
</g>
</svg>
