<?xml version="1.0" encoding="utf-8"?>
<!-- Generator: Adobe Illustrator 24.1.1, SVG Export Plug-In . SVG Version: 6.00 Build 0)  -->
<svg version="1.1" id="Lager_1" xmlns="http://www.w3.org/2000/svg" xmlns:xlink="http://www.w3.org/1999/xlink" x="0px" y="0px"
	 viewBox="0 0 751.8 768.9" style="enable-background:new 0 0 751.8 768.9;" xml:space="preserve">
<style type="text/css">
	.st0{fill:#EB5E69;}
	.st1{fill:#575756;}
	.st2{fill:#3C3C3B;}
	.st3{fill:#F7BEC7;}
	.st4{fill:#1D1D1B;}
	.st5{fill:#FEFCF0;}
	.st6{fill:#FFFFFF;}
	.st7{fill:#F29AA7;}
</style>
<g>
	<g>
		<path class="st0" d="M376.1,493.2c7.4,0,13.8-15.6,17-20.6c3.5-5.5,7-11,10.5-16.6c-9.7-1.7-18.7-6.4-24.3-14
			c-0.2-0.2-0.4-0.6-0.6-0.9c-0.7-1-1.3-2.1-1.9-3.2c-0.2-0.4-0.4-0.8-0.6-1.2c-0.1-0.1-0.1-0.2-0.1-0.4c-0.1,0.1-0.1,0.2-0.2,0.4
			c-0.2,0.4-0.4,0.8-0.6,1.2c-0.6,1.1-1.2,2.2-1.9,3.2c-0.2,0.3-0.4,0.6-0.6,0.9c-5.6,7.7-14.6,12.3-24.3,14
			c3.6,5.7,7.3,11.5,10.9,17.2C362.6,478.2,368.9,493.2,376.1,493.2z"/>
		<path class="st1" d="M404.5,620.9c-6-1.9-10.6-7.7-9.3-14.4c1.1-6.5,6.8-10.1,12.8-10.6c-4.2-4.6-7.1-10-4-16.4
			c2.7-5.7,8.7-8.3,14.8-8.7c-3.5-9.7-8.2-18.9-13.6-27.5c-4.4-6.9-9.3-13.4-14.8-19.4c-4-4.3-9-10.7-14.3-13.4
			c-7.5-3.9-14.7,5.5-19.7,10.6c-5,5.2-9.7,10.8-13.9,16.8c-7.4,10.4-13.3,21.9-17.5,33.9c2.4-0.6,4.9-1,7.4-1
			c6.4,0,13,2.7,15.9,8.7c3.1,6.4,0.2,11.8-4,16.4c6,0.5,11.7,4.1,12.8,10.6c1.2,6.7-3.3,12.5-9.3,14.4c4,4.7,4.4,11.6,0.3,16.8
			c-3.5,4.4-8.5,6.2-13.6,6.5c2.9,3.1,6.1,5.9,9.9,8.3c12.6,8,26.6,6,40.9,6c11-2.6,19.5-8.3,25.8-15.8c-2.6-1.1-4.9-2.7-6.8-5.1
			C400.1,632.4,400.6,625.6,404.5,620.9z"/>
		<path class="st2" d="M368.6,652c-0.3-3,1.1-5.9,1-8.9c-0.1-3.2-2.2-5.9-1.5-9.2c0.7-3.5,5-6.9,2.1-10.5c-1.2-1.5-3.1-2.5-4.6-3.8
			c-3.3-2.8-1-6.3-0.4-9.7c1.1-6.3-5.2-9.2-5.7-14.9c-0.5-5.2,7.5-12.5,1.9-16.9c-1.2-0.9-1.1-2.7-0.8-4.1
			c0.7-4.3,5.2-12.8,1.4-16.5c-2.7-2.6-7.2-1.5-9.7-4.5c-2.1-2.6-1.4-6.1-1.7-9.2c-0.3-3.4-1.7-5.9-3.9-8.4c-0.3-0.4-1-0.6-1.6-0.8
			c-0.8,1.1-1.7,2.2-2.5,3.3c-7.4,10.4-13.3,21.9-17.5,33.9c2.4-0.6,4.9-1,7.4-1c6.4,0,13,2.7,15.9,8.7c3.1,6.4,0.2,11.8-4,16.4
			c6,0.5,11.7,4.1,12.8,10.6c1.2,6.7-3.3,12.5-9.3,14.4c4,4.7,4.4,11.6,0.3,16.8c-3.5,4.4-8.5,6.2-13.6,6.5c2.9,3.1,6.1,5.9,9.9,8.3
			c9.1,5.8,18.9,6.3,29,6.2c-1,0-3.6-3.8-4.1-4.6C368.8,653.3,368.6,652.7,368.6,652z"/>
		<path class="st2" d="M381.7,528.3c2.5,1.9,4.2,0.9,6.1,3.7c3.7,5.5-0.4,10.4,4,15.8c3.1,3.8,7.7,3.3,8.2,9.3
			c0.8,9.5-11.4,10.6-3.5,20.6c3,3.8,6.5,3.4,6.1,9.5c-0.1,1.9-2.7,4.7-2.7,6.2c0,2.3,0.2,3.9,0.5,5c2.2-1.5,4.8-2.3,7.5-2.6
			c-4.2-4.6-7.1-10-4-16.4c2.7-5.7,8.7-8.3,14.8-8.7c-3.5-9.7-8.2-18.9-13.6-27.5c-4.4-6.9-9.3-13.4-14.8-19.4
			c-4-4.3-9-10.7-14.3-13.4c-0.8-0.4-1.7-0.6-2.5-0.8C373.1,517.7,374.8,522.9,381.7,528.3z"/>
		<path class="st2" d="M404.4,621.1c0-0.1-0.1-0.2-0.1-0.3c-5.9-2-10.3-7.7-9.1-14.3c0.2-1.1,0.6-2.1,1-3.1c-3.7-5.5-3-5.8-2.3-11.9
			c0.5-4.9-3.2-8-5.7-11.7c-3.7-5.5-1.8-10,1.2-15.4c1.9-3.6,2.4-7.5-0.3-10.8c-2.4-3-6.1-4.5-7.3-8.4c-0.6-1.9-0.4-3.8-0.6-5.8
			c-0.7-6.2-7.8-6.6-11.1-10.6c-4.1-5-3.6-11.5-3-17.6c-4.1,2.4-7.8,6.8-10.7,9.8c-2.4,2.4-4.7,5-6.9,7.7c1.9,1.9,5.5,3,7,5.1
			c2.1,2.8,1.6,6.4,1.8,9.7c0.7,9.8,19.7,7.2,12.5,19.7c-1.4,2.4-4.4,6.9-2.7,9.7c0.6,0.9,1.6,1.5,2.5,2.2c6.8,5.6-4.7,15.8-1.1,23
			c1.1,2.1,2.9,3.9,3.1,6.2c0.2,2.7-1.8,5.1-1.5,7.8c0.3,3.2,3.6,5,5.6,7.5c4.8,6,1.3,14.6,1.3,21.5c0,2.4,0.8,4.8-0.9,6.6
			c-3,3.2,1.3,6.1,2.6,8.7c0.4,0.9,0.8,1.6,1.1,2.2c1.5,0,2.9-0.1,4.4-0.1c11-2.6,19.5-8.3,25.8-15.8c-2.6-1.1-4.9-2.7-6.8-5.1
			C400.2,632.4,400.6,625.7,404.4,621.1z"/>
		<path class="st3" d="M382.4,423.4c1.4-1.7,12.3-11.5,5.7-13.8c-5.8-0.9-11.6-1.3-17.4-1c-2.6,0.1-10.2,0.1-8.2,5.7
			c0.2,0.4,0.9,1,1.2,1.4c2.3,3.7,6,8.2,9.3,11.2C377.1,430.8,379.8,426.6,382.4,423.4z"/>
		<path class="st4" d="M742.2,407.9c-31.4-8.4-64.1-9.2-96.4-7c-1.1-23.2-6.7-46.5-14-69.1c-9-27.7-19.7-54.9-25.6-83.5
			c5.8-1,12.8-6.3,17.4-9.1c7.8-4.9,15-10.7,21.6-17.1c12.8-12.8,22.8-28.3,29.1-45.3c12.5-34.1,9.1-72.9-9-104.4
			C628.9,9.1,542.7-9.3,484,34.2c-30.1,22.3-48.3,57.1-50.3,94.2c-2.3-4-5-7.8-9.4-9.8c-7.5-3.2-15-0.6-20.9,4.2
			c1.2-7.5-0.9-15.4-8.9-18.6c-8.6-3.4-14.9,2.2-19.2,9c0.3-9.5-0.4-19.4-6.7-27c-4.9-5.9-12.6-9.2-20.2-8.7
			c-28.3,1.7-11.1,43.7-29.6,54.8c0.6-5.8-0.7-12.6-1.6-17.9c-1.4-9.3-4-18.4-7.5-27c-6.2-15.3-15.5-29.3-27.2-41
			c-25-25-60-38.2-95.3-36.1C114.7,14.6,60.8,82.5,72.2,154c6.7,41.9,35.2,77.5,73.9,94.3c-9.8,47.3-33.3,91.2-39.1,139.5
			c-0.5,4.3-0.8,8.7-0.9,13c-32.3-2.1-64.8-1.2-96,7.1c-2,0.6-1.1,3.6,0.8,3c30.9-8.3,63.2-9.1,95.1-7c-0.1,12.5,1.3,24.9,4.3,36.9
			c-20.9,1.5-41.7,4.1-62.4,8c-2,0.4-1.1,3.4,0.8,3c20.7-3.9,41.5-6.5,62.4-8c3.4,12.5,8.4,24.5,15.1,35.8
			c-17.6,3.9-34.9,8.6-52.1,14.2c-1.9,0.6-1.1,3.6,0.8,3c17.4-5.7,35.1-10.4,52.9-14.3c4.5,7.2,9.6,14,15.4,20.4
			c4.4,4.9,9.2,9.4,14.2,13.5c-6.9,40.7-27.4,78.3-30.1,119.8c-2.4,35.6,11,67.8,41.8,87c1.6,1.1,3.3,1.9,5,2.9
			c-6.9,4.7-18.8,16.7-13.7,24.9c4.9,7.8,17.3,4,24.2-0.7c0.3,9.3,13.8,11.7,19.7,4c3.7,4.9,9.7,7.4,15.9,6.5
			c8.6-1.3,12.5-8.7,13.8-16.6c23.2,2.8,47.1,2.5,69.9,2.5c43.9,0,87.8,0,131.7,0c26.6,0,54.1,0.9,80.8-2.2
			c1.4,7.8,5.2,15.1,13.7,16.4c6.3,0.9,12.3-1.6,16-6.5c5.9,7.7,19.4,5.2,19.7-4c7,4.6,19.6,8.6,24.3,0.7c4.6-7.9-5.5-18.9-12.5-24
			c11.4-6.1,21.9-14,30-24c12.5-15.3,18-34.5,18.6-54c1.4-46.5-23-88.3-30.5-133.4c11.6-9.3,21.7-20.2,29.8-32.9
			c17.4,3.9,34.8,8.5,51.8,14.1c1.9,0.6,2.7-2.4,0.8-3c-16.8-5.5-33.8-10.1-51-14c3.2-5.5,6.2-11.2,8.6-17.3
			c2.6-6.2,4.5-12.4,6-18.7c20.7,1.6,41.3,4.1,61.7,8c1.9,0.4,2.8-2.6,0.8-3c-20.4-3.9-41.1-6.5-61.8-8c2.7-12.2,3.7-24.5,3.3-36.9
			c32-2.2,64.4-1.4,95.4,6.9C743.2,411.4,744.1,408.4,742.2,407.9z M228.6,751.6c-5.4,9-18.3,7.8-23-0.9c-0.5-1-2.2-1.1-2.7,0
			c-0.6,2-1.9,3.4-3.8,4c-4.4,3.5-8.1,1-11-7.6c0.5-1.6-1.6-2.6-2.6-1.6c-4.5,4.5-23.7,12.8-22.2-1.5c0.7-6.5,7.9-12.7,13.1-15.9
			c1.1,0.3,2.2,0.6,3.3,0.9c15.4,7.6,31.9,11.9,49,14.4c0.4,0.1,0.7,0.2,1.1,0.4c0.3,0.2,1.7,0.2,1.9,0.6
			C232.1,744.9,229.3,750.5,228.6,751.6z M587.1,744.1c1.5,14.3-17.8,6-22.2,1.5c-1.1-1.1-3.1,0-2.6,1.6c-2.9,8.6-6.6,11.1-11,7.6
			c-1.9-0.7-3.2-2.1-3.7-4c-0.6-1.1-2.2-1-2.7,0c-4.3,8-15.6,9.8-21.6,2.6c-0.9-1.1-5-8-4.7-8.7c0.2-0.3,1.4-0.4,1.7-0.6
			c0.1,0,0.1,0,0.2-0.1c14.3-1.9,28.4-5,41.9-10.1c4.2-1.6,8.2-3.3,12.2-5.3C579.8,731.9,586.4,737.8,587.1,744.1z M485.1,439
			c40.2-16.6,82.8-26.6,125.9-31.8c10.7-1.2,21.4-2.4,32.1-3.2c0.2,12.3-1,24.6-3.7,36.6c-47.3-3.2-94.8-0.6-141.5,8.4
			c-1.9,0.4-1.1,3.4,0.9,3c46.1-8.8,93.1-11.5,139.8-8.4c-3.2,12.5-8,24.5-14.5,35.5c-43.5-9.5-88-13.7-132.6-12.4
			c-2,0.1-2,3.2,0,3.1c44-1.3,87.9,2.9,130.7,12.1c-3.4,5.5-7.3,10.8-11.6,15.7c-15.6,17.6-35.7,30.1-57.4,38.6
			c-1.9,0.7-1.1,3.7,0.8,3c13.9-5,27.1-12.3,39.1-20.9c6.9,39.2,26.3,75.4,29.6,115.3c1.6,18.9-0.4,38.6-9.5,55.4
			c-8.6,15.9-22.7,27.8-38.6,36c-0.3-0.1-0.5-0.2-0.9-0.1c-18.1,5.4-36.2,10.7-54.3,16.1c-24.4,3.1-49.5,2.6-73.6,2.6
			c-41.6,0-83.3,0-124.9,0c-31.7,0-63.9,1.1-95.3-4.1c-14.8-4.4-29.6-8.8-44.4-13.1c-10.7-5.2-20.5-11.8-28.7-20.4
			c-15.5-16.1-22.2-37.5-22.4-59.5c-0.4-44.6,22.4-84.7,30-127.8c1.1,0.9,2.3,1.7,3.4,2.6c10.4,8,22.2,14.3,34.6,18.1
			c1.9,0.6,2.7-2.4,0.8-3c-13.4-4.5-25.7-11.5-36.7-20.1c-0.7-0.6-1.4-1.1-2.1-1.6c0,0,0,0,0-0.1c-11.4-9.2-21.2-20.4-29.2-32.8
			c42.5-9.1,86-13.1,129.6-11.9c2.1,0.1,2.1-3.1,0-3.1c-44.2-1.3-88.3,2.9-131.4,12.2c-5.1-8.4-9.3-17.3-12.6-26.5
			c-1.1-2.9-1.9-5.9-2.7-8.8c46.6-3.1,93.5-0.4,139.5,8.4c2,0.4,2.8-2.6,0.9-3c-46.5-9-93.9-11.6-141-8.5c-3-12.1-4.2-24.3-3.9-36.4
			c10.7,0.7,21.2,1.9,31.8,3.1c43.2,5.2,85.7,15.1,125.9,31.8c1.9,0.7,2.7-2.2,0.8-3c-40.5-16.8-83.3-26.7-126.8-31.9
			c-10.5-1.2-21.1-2.3-31.6-3.1c1.1-26.6,8.7-53,17.4-78.7c8.4-24.7,17.4-49.3,22.5-75c0.2-1-0.4-2-1.5-2c-0.2,0-0.5,0-0.7,0
			c-32.5-14.2-57.9-41.7-68.3-75.8c-10.3-33.4-5.3-70.4,13.3-100c37.2-58.9,119.5-74.1,175.2-32c14.9,11.3,27.2,26,35.4,42.7
			c4.3,8.5,7.5,17.6,9.6,26.8c1.9,8,5,19.7,2.8,27.8c-0.2,1,0.8,2.4,1.9,1.9c16.3-6.4,13.1-27.4,16.9-41.2
			c2.1-7.4,5.4-14.2,14.3-14.8c5.9-0.4,12.1,1.8,16.4,6c8.7,8.5,7.8,22,7,33.1c-0.1,1.5,2.2,2.1,2.9,0.7c2.9-6,7-14.4,15.1-14.1
			c11,0.3,12.6,13.1,9.1,20.9c-0.6,1.5,1.2,3.4,2.5,1.9c6.5-7.7,18.7-13.3,26.6-3.8c2.3,2.7,4,6.4,5.7,9.5c0.8,1.4,2.9,0.7,2.9-0.8
			c0.6-70.1,61.5-126.6,131.7-120.5c71,6.2,122.1,75.4,107.6,145.1c-4.1,19.9-13.3,38.6-26.5,53.9c-6.5,7.6-14,14.5-22.1,20.2
			c-3.6,2.6-7.2,4.9-11.1,7c-3.2,1.8-8.3,5.5-12.1,5.5c-1.1,0-1.7,1-1.5,2c9.4,47.3,33.1,91.1,39.2,139.2c0.6,4.8,1,9.7,1.2,14.5
			c-10.8,0.8-21.5,1.9-32.1,3.2c-43.4,5.2-86.3,15.1-126.8,31.9C482.5,436.8,483.2,439.8,485.1,439z"/>
		<path class="st5" d="M484.3,436c40.5-16.8,83.3-26.7,126.8-31.9c10.6-1.2,21.3-2.4,32.1-3.2c-0.2-4.8-0.6-9.7-1.2-14.5
			c-6.1-48.1-29.8-91.8-39.2-139.2c-0.2-1,0.4-2,1.5-2c3.7,0,8.9-3.7,12.1-5.5c3.9-2.1,7.5-4.4,11.1-7c8.2-5.7,15.6-12.6,22.1-20.2
			c13.2-15.4,22.4-34.1,26.5-53.9C690.5,89,639.4,19.8,568.4,13.6c-70.3-6.1-131.1,50.3-131.7,120.5c0,1.6-2.1,2.2-2.9,0.8
			c-1.7-3.1-3.4-6.7-5.7-9.5c-7.8-9.5-20.1-3.9-26.6,3.8c-1.2,1.4-3.1-0.4-2.5-1.9c3.5-7.7,1.9-20.6-9.1-20.9
			c-8-0.2-12.1,8.1-15.1,14.1c-0.7,1.4-3,0.7-2.9-0.7c0.7-11.1,1.7-24.6-7-33.1c-4.2-4.2-10.5-6.4-16.4-6
			c-8.9,0.6-12.2,7.4-14.3,14.8c-3.8,13.8-0.6,34.9-16.9,41.2c-1.1,0.5-2.2-0.9-1.9-1.9c2.2-8.2-0.9-19.8-2.8-27.8
			c-2.1-9.2-5.3-18.3-9.6-26.8c-8.3-16.7-20.5-31.4-35.4-42.7c-55.7-42-137.9-26.9-175.2,32c-18.6,29.6-23.6,66.6-13.3,100
			c10.5,34.1,35.8,61.6,68.3,75.8c0.2,0,0.4,0,0.7,0c1.1,0,1.7,1,1.5,2c-5.1,25.7-14.1,50.3-22.5,75c-8.8,25.7-16.3,52.1-17.4,78.7
			c10.6,0.8,21.2,1.9,31.6,3.1c43.4,5.2,86.3,15.1,126.8,31.9c1.9,0.7,1.1,3.7-0.8,3c-40.2-16.6-82.8-26.6-125.9-31.8
			c-10.5-1.2-21.1-2.4-31.8-3.1c-0.3,12.1,0.9,24.3,3.9,36.4c47.1-3.2,94.5-0.5,141,8.5c1.9,0.4,1.1,3.4-0.9,3
			c-46-8.8-92.9-11.5-139.5-8.4c0.8,2.9,1.7,5.9,2.7,8.8c3.2,9.3,7.5,18.1,12.6,26.5c43.1-9.3,87.2-13.5,131.4-12.2
			c2.1,0.1,2.1,3.2,0,3.1c-43.6-1.2-87.1,2.8-129.6,11.9c7.9,12.4,17.8,23.5,29.2,32.8c0,0.1,0,0.1,0,0.1c0.7,0.6,1.4,1.1,2.1,1.6
			c11,8.6,23.3,15.5,36.7,20.1c1.9,0.6,1.1,3.6-0.8,3c-12.4-3.9-24.2-10.2-34.6-18.1c-1.1-0.8-2.3-1.7-3.4-2.6
			c-7.7,43.1-30.5,83.2-30,127.8c0.2,22,6.9,43.4,22.4,59.5c8.2,8.6,18.1,15.2,28.7,20.4c14.8,4.4,29.6,8.7,44.4,13.1
			c31.4,5.2,63.6,4.1,95.3,4.1c41.6,0,83.3,0,124.9,0c24.2,0,49.3,0.6,73.6-2.6c18.1-5.4,36.1-10.7,54.3-16.1
			c0.4-0.1,0.6,0.1,0.9,0.1c15.9-8.2,30-20.1,38.6-36c9.1-16.9,11.1-36.6,9.5-55.4c-3.3-39.9-22.7-76.1-29.6-115.3
			c-12,8.6-25.2,15.9-39.1,20.9c-1.9,0.7-2.7-2.2-0.8-3c21.7-8.5,41.9-21,57.4-38.6c4.4-4.9,8.2-10.2,11.6-15.7
			c-42.9-9.2-86.8-13.4-130.7-12.1c-2,0.1-2-3.1,0-3.1c44.6-1.3,89.1,2.9,132.6,12.4c6.5-11,11.3-23,14.5-35.5
			c-46.7-3.1-93.7-0.4-139.8,8.4c-2,0.4-2.8-2.6-0.9-3c46.7-9,94.2-11.6,141.5-8.4c2.7-12,3.9-24.2,3.7-36.6
			c-10.7,0.8-21.4,1.9-32.1,3.2c-43.1,5.2-85.7,15.1-125.9,31.8C483.2,439.8,482.5,436.8,484.3,436z M513.9,92.5
			c37.9-28.5,93.9-17.6,118.5,22.9c23.7,39,10.1,104.3-38.1,117.3c-0.1,0.1-0.2-0.1-0.2,0c-0.2,0-0.5-0.1-0.7-0.1
			c-0.1-0.1-0.2-0.1-0.2-0.1c-0.2-0.1-0.4-0.2-0.5-0.4c-24.5-36.3-66.2-65.6-110-72.9c-0.6-0.1-1.1-0.9-1.1-1.5
			C481.8,132.1,493.4,108,513.9,92.5z M310.7,418.3c1.6-1.2,3.2,1.5,1.6,2.7c-9.3,6.5-7.7,18.1,0.5,24.5c6.4,5,14.3,7.5,22.3,8.2
			c3.7,0.2,7.4,0.1,11.1-0.4c1.4-0.2,2.8-0.5,4.2-0.9h0.1c4.4-1.1,8.5-2.7,12.1-5c0.4-0.2,0.9-0.5,1.2-0.7c0.6-0.4,1.2-0.9,1.7-1.4
			c0.9-0.7,1.8-1.6,2.6-2.4c0.4-0.4,0.8-0.9,1.2-1.4c0.9-1.1,1.6-2.2,2.4-3.4c0.2-0.4,0.5-0.9,0.7-1.3c0.8-1.6,1.4-3.2,1.9-4.9
			c-0.9-0.3-1.9-0.9-2.9-1.8c-2.7-2.5-4.9-5.9-7.2-8.7c-1.7-2-4.5-4.5-5.4-7.1c-4.7-13.1,24.7-8.5,30-7.6c9.4,3.2,2.6,11-1.2,15.4
			c-2.6,3-5.9,8.2-9.8,9.7c0.5,1.7,1.1,3.4,1.9,5c0.2,0.4,0.6,0.9,0.8,1.4c0.7,1.1,1.4,2.2,2.3,3.3c0.4,0.4,0.8,0.9,1.2,1.4
			c0.7,0.9,1.6,1.6,2.6,2.4c0.6,0.4,1.1,1,1.7,1.4c0.4,0.3,1,0.6,1.4,0.9c3.4,2.1,7.4,3.7,11.4,4.8c0.4,0.1,0.9,0.2,1.4,0.3
			c1,0.2,2,0.4,3,0.6c3.9,0.6,7.8,0.7,11.5,0.5c8.3-0.6,17.6-3.4,23.9-9.3c7.2-6.7,7.4-17.5-1.1-23.4c-1.6-1.2-0.1-3.9,1.6-2.7
			c6.7,4.6,10.1,12.9,7,20.7c-3.3,8.6-13.1,13.7-21.4,16c-6.2,1.8-13.3,2.3-20.1,1.5c-4.8,7.6-9.6,15.2-14.4,22.8
			c-3.8,5.9-8.1,16.9-16.4,16.9c-8.4,0-12.7-11-16.5-16.9c-4.8-7.6-9.6-15.2-14.4-22.8c-6.9,0.8-13.8,0.3-20.1-1.5
			c-8.3-2.3-18.1-7.4-21.4-16C300.6,431.2,304.1,422.9,310.7,418.3z M159.6,232c-0.1,0.2-0.3,0.4-0.5,0.4c-0.1,0.1-0.1,0.1-0.2,0.1
			c-0.2,0.1-0.5,0.1-0.8,0.1c-0.1-0.1-0.1,0.1-0.2,0c-26.6-7.1-43.5-32.6-48.3-58.6c-8.7-46.5,23.5-92.4,71.3-97.4
			c47.9-5,89.3,33.3,89.9,81c0.1,0.6-0.4,1.4-1.1,1.5C225.8,166.4,184.1,195.7,159.6,232z M243.8,390.4
			c-29.4-2.1-51.8-30.8-49.5-63.5c2.3-32.8,28.4-58.1,57.9-56c28,2,50.5,23.2,50.4,54.3c-0.1,0.7-0.6,1.4-1.4,1.4
			c0,0-23.8,7.6-22.3,8l22,7.6c0.7,0.2,1.1,0.9,0.9,1.6C296.1,372.9,270.5,392.3,243.8,390.4z M554.4,608.8c1.7-0.9,3.4,1.7,1.6,2.7
			c-34.3,18.5-73.4,25.9-112.1,21l-0.1-0.1c-3.6,4.1-8.1,7.4-13.3,9.5c-5,2.1-11.1,3-16.5,1.8c-6.9,8.6-16.4,15.1-28.2,17.9
			c-0.1,0-0.2-0.1-0.2-0.1c-0.1,0.1-0.1,0.1-0.2,0.1c-10,0-21.8,1.9-31.5-1.2c-9.4-2.9-17.4-8.9-23.6-16.4c-3-0.4-5.9-1.1-8.5-2.2
			c-5.2-2.1-9.7-5.4-13.3-9.5c0,0,0,0.1-0.1,0.1c-38.7,4.9-77.8-2.5-112.1-21c-1.8-0.9-0.2-3.6,1.6-2.7
			c33.1,17.9,70.8,25,108.2,20.7c-1.4-2.1-2.7-4.3-3.7-6.7c-2.9-7.2-2.6-14.6-2.6-22.1c0.1-2.7,0.7-5.2,1.6-7.7
			c-6-0.7-11.7-2.2-17.3-4.5c-1.9-0.7-1.1-3.8,0.8-3.1c5.5,2.3,11.2,3.8,17.1,4.5c0.2,0.1,0.3,0.2,0.4,0.2
			c3.6-7.8,10.5-14.1,18.8-17.3c1.6-4.8,3.5-9.5,5.5-14c10-21.7,25.3-40.5,44.4-54.9c0.4-0.3,1.2-0.3,1.6,0
			c22.1,16.6,40.6,40.4,49.6,67c11.8,0.9,22.7,8.6,27.5,19.1c0.2-0.1,0.2-0.2,0.5-0.2c5.9-0.7,11.6-2.2,17.1-4.5
			c1.9-0.7,2.7,2.3,0.8,3.1c-5.6,2.3-11.3,3.7-17.3,4.5c0.8,2.5,1.4,5,1.6,7.7c0,7.6,0.3,15.1-2.6,22.3c-1,2.4-2.2,4.5-3.6,6.5
			C483.5,633.8,521.2,626.6,554.4,608.8z M449.8,327c2.3-32.8,28.4-58.1,57.9-56c28,2,50.5,23.2,50.4,54.3c0,0.7-0.6,1.4-1.4,1.4
			c0,0-23.7,7.6-22.3,8l22,7.6c0.7,0.2,1.1,0.9,0.9,1.6c-5.7,29.1-31.3,48.5-58.1,46.6C469.9,388.3,447.5,359.7,449.8,327z"/>
		<path class="st1" d="M147.4,245.4h0.7c1.1,0,1.7,1,1.5,2c-5.1,25.7-14.1,50.3-22.5,75c-2.8,8.2-5.5,16.6-7.9,24.9
			c6.5,1.1,12.6,1.6,17.3,1.6c19.3-0.3,35.9-14.6,43.8-31.4c13.9-29.6,25-56.8,52-76.6c45.7-33.6,101.2-33.2,154.3-43.9
			c16.5-3.3,34.9-8.1,47.5-19.9c7-6.5,13-16.1,11-26.1c-1.3-6.6-4.9-12.5-8.3-18.5c0,0.5-0.1,1-0.1,1.5c0,1.6-2.1,2.2-2.9,0.8
			c-1.7-3.1-3.4-6.7-5.7-9.5c-7.8-9.5-20.1-3.9-26.6,3.8c-1.2,1.4-3.1-0.4-2.5-1.9c3.5-7.7,1.9-20.6-9.1-20.9
			c-8-0.2-12.1,8.1-15.1,14.1c-0.7,1.4-3,0.7-2.9-0.7c0.7-11.1,1.7-24.6-7-33.1c-4.2-4.2-10.5-6.4-16.4-6
			c-8.9,0.6-12.2,7.4-14.3,14.8c-3.8,13.8-0.6,34.9-16.9,41.2c-1.1,0.5-2.2-0.9-1.9-1.9c2.2-8.2-0.9-19.8-2.8-27.8
			c-2.1-9.2-5.3-18.3-9.6-26.8c-8.3-16.7-20.5-31.4-35.4-42.7c-55.7-42-137.9-26.9-175.2,32c-18.6,29.6-23.6,66.6-13.3,100
			C89.5,203.6,114.8,231.2,147.4,245.4z M180.8,76.6c47.9-5,89.3,33.3,89.9,81c0.1,0.6-0.4,1.4-1.1,1.5
			c-43.9,7.3-85.5,36.6-110,72.9c-0.1,0.2-0.3,0.4-0.5,0.4c-0.1,0.1-0.1,0.1-0.2,0.1c-0.2,0.1-0.5,0.1-0.8,0.1
			c-0.1-0.1-0.1,0.1-0.2,0c-26.6-7.1-43.5-32.6-48.3-58.6C100.9,127.5,133.1,81.6,180.8,76.6z"/>
		<path class="st3" d="M486.4,156.7c2.8,0.9,5.7,1.4,8.6,2.2c9.8,2.8,19.5,6.5,28.8,10.8c28.5,13.4,52.9,33.7,70.8,59.6
			c42.2-12.1,56.6-68.6,39.1-105.3c-15.3-32.1-51.3-50.2-86.2-43.2c-16.8,3.4-32.1,12.3-43.4,25.1c-6.1,6.9-11,14.8-14.3,23.4
			c-1.5,3.8-2.7,7.8-3.5,11.8c-0.8,3.9-0.6,8.3-1.6,12.1C483.7,157.2,483.1,155.7,486.4,156.7z"/>
		<path class="st4" d="M482.6,159.1c43.9,7.3,85.5,36.6,110,72.9c0.1,0.2,0.3,0.4,0.5,0.4c0.1,0.1,0.1,0.1,0.2,0.1
			c0.2,0.1,0.5,0.1,0.7,0.1c0.1-0.1,0.1,0.1,0.2,0c48.2-13,61.9-78.3,38.1-117.3C607.8,74.9,551.9,64,513.9,92.5
			c-20.5,15.4-32.1,39.6-32.5,65.1C481.5,158.2,482,159,482.6,159.1z M484.7,153.3c1-3.9,0.7-8.2,1.6-12.1c0.9-4,2.1-8,3.5-11.8
			c3.3-8.6,8.2-16.6,14.3-23.4c11.3-12.8,26.6-21.7,43.4-25.1c34.9-7,70.9,11.1,86.2,43.2c17.4,36.7,3.1,93.1-39.1,105.3
			c-17.8-25.9-42.3-46.2-70.8-59.6c-9.3-4.4-18.9-8-28.8-10.8c-2.9-0.8-5.8-1.3-8.6-2.2C483.1,155.7,483.7,157.2,484.7,153.3z"/>
		<path class="st4" d="M557.3,343.8c0.2-0.7-0.2-1.4-0.9-1.6l-22-7.6c-1.4-0.4,22.3-8,22.3-8c0.7,0,1.4-0.6,1.4-1.4
			c0.1-31.1-22.4-52.3-50.4-54.3c-29.5-2.1-55.6,23.2-57.9,56c-2.3,32.7,20.1,61.4,49.5,63.5C526,392.3,551.6,372.9,557.3,343.8z
			 M483.4,323.5c-25.4-10.7-8.8-50.2,16.6-39.5C525.5,294.7,508.8,334.1,483.4,323.5z M505.4,329.2c10.2,4.3,3.5,20.1-6.7,15.8
			C488.6,340.7,495.2,324.9,505.4,329.2z"/>
		<path class="st4" d="M446.2,629.5c1.4-2,2.6-4.2,3.6-6.5c2.9-7.2,2.6-14.7,2.6-22.3c-0.1-2.7-0.7-5.2-1.6-7.7
			c6-0.7,11.7-2.2,17.3-4.5c1.9-0.7,1.1-3.8-0.8-3.1c-5.5,2.3-11.2,3.8-17.1,4.5c-0.2,0.1-0.3,0.2-0.5,0.2
			c-4.8-10.5-15.7-18.2-27.5-19.1c-9-26.6-27.5-50.5-49.6-67c-0.4-0.3-1.1-0.3-1.6,0c-19.1,14.4-34.4,33.1-44.4,54.9
			c-2.1,4.5-3.9,9.2-5.5,14c-8.3,3.1-15.2,9.4-18.8,17.3c-0.1-0.1-0.2-0.2-0.4-0.2c-5.9-0.7-11.6-2.2-17.1-4.5
			c-1.9-0.7-2.7,2.3-0.8,3.1c5.6,2.3,11.3,3.7,17.3,4.5c-0.8,2.5-1.4,5-1.6,7.7c0,7.5-0.3,15,2.6,22.1c1,2.4,2.3,4.7,3.7,6.7
			c-37.4,4.3-75.1-2.9-108.2-20.7c-1.7-0.9-3.4,1.7-1.6,2.7c34.3,18.5,73.4,25.9,112.1,21c0.1,0,0.1-0.1,0.1-0.1
			c3.6,4.1,8.1,7.4,13.3,9.5c2.6,1.1,5.5,1.8,8.5,2.2c6.2,7.5,14.2,13.5,23.6,16.4c9.7,3.1,21.4,1.2,31.5,1.2c0.1,0,0.1-0.1,0.2-0.1
			c0.1,0,0.1,0.1,0.2,0.1c11.8-2.7,21.2-9.3,28.2-17.9c5.4,1.2,11.5,0.2,16.5-1.8c5.2-2.1,9.7-5.4,13.3-9.5l0.1,0.1
			c38.7,4.9,77.8-2.5,112.1-21c1.8-0.9,0.2-3.6-1.6-2.7C521.2,626.6,483.5,633.8,446.2,629.5z M329.3,640.8
			c-7.1-1.2-14.2-5-18.9-10.6c-7.4-8.6-7.5-18.9-7.5-29.6c0.5-11.9,8.6-20.2,19.3-24.5c5.4-2.2,11.8-3.4,17.3-0.7
			c10.9,5.4,6.3,14.9-0.1,21c-1.2,1.1,0.1,2.8,1.6,2.6c14.1-2.3,18.3,18.4,3.6,19.4c-1.6,0.1-2,2-0.7,2.9c5.2,3.9,5,11.5,0.6,15.8
			C340.4,641,334.6,641.7,329.3,640.8z M385.1,658.5c-14.3,0-28.3,2.1-40.9-6c-3.8-2.4-7-5.3-9.9-8.3c5.2-0.2,10.2-2.1,13.6-6.5
			c4.1-5.2,3.7-12.1-0.3-16.8c6-1.9,10.6-7.7,9.3-14.4c-1.1-6.5-6.8-10.1-12.8-10.6c4.2-4.6,7.2-10,4-16.4c-2.9-6-9.5-8.7-15.9-8.7
			c-2.5,0-4.9,0.4-7.4,1c4.2-12,10.2-23.5,17.5-33.9c4.2-5.9,8.8-11.6,13.9-16.8c5-5.1,12.1-14.5,19.7-10.6
			c5.3,2.7,10.3,9.1,14.3,13.4c5.5,6,10.5,12.5,14.8,19.4c5.5,8.6,10.2,17.9,13.6,27.5c-6,0.3-12.1,3-14.8,8.7
			c-3.1,6.4-0.2,11.8,4,16.4c-6,0.5-11.7,4.1-12.8,10.6c-1.2,6.7,3.3,12.5,9.3,14.4c-4,4.7-4.4,11.5-0.4,16.7c1.9,2.4,4.2,4,6.8,5.1
			C404.6,650.2,396.1,656,385.1,658.5z M441.9,630.2c-4.3,5-10.5,8.5-16.8,10.2c-5.4,1.4-11.1,1.1-15.7-2.2
			c-5.5-4-7.2-12.3-0.9-16.9c1.3-0.9,0.9-2.7-0.7-2.9c-14.7-1.1-10.4-21.7,3.6-19.4c1.4,0.2,2.8-1.4,1.6-2.6
			c-6.1-5.7-10-13.8-2-20.1c5.1-4,13.8-2.3,19.2-0.1c10.7,4.3,18.7,12.6,19.2,24.5C449.3,611.3,449.2,621.7,441.9,630.2z"/>
		<path class="st6" d="M505.4,329.2c-10.2-4.3-16.8,11.5-6.7,15.8C508.9,349.3,515.5,333.5,505.4,329.2z"/>
		<path class="st6" d="M500,284c-25.4-10.7-42,28.8-16.6,39.5C508.8,334.1,525.5,294.7,500,284z"/>
		<path class="st4" d="M303.7,439.1c3.3,8.6,13.1,13.7,21.4,16c6.3,1.8,13.3,2.3,20.1,1.5c4.8,7.6,9.6,15.2,14.4,22.8
			c3.8,5.9,8.1,16.9,16.5,16.9c8.3,0,12.6-11,16.4-16.9c4.8-7.6,9.6-15.2,14.4-22.8c6.9,0.8,13.9,0.3,20.1-1.5
			c8.3-2.3,18.1-7.4,21.4-16c3.1-7.8-0.4-16.1-7-20.7c-1.6-1.2-3.2,1.5-1.6,2.7c8.4,5.9,8.2,16.6,1.1,23.4
			c-6.2,5.9-15.5,8.7-23.9,9.3c-3.7,0.2-7.7,0.1-11.5-0.5c-1-0.2-2-0.4-3-0.6c-0.5-0.1-0.9-0.2-1.4-0.3c-4-1.1-8-2.7-11.4-4.8
			c-0.4-0.3-1-0.6-1.4-0.9c-0.6-0.4-1.2-1-1.7-1.4c-0.9-0.7-1.8-1.5-2.6-2.4c-0.4-0.4-0.9-0.9-1.2-1.4c-0.9-1.1-1.6-2.2-2.3-3.3
			c-0.2-0.5-0.6-0.9-0.8-1.4c-0.8-1.6-1.4-3.2-1.9-5c3.9-1.4,7.2-6.7,9.8-9.7c3.8-4.5,10.7-12.3,1.2-15.4c-5.4-0.9-34.7-5.5-30,7.6
			c0.9,2.6,3.7,5.1,5.4,7.1c2.4,2.9,4.5,6.2,7.2,8.7c1,0.9,2,1.5,2.9,1.8c-0.5,1.7-1.1,3.3-1.9,4.9c-0.2,0.4-0.5,0.9-0.7,1.3
			c-0.7,1.2-1.5,2.3-2.4,3.4c-0.4,0.4-0.7,0.9-1.2,1.4c-0.8,0.8-1.7,1.6-2.6,2.4c-0.6,0.5-1.1,1-1.7,1.4c-0.4,0.2-0.9,0.5-1.2,0.7
			c-3.6,2.3-7.7,4-12.1,5h-0.1c-1.4,0.4-2.7,0.6-4.2,0.9c-3.7,0.6-7.5,0.7-11.1,0.4c-8-0.7-15.9-3.1-22.3-8.2
			c-8.2-6.5-9.8-18.1-0.5-24.5c1.6-1.2,0.1-3.9-1.6-2.7C304.1,422.9,300.6,431.2,303.7,439.1z M372.8,426.9c-3.2-2.9-7-7.5-9.3-11.2
			c-0.2-0.4-1-0.9-1.2-1.4c-2-5.6,5.6-5.5,8.2-5.7c5.9-0.3,11.6,0.1,17.4,1c6.6,2.2-4.2,12.1-5.7,13.8
			C379.8,426.6,377.1,430.8,372.8,426.9z M372.9,442.1c0.2-0.2,0.4-0.6,0.6-0.9c0.7-1,1.3-2.1,1.9-3.2c0.2-0.4,0.4-0.8,0.6-1.2
			c0.1-0.1,0.1-0.2,0.2-0.4c0,0.1,0.1,0.2,0.1,0.4c0.2,0.4,0.4,0.8,0.6,1.2c0.6,1.1,1.2,2.2,1.9,3.2c0.2,0.3,0.4,0.6,0.6,0.9
			c5.6,7.7,14.6,12.3,24.3,14c-3.5,5.5-7,11-10.5,16.6c-3.2,5-9.6,20.6-17,20.6c-7.3,0-13.5-15-16.6-19.9
			c-3.6-5.7-7.3-11.5-10.9-17.2C358.3,454.3,367.3,449.7,372.9,442.1z"/>
		<path class="st3" d="M430.1,576.2c-5.4-2.2-14.1-3.9-19.2,0.1c-8,6.4-4.1,14.4,2,20.1c1.2,1.1-0.1,2.8-1.6,2.6
			c-14-2.3-18.3,18.4-3.6,19.4c1.6,0.1,2.1,2,0.7,2.9c-6.2,4.6-4.5,12.9,0.9,16.9c4.5,3.3,10.3,3.7,15.7,2.2
			c6.3-1.7,12.5-5.2,16.8-10.2c7.4-8.6,7.5-18.9,7.5-29.6C448.8,588.8,440.7,580.5,430.1,576.2z"/>
		<path class="st3" d="M343.8,621.3c-1.2-0.9-0.8-2.7,0.7-2.9c14.7-1.1,10.5-21.7-3.6-19.4c-1.4,0.2-2.7-1.4-1.6-2.6
			c6.4-6,11-15.6,0.1-21c-5.5-2.7-11.8-1.4-17.3,0.7c-10.7,4.3-18.8,12.6-19.3,24.5c0,10.7,0.1,21,7.5,29.6
			c4.7,5.5,11.8,9.4,18.9,10.6c5.3,0.9,11.1,0.1,15.1-3.7C348.8,632.8,349,625.1,343.8,621.3z"/>
		<path class="st4" d="M301.8,343.8c0.1-0.7-0.2-1.4-0.9-1.6l-22-7.6c-1.5-0.4,22.3-8,22.3-8c0.7,0,1.3-0.6,1.4-1.4
			c0.1-31.1-22.4-52.3-50.4-54.3c-29.5-2.1-55.6,23.2-57.9,56c-2.3,32.7,20.1,61.4,49.5,63.5C270.5,392.3,296.1,372.9,301.8,343.8z
			 M243.2,345c-10.2-4.3-3.5-20.1,6.7-15.8C260,333.5,253.4,349.3,243.2,345z M227.9,323.5c-25.4-10.7-8.8-50.2,16.6-39.5
			C269.9,294.7,253.3,334.1,227.9,323.5z"/>
		<path class="st4" d="M270.8,157.6c-0.6-47.7-42-86-89.9-81c-47.7,5-79.9,50.9-71.3,97.4c4.9,26,21.7,51.5,48.3,58.6
			c0.1,0.1,0.2-0.1,0.2,0c0.3,0,0.6-0.1,0.8-0.1c0.1-0.1,0.1-0.1,0.2-0.1c0.2-0.1,0.4-0.2,0.5-0.4c24.5-36.3,66.2-65.6,110-72.9
			C270.3,159,270.8,158.2,270.8,157.6z M268.2,156.2c-0.9,0.9-4.9,1.1-6.2,1.4c-8.8,2.2-17.5,5.2-25.9,8.7
			c-31.6,13.3-59,34.8-78.4,63.1c-37.2-10.8-53.3-57.4-43.9-92.3c9.3-34.5,42-58.7,77.7-57.7c35.3,0.9,66.3,26.4,74.2,60.8
			C266.4,143.1,268.9,155.5,268.2,156.2z"/>
		<path class="st3" d="M191.5,79.4c-35.7-1-68.4,23.2-77.7,57.7c-9.4,34.9,6.7,81.5,43.9,92.3c19.4-28.3,46.8-49.8,78.4-63.1
			c8.4-3.5,17.1-6.5,25.9-8.7c1.2-0.3,5.2-0.5,6.2-1.4c0.7-0.7-1.8-13.1-2.5-16.1C257.9,105.8,226.8,80.3,191.5,79.4z"/>
		<path class="st7" d="M128.3,149.2c0.1-29.5,15.1-53.1,39-66.5c-25.4,7.6-46.3,28-53.5,54.5c-9.4,34.9,6.7,81.5,43.9,92.3
			c1.6-2.3,3.3-4.5,5-6.8C143.1,202.7,128.2,177.9,128.3,149.2z"/>
		<path class="st6" d="M249.9,329.2c-10.2-4.3-16.8,11.5-6.7,15.8C253.4,349.3,260,333.5,249.9,329.2z"/>
		<path class="st6" d="M244.5,284c-25.4-10.7-42,28.8-16.6,39.5C253.3,334.1,269.9,294.7,244.5,284z"/>
	</g>
</g>
</svg>
